<svg width="1299" height="350" viewBox="0 0 1299 350" fill="none" xmlns="http://www.w3.org/2000/svg">
<g clip-path="url(#clip0_5_724)">
<path d="M1180.52 1H1226.5L1195.41 189.487L846 197.5L1026.42 154.2C1047.25 149.199 1065.93 137.637 1079.7 121.218L1180.52 1Z" fill="#195B8C" stroke="black"/>
<path d="M1182.52 6H1225L1197.41 194.487L848 202.5L1028.42 159.2C1049.25 154.199 1067.93 142.637 1081.7 126.218L1182.52 6Z" fill="#266EA4" stroke="black"/>
<path d="M39.216 234.951L39.2365 234.941L39.256 234.929L58.1047 223.693C96.7406 200.66 140.884 188.5 185.865 188.5H1047.99H1048L1228.5 194.484V232.597L869.625 310.992C834.607 318.642 798.868 322.5 763.025 322.5H221.34C152.59 322.5 84.5802 308.308 21.568 280.811L9.75005 275.654C-1.62924 270.689 -1.91187 254.651 9.2854 249.287L39.216 234.951Z" fill="#ECF4FD" stroke="black"/>
<path d="M128.097 314.009L92.3269 304.595L239.554 278.498L928.521 250L928.553 249.998L928.585 249.993L1230.46 198.1L1228.53 227.092L854.672 308.764L854.652 308.768L776.683 322.5H557.374H557.371L172.535 320L128.097 314.009Z" fill="#9ED6FF" stroke="black"/>
<path d="M1269.59 174H1299L1178.15 222L1088.5 223.5L1269.59 174Z" fill="#447DB1"/>
<path d="M1269.59 174H1299L1178.15 222L1088.5 223.5L1269.59 174Z" fill="#447DB1"/>
<path d="M1269.59 174H1299L1178.15 222L1088.5 223.5L1269.59 174Z" stroke="black"/>
<path d="M1274.5 177H1290L1196.08 223H1112L1274.5 177Z" fill="#E8E8E8"/>
<path d="M1274.5 177H1290L1196.08 223H1112L1274.5 177Z" fill="#E8E8E8"/>
<path d="M1274.5 177H1290L1196.08 223H1112L1274.5 177Z" stroke="black"/>
<path d="M333.012 283.5H829.342C854.769 283.5 880.159 281.562 905.292 277.704L1228.5 228.083V232.597L863.931 312.005L863.912 312.007L788.465 322.5H576.262H212.519L159.054 318.503L150.661 317.304L174.367 309.363C225.506 292.234 279.081 283.5 333.012 283.5Z" fill="#447DB1" stroke="black"/>
<path d="M824.758 306.467L862.001 312.519L827.93 318.505L790.473 322.5H727.5H551.5H213.699C260.758 307.591 309.836 300 359.214 300H744.64C771.476 300 798.269 302.163 824.758 306.467Z" fill="#266EA4" stroke="black"/>
<path d="M43.3265 232.5L66.1369 219H94C96.4853 219 98.5 221.015 98.5 223.5V225.647C98.5 227.472 97.397 229.117 95.708 229.81L80.7768 235.936C79.9179 236.288 78.9711 236.366 78.0661 236.159L64.3113 233.015C62.8128 232.673 61.2805 232.5 59.7434 232.5H43.3265Z" fill="#8ED0FF" stroke="black"/>
<path d="M45 273C47.2091 273 49 271.209 49 269C49 266.791 47.2091 265 45 265C42.7909 265 41 266.791 41 269C41 271.209 42.7909 273 45 273Z" fill="#383838"/>
<path d="M11 261.5C11 264.377 10.6296 266.763 9.64174 268.418C8.70879 269.981 7.19095 270.948 4.70366 270.998C4.61568 270.907 4.4889 270.77 4.33601 270.588C4.02398 270.216 3.60432 269.659 3.18369 268.926C2.34292 267.46 1.5 265.295 1.5 262.5C1.5 259.702 2.34428 257.408 3.19174 255.81C3.61521 255.011 4.03805 254.389 4.35315 253.969C4.46357 253.822 4.56062 253.699 4.63964 253.603C4.81994 253.684 5.06777 253.802 5.3617 253.956C5.99805 254.289 6.84417 254.791 7.68764 255.466C9.38457 256.823 11 258.82 11 261.5Z" fill="#D9D9D9" stroke="black"/>
<path d="M159 211.5H139C135.962 211.5 133.5 213.962 133.5 217V261C133.5 264.038 135.962 266.5 139 266.5H159C162.038 266.5 164.5 264.038 164.5 261V217C164.5 213.962 162.038 211.5 159 211.5Z" fill="#ECF4FD" stroke="black"/>
<path d="M149 231C151.209 231 153 229.209 153 227C153 224.791 151.209 223 149 223C146.791 223 145 224.791 145 227C145 229.209 146.791 231 149 231Z" fill="#383838"/>
<path d="M992 211.5H972C968.962 211.5 966.5 213.962 966.5 217V261C966.5 264.038 968.962 266.5 972 266.5H992C995.038 266.5 997.5 264.038 997.5 261V217C997.5 213.962 995.038 211.5 992 211.5Z" fill="#ECF4FD" stroke="black"/>
<path d="M982 231C984.209 231 986 229.209 986 227C986 224.791 984.209 223 982 223C979.791 223 978 224.791 978 227C978 229.209 979.791 231 982 231Z" fill="#383838"/>
<path d="M268 319C270.209 319 272 317.209 272 315C272 312.791 270.209 311 268 311C265.791 311 264 312.791 264 315C264 317.209 265.791 319 268 319Z" fill="#383838"/>
<path d="M98.5 304H125.5V312.382L98.5 306.596V304Z" fill="#9ED6FF" stroke="black"/>
<path d="M184 230.5H179C177.619 230.5 176.5 231.619 176.5 233V242C176.5 243.381 177.619 244.5 179 244.5H184C185.381 244.5 186.5 243.381 186.5 242V233C186.5 231.619 185.381 230.5 184 230.5Z" fill="white" stroke="black"/>
<path d="M201 230.5H196C194.619 230.5 193.5 231.619 193.5 233V242C193.5 243.381 194.619 244.5 196 244.5H201C202.381 244.5 203.5 243.381 203.5 242V233C203.5 231.619 202.381 230.5 201 230.5Z" fill="white" stroke="black"/>
<path d="M218 230.5H213C211.619 230.5 210.5 231.619 210.5 233V242C210.5 243.381 211.619 244.5 213 244.5H218C219.381 244.5 220.5 243.381 220.5 242V233C220.5 231.619 219.381 230.5 218 230.5Z" fill="white" stroke="black"/>
<path d="M235 230.5H230C228.619 230.5 227.5 231.619 227.5 233V242C227.5 243.381 228.619 244.5 230 244.5H235C236.381 244.5 237.5 243.381 237.5 242V233C237.5 231.619 236.381 230.5 235 230.5Z" fill="white" stroke="black"/>
<path d="M252 230.5H247C245.619 230.5 244.5 231.619 244.5 233V242C244.5 243.381 245.619 244.5 247 244.5H252C253.381 244.5 254.5 243.381 254.5 242V233C254.5 231.619 253.381 230.5 252 230.5Z" fill="white" stroke="black"/>
<path d="M269 230.5H264C262.619 230.5 261.5 231.619 261.5 233V242C261.5 243.381 262.619 244.5 264 244.5H269C270.381 244.5 271.5 243.381 271.5 242V233C271.5 231.619 270.381 230.5 269 230.5Z" fill="white" stroke="black"/>
<path d="M286 230.5H281C279.619 230.5 278.5 231.619 278.5 233V242C278.5 243.381 279.619 244.5 281 244.5H286C287.381 244.5 288.5 243.381 288.5 242V233C288.5 231.619 287.381 230.5 286 230.5Z" fill="white" stroke="black"/>
<path d="M303 230.5H298C296.619 230.5 295.5 231.619 295.5 233V242C295.5 243.381 296.619 244.5 298 244.5H303C304.381 244.5 305.5 243.381 305.5 242V233C305.5 231.619 304.381 230.5 303 230.5Z" fill="white" stroke="black"/>
<path d="M320 230.5H315C313.619 230.5 312.5 231.619 312.5 233V242C312.5 243.381 313.619 244.5 315 244.5H320C321.381 244.5 322.5 243.381 322.5 242V233C322.5 231.619 321.381 230.5 320 230.5Z" fill="white" stroke="black"/>
<path d="M337 230.5H332C330.619 230.5 329.5 231.619 329.5 233V242C329.5 243.381 330.619 244.5 332 244.5H337C338.381 244.5 339.5 243.381 339.5 242V233C339.5 231.619 338.381 230.5 337 230.5Z" fill="white" stroke="black"/>
<path d="M354 230.5H349C347.619 230.5 346.5 231.619 346.5 233V242C346.5 243.381 347.619 244.5 349 244.5H354C355.381 244.5 356.5 243.381 356.5 242V233C356.5 231.619 355.381 230.5 354 230.5Z" fill="white" stroke="black"/>
<path d="M371 230.5H366C364.619 230.5 363.5 231.619 363.5 233V242C363.5 243.381 364.619 244.5 366 244.5H371C372.381 244.5 373.5 243.381 373.5 242V233C373.5 231.619 372.381 230.5 371 230.5Z" fill="white" stroke="black"/>
<path d="M651.33 275.896L638.436 295.952C633.008 304.396 623.659 309.5 613.621 309.5H528.678L497.908 284.5H595.089C614.166 284.5 633.13 281.598 651.33 275.896Z" fill="#C1C1C1" stroke="black"/>
<path d="M488.154 284.5H513.16C517.001 284.5 520.83 284.947 524.568 285.833L537.168 288.817L534.273 292.952L495.097 286.009L488.154 284.5Z" fill="#266EA4" stroke="black"/>
<path d="M489.895 346.131L512.42 346.803C516.754 346.933 521.086 346.492 525.305 345.493L537.168 342.683L534.271 338.544L498.09 344.492L489.895 346.131Z" fill="#266EA4" stroke="black"/>
<path d="M388 230.5H383C381.619 230.5 380.5 231.619 380.5 233V242C380.5 243.381 381.619 244.5 383 244.5H388C389.381 244.5 390.5 243.381 390.5 242V233C390.5 231.619 389.381 230.5 388 230.5Z" fill="white" stroke="black"/>
<path d="M405 230.5H400C398.619 230.5 397.5 231.619 397.5 233V242C397.5 243.381 398.619 244.5 400 244.5H405C406.381 244.5 407.5 243.381 407.5 242V233C407.5 231.619 406.381 230.5 405 230.5Z" fill="white" stroke="black"/>
<path d="M422 230.5H417C415.619 230.5 414.5 231.619 414.5 233V242C414.5 243.381 415.619 244.5 417 244.5H422C423.381 244.5 424.5 243.381 424.5 242V233C424.5 231.619 423.381 230.5 422 230.5Z" fill="white" stroke="black"/>
<path d="M473 230.5H468C466.619 230.5 465.5 231.619 465.5 233V242C465.5 243.381 466.619 244.5 468 244.5H473C474.381 244.5 475.5 243.381 475.5 242V233C475.5 231.619 474.381 230.5 473 230.5Z" fill="white" stroke="black"/>
<path d="M524 230.5H519C517.619 230.5 516.5 231.619 516.5 233V242C516.5 243.381 517.619 244.5 519 244.5H524C525.381 244.5 526.5 243.381 526.5 242V233C526.5 231.619 525.381 230.5 524 230.5Z" fill="white" stroke="black"/>
<path d="M541 230.5H536C534.619 230.5 533.5 231.619 533.5 233V242C533.5 243.381 534.619 244.5 536 244.5H541C542.381 244.5 543.5 243.381 543.5 242V233C543.5 231.619 542.381 230.5 541 230.5Z" fill="white" stroke="black"/>
<path d="M558 230.5H553C551.619 230.5 550.5 231.619 550.5 233V242C550.5 243.381 551.619 244.5 553 244.5H558C559.381 244.5 560.5 243.381 560.5 242V233C560.5 231.619 559.381 230.5 558 230.5Z" fill="white" stroke="black"/>
<path d="M578 230.5H567C565.619 230.5 564.5 231.619 564.5 233V258C564.5 259.381 565.619 260.5 567 260.5H578C579.381 260.5 580.5 259.381 580.5 258V233C580.5 231.619 579.381 230.5 578 230.5Z" fill="#ECF4FD" stroke="black"/>
<path d="M575 232.5H570C568.619 232.5 567.5 233.619 567.5 235V244C567.5 245.381 568.619 246.5 570 246.5H575C576.381 246.5 577.5 245.381 577.5 244V235C577.5 233.619 576.381 232.5 575 232.5Z" fill="white" stroke="black"/>
<path d="M621 230.5H626C627.381 230.5 628.5 231.619 628.5 233V242C628.5 243.381 627.381 244.5 626 244.5H621C619.619 244.5 618.5 243.381 618.5 242V233C618.5 231.619 619.619 230.5 621 230.5Z" fill="white" stroke="black"/>
<path d="M609 230.5H604C602.619 230.5 601.5 231.619 601.5 233V242C601.5 243.381 602.619 244.5 604 244.5H609C610.381 244.5 611.5 243.381 611.5 242V233C611.5 231.619 610.381 230.5 609 230.5Z" fill="white" stroke="black"/>
<path d="M609 230.5H604C602.619 230.5 601.5 231.619 601.5 233V242C601.5 243.381 602.619 244.5 604 244.5H609C610.381 244.5 611.5 243.381 611.5 242V233C611.5 231.619 610.381 230.5 609 230.5Z" fill="white" stroke="black"/>
<path d="M612 230.5H601C599.619 230.5 598.5 231.619 598.5 233V258C598.5 259.381 599.619 260.5 601 260.5H612C613.381 260.5 614.5 259.381 614.5 258V233C614.5 231.619 613.381 230.5 612 230.5Z" fill="#ECF4FD" stroke="black"/>
<path d="M643 230.5H638C636.619 230.5 635.5 231.619 635.5 233V242C635.5 243.381 636.619 244.5 638 244.5H643C644.381 244.5 645.5 243.381 645.5 242V233C645.5 231.619 644.381 230.5 643 230.5Z" fill="white" stroke="black"/>
<path d="M660 230.5H655C653.619 230.5 652.5 231.619 652.5 233V242C652.5 243.381 653.619 244.5 655 244.5H660C661.381 244.5 662.5 243.381 662.5 242V233C662.5 231.619 661.381 230.5 660 230.5Z" fill="white" stroke="black"/>
<path d="M677 230.5H672C670.619 230.5 669.5 231.619 669.5 233V242C669.5 243.381 670.619 244.5 672 244.5H677C678.381 244.5 679.5 243.381 679.5 242V233C679.5 231.619 678.381 230.5 677 230.5Z" fill="white" stroke="black"/>
<path d="M694 230.5H689C687.619 230.5 686.5 231.619 686.5 233V242C686.5 243.381 687.619 244.5 689 244.5H694C695.381 244.5 696.5 243.381 696.5 242V233C696.5 231.619 695.381 230.5 694 230.5Z" fill="white" stroke="black"/>
<path d="M711 230.5H706C704.619 230.5 703.5 231.619 703.5 233V242C703.5 243.381 704.619 244.5 706 244.5H711C712.381 244.5 713.5 243.381 713.5 242V233C713.5 231.619 712.381 230.5 711 230.5Z" fill="white" stroke="black"/>
<path d="M728 230.5H723C721.619 230.5 720.5 231.619 720.5 233V242C720.5 243.381 721.619 244.5 723 244.5H728C729.381 244.5 730.5 243.381 730.5 242V233C730.5 231.619 729.381 230.5 728 230.5Z" fill="white" stroke="black"/>
<path d="M745 230.5H740C738.619 230.5 737.5 231.619 737.5 233V242C737.5 243.381 738.619 244.5 740 244.5H745C746.381 244.5 747.5 243.381 747.5 242V233C747.5 231.619 746.381 230.5 745 230.5Z" fill="white" stroke="black"/>
<path d="M762 230.5H757C755.619 230.5 754.5 231.619 754.5 233V242C754.5 243.381 755.619 244.5 757 244.5H762C763.381 244.5 764.5 243.381 764.5 242V233C764.5 231.619 763.381 230.5 762 230.5Z" fill="white" stroke="black"/>
<path d="M779 230.5H774C772.619 230.5 771.5 231.619 771.5 233V242C771.5 243.381 772.619 244.5 774 244.5H779C780.381 244.5 781.5 243.381 781.5 242V233C781.5 231.619 780.381 230.5 779 230.5Z" fill="white" stroke="black"/>
<path d="M796 230.5H791C789.619 230.5 788.5 231.619 788.5 233V242C788.5 243.381 789.619 244.5 791 244.5H796C797.381 244.5 798.5 243.381 798.5 242V233C798.5 231.619 797.381 230.5 796 230.5Z" fill="white" stroke="black"/>
<path d="M813 230.5H808C806.619 230.5 805.5 231.619 805.5 233V242C805.5 243.381 806.619 244.5 808 244.5H813C814.381 244.5 815.5 243.381 815.5 242V233C815.5 231.619 814.381 230.5 813 230.5Z" fill="white" stroke="black"/>
<path d="M830 230.5H825C823.619 230.5 822.5 231.619 822.5 233V242C822.5 243.381 823.619 244.5 825 244.5H830C831.381 244.5 832.5 243.381 832.5 242V233C832.5 231.619 831.381 230.5 830 230.5Z" fill="white" stroke="black"/>
<path d="M847 230.5H842C840.619 230.5 839.5 231.619 839.5 233V242C839.5 243.381 840.619 244.5 842 244.5H847C848.381 244.5 849.5 243.381 849.5 242V233C849.5 231.619 848.381 230.5 847 230.5Z" fill="white" stroke="black"/>
<path d="M864 230.5H859C857.619 230.5 856.5 231.619 856.5 233V242C856.5 243.381 857.619 244.5 859 244.5H864C865.381 244.5 866.5 243.381 866.5 242V233C866.5 231.619 865.381 230.5 864 230.5Z" fill="white" stroke="black"/>
<path d="M881 230.5H876C874.619 230.5 873.5 231.619 873.5 233V242C873.5 243.381 874.619 244.5 876 244.5H881C882.381 244.5 883.5 243.381 883.5 242V233C883.5 231.619 882.381 230.5 881 230.5Z" fill="white" stroke="black"/>
<path d="M898 230.5H893C891.619 230.5 890.5 231.619 890.5 233V242C890.5 243.381 891.619 244.5 893 244.5H898C899.381 244.5 900.5 243.381 900.5 242V233C900.5 231.619 899.381 230.5 898 230.5Z" fill="white" stroke="black"/>
<path d="M915 230.5H910C908.619 230.5 907.5 231.619 907.5 233V242C907.5 243.381 908.619 244.5 910 244.5H915C916.381 244.5 917.5 243.381 917.5 242V233C917.5 231.619 916.381 230.5 915 230.5Z" fill="white" stroke="black"/>
<path d="M932 230.5H927C925.619 230.5 924.5 231.619 924.5 233V242C924.5 243.381 925.619 244.5 927 244.5H932C933.381 244.5 934.5 243.381 934.5 242V233C934.5 231.619 933.381 230.5 932 230.5Z" fill="white" stroke="black"/>
<path d="M208 306H197V310H208V306Z" fill="#020202"/>
<path d="M208 306H197V310H208V306Z" fill="#020202"/>
<path d="M208 306H197V310H208V306Z" fill="#020202"/>
<path d="M208 306H197V310H208V306Z" fill="#020202"/>
<path d="M208 306H197V310H208V306Z" fill="#020202"/>
<path d="M208 306H197V310H208V306Z" fill="#020202"/>
<path d="M245 306H223V310H245V306Z" fill="#020202"/>
<path d="M245 306H223V310H245V306Z" fill="#020202"/>
<path d="M245 306H223V310H245V306Z" fill="#020202"/>
<path d="M245 306H223V310H245V306Z" fill="#020202"/>
<path d="M245 306H223V310H245V306Z" fill="#020202"/>
<path d="M245 306H223V310H245V306Z" fill="#020202"/>
<path d="M760 302H738V306H760V302Z" fill="#020202"/>
<path d="M760 302H738V306H760V302Z" fill="#020202"/>
<path d="M760 302H738V306H760V302Z" fill="#020202"/>
<path d="M760 302H738V306H760V302Z" fill="#020202"/>
<path d="M760 302H738V306H760V302Z" fill="#020202"/>
<path d="M760 302H738V306H760V302Z" fill="#020202"/>
<path d="M779 302H767V306H779V302Z" fill="#020202"/>
<path d="M779 302H767V306H779V302Z" fill="#020202"/>
<path d="M779 302H767V306H779V302Z" fill="#020202"/>
<path d="M779 302H767V306H779V302Z" fill="#020202"/>
<path d="M779 302H767V306H779V302Z" fill="#020202"/>
<path d="M779 302H767V306H779V302Z" fill="#020202"/>
<path d="M793 302H785V306H793V302Z" fill="#020202"/>
<path d="M793 302H785V306H793V302Z" fill="#020202"/>
<path d="M793 302H785V306H793V302Z" fill="#020202"/>
<path d="M793 302H785V306H793V302Z" fill="#020202"/>
<path d="M793 302H785V306H793V302Z" fill="#020202"/>
<path d="M793 302H785V306H793V302Z" fill="#020202"/>
<path d="M408.5 339.128V288.872L412.5 287.672V340.328L408.5 339.128Z" fill="#266EA4" stroke="black"/>
<path d="M412.5 341.088V287.419C430.778 280.936 450.381 279.085 469.553 282.034L534.5 292.025V339.478L470.165 348.351C450.637 351.044 430.747 348.538 412.5 341.088Z" fill="#447DB1" stroke="black"/>
<path d="M538.5 328.191L534.5 330.191V299.809L538.5 301.809V328.191Z" fill="white" stroke="black"/>
<path d="M541.5 323.61L538.5 324.36V305.64L541.5 306.39V323.61Z" fill="#EFEFEF" stroke="black"/>
<path d="M541.5 308.5H546.5V321.5H541.5V308.5Z" fill="#DADADA" stroke="black"/>
<path d="M551.5 314.64L546.5 316.306V312.694L551.5 314.36V314.64Z" fill="#9A9A9A" stroke="black"/>
<path d="M541.289 188L556.215 162H568.346L564.495 188H541.289Z" fill="#266EA4" stroke="black"/>
<path d="M519 293H509V298H519V293Z" fill="#303030"/>
<path d="M519 333H509V338H519V333Z" fill="#303030"/>
<path d="M545.926 284H511.502L791.14 202.48L791.332 202.424L791.432 202.251L819.788 153.5H827.638L796.165 208.579L545.926 284Z" fill="#266EA4" stroke="black"/>
<path d="M627.423 283.5H541.467L796.141 208.48L796.346 208.419L796.444 208.23L824.804 153.5H841.797L817.61 223.099L627.423 283.5Z" fill="#D9D9D9" stroke="black"/>
<path d="M670.337 264.075C669.563 263.819 668.837 263.456 668.179 263.001C668.844 263.402 669.567 263.761 670.337 264.075ZM728.5 264.5H678C674.215 264.5 670.812 263.513 668.371 261.943C666.106 260.487 664.717 258.568 664.523 256.5H708.594L728.5 260.902V264.5Z" fill="#D9D9D9" stroke="black"/>
<path d="M754.5 258.5H704C700.226 258.5 696.831 257.407 694.391 255.664C692.111 254.035 690.694 251.865 690.519 249.5H734.588L754.5 254.392V258.5Z" fill="#D9D9D9" stroke="black"/>
<path d="M609 232.5H604C602.619 232.5 601.5 233.619 601.5 235V244C601.5 245.381 602.619 246.5 604 246.5H609C610.381 246.5 611.5 245.381 611.5 244V235C611.5 233.619 610.381 232.5 609 232.5Z" fill="white" stroke="black"/>
<path d="M864.022 188L870.245 180H876.377L874.599 188H864.022Z" fill="#266EA4" stroke="black"/>
</g>
<defs>
<clipPath id="clip0_5_724">
<rect width="1299" height="350" fill="white"/>
</clipPath>
</defs>
</svg>
