<svg width="247" height="231" viewBox="0 0 247 231" fill="none" xmlns="http://www.w3.org/2000/svg">
<g clip-path="url(#clip0_52_103)">
<g filter="url(#filter0_d_52_103)">
<path d="M220.122 159.051C220.122 227.79 -10.0878 238.612 8.01422 174.018C26.1162 109.423 61.9266 110.604 40.2829 51.9175C18.6393 -6.76925 155.585 -18.9793 207.923 32.2239C272.117 95.0257 220.122 90.3114 220.122 159.051Z" fill="#68A8CD"/>
</g>
<mask id="mask0_52_103" style="mask-type:luminance" maskUnits="userSpaceOnUse" x="59" y="44" width="148" height="112">
<path d="M207 44H59V156H207V44Z" fill="white"/>
</mask>
<g mask="url(#mask0_52_103)">
<path d="M127.251 67.8933H90.7409C90.5617 67.8931 90.3898 67.8216 90.2631 67.6946C90.1363 67.5675 90.065 67.3952 90.0648 67.2155V58.1381C90.065 57.9584 90.1363 57.7862 90.2631 57.6592C90.3898 57.5321 90.5617 57.4607 90.7409 57.4604H127.251C127.43 57.4607 127.602 57.5321 127.729 57.6592C127.855 57.7862 127.927 57.9584 127.927 58.1381V67.2155C127.927 67.3952 127.855 67.5675 127.729 67.6946C127.602 67.8216 127.43 67.8931 127.251 67.8933ZM90.7409 57.7315C90.6334 57.7316 90.5303 57.7745 90.4542 57.8507C90.3782 57.927 90.3354 58.0303 90.3353 58.1381V67.2155C90.3354 67.3233 90.3782 67.4267 90.4542 67.5029C90.5303 67.5791 90.6334 67.6221 90.7409 67.6222H127.251C127.358 67.6221 127.461 67.5791 127.537 67.5029C127.613 67.4267 127.656 67.3233 127.656 67.2155V58.1381C127.656 58.0303 127.613 57.927 127.537 57.8507C127.461 57.7745 127.358 57.7316 127.251 57.7315H90.7409Z" fill="#3F3D56"/>
<path d="M96.4138 65.089C97.9349 65.089 99.1679 63.8531 99.1679 62.3286C99.1679 60.804 97.9349 59.5681 96.4138 59.5681C94.8928 59.5681 93.6597 60.804 93.6597 62.3286C93.6597 63.8531 94.8928 65.089 96.4138 65.089Z" fill="white"/>
<path d="M102.774 60.4883C102.653 60.4883 102.536 60.5368 102.45 60.623C102.364 60.7093 102.315 60.8263 102.315 60.9484C102.315 61.0704 102.364 61.1874 102.45 61.2737C102.536 61.36 102.653 61.4084 102.774 61.4084H124.414C124.536 61.4084 124.652 61.36 124.738 61.2737C124.824 61.1874 124.873 61.0704 124.873 60.9484C124.873 60.8263 124.824 60.7093 124.738 60.623C124.652 60.5368 124.536 60.4883 124.414 60.4883H102.774Z" fill="#E6E6E6"/>
<path d="M102.774 63.2487C102.653 63.2487 102.536 63.2971 102.45 63.3834C102.364 63.4697 102.315 63.5867 102.315 63.7087C102.315 63.8308 102.364 63.9478 102.45 64.0341C102.536 64.1203 102.653 64.1688 102.774 64.1688H112.086C112.146 64.1689 112.206 64.1571 112.262 64.134C112.318 64.111 112.368 64.0771 112.411 64.0343C112.454 63.9916 112.488 63.9409 112.511 63.885C112.534 63.8291 112.546 63.7692 112.546 63.7087C112.546 63.6482 112.534 63.5883 112.511 63.5325C112.488 63.4766 112.454 63.4258 112.411 63.3831C112.368 63.3404 112.318 63.3065 112.262 63.2834C112.206 63.2604 112.146 63.2485 112.086 63.2487H102.774Z" fill="#E6E6E6"/>
<path d="M111.4 100.25H95.1738C94.9945 100.25 94.8227 100.178 94.6959 100.051C94.5692 99.9242 94.4979 99.7519 94.4977 99.5723V82.634C94.4979 82.4543 94.5692 82.2821 94.6959 82.155C94.8227 82.028 94.9945 81.9565 95.1738 81.9563H111.4C111.58 81.9565 111.751 82.028 111.878 82.155C112.005 82.2821 112.076 82.4543 112.076 82.634V99.5723C112.076 99.7519 112.005 99.9242 111.878 100.051C111.751 100.178 111.58 100.25 111.4 100.25ZM95.1738 82.2274C95.0662 82.2275 94.9631 82.2704 94.8871 82.3466C94.811 82.4228 94.7682 82.5262 94.7681 82.634V99.5723C94.7682 99.6801 94.811 99.7834 94.8871 99.8596C94.9631 99.9359 95.0662 99.9787 95.1738 99.9789H111.4C111.508 99.9787 111.611 99.9359 111.687 99.8596C111.763 99.7834 111.806 99.6801 111.806 99.5723V82.634C111.806 82.5262 111.763 82.4228 111.687 82.3466C111.611 82.2704 111.508 82.2275 111.4 82.2274H95.1738Z" fill="#3F3D56"/>
<path d="M98.6314 85.4493C98.5097 85.4493 98.3929 85.4978 98.3068 85.5841C98.2208 85.6704 98.1724 85.7874 98.1724 85.9094C98.1724 86.0314 98.2208 86.1485 98.3068 86.2347C98.3929 86.321 98.5097 86.3695 98.6314 86.3695H107.943C108.065 86.3695 108.181 86.321 108.267 86.2347C108.353 86.1485 108.402 86.0314 108.402 85.9094C108.402 85.7874 108.353 85.6704 108.267 85.5841C108.181 85.4978 108.065 85.4493 107.943 85.4493H98.6314Z" fill="#E6E6E6"/>
<path d="M98.6313 88.1599C98.571 88.1598 98.5112 88.1716 98.4554 88.1947C98.3996 88.2178 98.3489 88.2516 98.3062 88.2944C98.2635 88.3371 98.2296 88.3879 98.2065 88.4437C98.1833 88.4996 98.1714 88.5595 98.1714 88.62C98.1714 88.6805 98.1833 88.7404 98.2065 88.7962C98.2296 88.8521 98.2635 88.9029 98.3062 88.9456C98.3489 88.9883 98.3996 89.0222 98.4554 89.0453C98.5112 89.0684 98.571 89.0802 98.6313 89.0801H107.943C108.065 89.0801 108.181 89.0316 108.267 88.9453C108.353 88.859 108.402 88.742 108.402 88.62C108.402 88.498 108.353 88.3809 108.267 88.2947C108.181 88.2084 108.065 88.1599 107.943 88.1599H98.6313Z" fill="#E6E6E6"/>
<path d="M103.287 96.757C102.716 96.757 102.157 96.5872 101.682 96.2689C101.207 95.9507 100.836 95.4984 100.618 94.9693C100.399 94.4401 100.342 93.8578 100.453 93.2961C100.565 92.7343 100.84 92.2183 101.244 91.8133C101.648 91.4083 102.163 91.1325 102.723 91.0207C103.284 90.909 103.865 90.9663 104.393 91.1855C104.921 91.4047 105.372 91.7759 105.689 92.2521C106.007 92.7284 106.176 93.2883 106.176 93.861C106.175 94.6288 105.871 95.3649 105.329 95.9078C104.787 96.4507 104.053 96.7561 103.287 96.757Z" fill="white"/>
<path d="M137.982 44H154.209C154.388 44.0002 154.56 44.0717 154.687 44.1987C154.813 44.3258 154.885 44.498 154.885 44.6777V61.616C154.885 61.7956 154.813 61.9679 154.687 62.0949C154.56 62.2219 154.388 62.2934 154.209 62.2936H137.982C137.803 62.2934 137.631 62.2219 137.504 62.0949C137.378 61.9679 137.306 61.7956 137.306 61.616V44.6777C137.306 44.498 137.378 44.3258 137.504 44.1987C137.631 44.0717 137.803 44.0002 137.982 44ZM154.209 62.0226C154.316 62.0224 154.419 61.9796 154.496 61.9033C154.572 61.8271 154.614 61.7238 154.614 61.616V44.6777C154.614 44.5699 154.572 44.4665 154.496 44.3903C154.419 44.3141 154.316 44.2712 154.209 44.2711H137.982C137.875 44.2712 137.772 44.3141 137.695 44.3903C137.619 44.4665 137.577 44.5699 137.577 44.6777V61.616C137.577 61.7238 137.619 61.8271 137.695 61.9033C137.772 61.9796 137.875 62.0224 137.982 62.0226H154.209Z" fill="#3F3D56"/>
<path d="M150.751 58.8006C150.873 58.8006 150.99 58.7522 151.076 58.6659C151.162 58.5796 151.21 58.4626 151.21 58.3406C151.21 58.2185 151.162 58.1015 151.076 58.0152C150.99 57.929 150.873 57.8805 150.751 57.8805H141.44C141.318 57.8805 141.201 57.929 141.115 58.0152C141.029 58.1015 140.981 58.2185 140.981 58.3406C140.981 58.4626 141.029 58.5796 141.115 58.6659C141.201 58.7522 141.318 58.8006 141.44 58.8006H150.751Z" fill="#E6E6E6"/>
<path d="M150.751 56.09C150.873 56.09 150.99 56.0415 151.076 55.9552C151.162 55.8689 151.21 55.7519 151.21 55.6299C151.21 55.5079 151.162 55.3908 151.076 55.3046C150.99 55.2183 150.873 55.1698 150.751 55.1698H141.44C141.318 55.1698 141.201 55.2183 141.115 55.3046C141.029 55.3908 140.981 55.5079 140.981 55.6299C140.981 55.7519 141.029 55.8689 141.115 55.9552C141.201 56.0415 141.318 56.09 141.44 56.09H150.751Z" fill="#E6E6E6"/>
<path d="M146.095 47.493C146.667 47.493 147.226 47.6629 147.701 47.9811C148.176 48.2993 148.546 48.7516 148.765 49.2808C148.984 49.8099 149.041 50.3922 148.929 50.954C148.818 51.5157 148.543 52.0317 148.139 52.4368C147.734 52.8418 147.22 53.1176 146.659 53.2293C146.099 53.3411 145.518 53.2837 144.99 53.0645C144.462 52.8453 144.011 52.4741 143.693 51.9979C143.376 51.5217 143.206 50.9618 143.206 50.389C143.207 49.6212 143.512 48.8851 144.053 48.3422C144.595 47.7993 145.329 47.4939 146.095 47.493Z" fill="white"/>
<path d="M90.2734 79.0428C93.1448 76.8137 96.4995 75.2937 100.066 74.6057C103.661 73.9191 107.368 74.1101 110.873 75.1623C112.636 75.6883 114.329 76.4236 115.917 77.3527C117.535 78.3007 118.997 79.4678 120.404 80.7035C121.829 81.9552 123.207 83.2627 124.694 84.4412C128.941 87.8438 134.214 89.7028 139.651 89.7147C140.1 89.7155 140.549 89.7031 140.997 89.6775C141.241 89.6641 141.242 89.2832 140.997 89.2967C135.455 89.6026 129.982 87.945 125.536 84.614C123.995 83.4584 122.587 82.1371 121.15 80.8568C119.756 79.6154 118.326 78.4079 116.745 77.4106C112.878 74.969 108.379 73.7226 103.811 73.827C99.2416 73.9314 94.8045 75.3819 91.0527 77.9976C90.696 78.2462 90.3475 78.506 90.0047 78.7735C89.812 78.9238 90.0826 79.1916 90.2734 79.0428Z" fill="#3F3D56"/>
<path d="M90.0716 80.8836C91.1622 80.8836 92.0462 79.9975 92.0462 78.9044C92.0462 77.8114 91.1622 76.9253 90.0716 76.9253C88.9811 76.9253 88.097 77.8114 88.097 78.9044C88.097 79.9975 88.9811 80.8836 90.0716 80.8836Z" fill="#3F3D56"/>
<path d="M163.53 107.161C164.62 107.161 165.504 106.275 165.504 105.182C165.504 104.089 164.62 103.203 163.53 103.203C162.439 103.203 161.555 104.089 161.555 105.182C161.555 106.275 162.439 107.161 163.53 107.161Z" fill="#3F3D56"/>
<path d="M173.874 93.9077H141.655C141.476 93.9075 141.304 93.8361 141.177 93.709C141.051 93.582 140.979 93.4097 140.979 93.2301V76.4273C140.979 76.2476 141.051 76.0754 141.177 75.9484C141.304 75.8213 141.476 75.7498 141.655 75.7496H173.874C174.053 75.7498 174.225 75.8213 174.352 75.9484C174.479 76.0754 174.55 76.2476 174.55 76.4273V93.2301C174.55 93.4097 174.479 93.582 174.352 93.709C174.225 93.8361 174.053 93.9075 173.874 93.9077ZM141.655 76.0207C141.548 76.0208 141.444 76.0637 141.368 76.1399C141.292 76.2162 141.25 76.3195 141.249 76.4273V93.2301C141.25 93.3379 141.292 93.4412 141.368 93.5174C141.444 93.5937 141.548 93.6365 141.655 93.6367H173.874C173.982 93.6365 174.085 93.5937 174.161 93.5174C174.237 93.4412 174.28 93.3379 174.28 93.2301V76.4273C174.28 76.3195 174.237 76.2162 174.161 76.1399C174.085 76.0637 173.982 76.0208 173.874 76.0207H141.655Z" fill="#3F3D56"/>
<path d="M147.058 84.4624C148.579 84.4624 149.812 83.2265 149.812 81.702C149.812 80.1774 148.579 78.9415 147.058 78.9415C145.537 78.9415 144.303 80.1774 144.303 81.702C144.303 83.2265 145.537 84.4624 147.058 84.4624Z" fill="white"/>
<path d="M153.418 79.8617C153.358 79.8616 153.298 79.8734 153.242 79.8965C153.187 79.9195 153.136 79.9534 153.093 79.9962C153.05 80.0389 153.017 80.0896 152.993 80.1455C152.97 80.2014 152.958 80.2613 152.958 80.3218C152.958 80.3823 152.97 80.4422 152.993 80.498C153.017 80.5539 153.05 80.6047 153.093 80.6474C153.136 80.6901 153.187 80.724 153.242 80.7471C153.298 80.7701 153.358 80.782 153.418 80.7818H170.767C170.889 80.7818 171.005 80.7334 171.092 80.6471C171.178 80.5608 171.226 80.4438 171.226 80.3218C171.226 80.1997 171.178 80.0827 171.092 79.9964C171.005 79.9102 170.889 79.8617 170.767 79.8617H153.418Z" fill="#E6E6E6"/>
<path d="M153.418 82.6222C153.358 82.6221 153.298 82.6339 153.242 82.657C153.187 82.68 153.136 82.7139 153.093 82.7567C153.05 82.7994 153.017 82.8501 152.993 82.906C152.97 82.9619 152.958 83.0218 152.958 83.0823C152.958 83.1428 152.97 83.2026 152.993 83.2585C153.017 83.3144 153.05 83.3652 153.093 83.4079C153.136 83.4506 153.187 83.4845 153.242 83.5076C153.298 83.5306 153.358 83.5425 153.418 83.5423H162.73C162.851 83.5423 162.968 83.4939 163.054 83.4076C163.14 83.3213 163.189 83.2043 163.189 83.0823C163.189 82.9602 163.14 82.8432 163.054 82.7569C162.968 82.6707 162.851 82.6222 162.73 82.6222H153.418Z" fill="#E6E6E6"/>
<path d="M144.945 87.0353C144.596 87.0353 144.312 87.2417 144.312 87.4954C144.312 87.749 144.596 87.9554 144.945 87.9554H170.51C170.859 87.9554 171.143 87.749 171.143 87.4954C171.143 87.2417 170.859 87.0353 170.51 87.0353H144.945Z" fill="#E6E6E6"/>
<path d="M144.945 89.7958C144.596 89.7958 144.312 90.0022 144.312 90.2558C144.312 90.5095 144.596 90.7159 144.945 90.7159H170.51C170.859 90.7159 171.143 90.5095 171.143 90.2558C171.143 90.0022 170.859 89.7958 170.51 89.7958H144.945Z" fill="#E6E6E6"/>
<path d="M139.065 107.024C140.883 106.234 142.912 106.923 144.626 107.651C145.508 108.027 146.381 108.427 147.294 108.723C148.062 108.972 148.849 109.159 149.647 109.282C151.248 109.528 152.876 109.538 154.48 109.312C156.092 109.086 157.663 108.629 159.144 107.952C160.617 107.283 161.978 106.391 163.18 105.307C163.333 105.169 163.483 105.027 163.63 104.882C163.805 104.71 163.537 104.441 163.362 104.613C162.204 105.744 160.875 106.684 159.424 107.399C157.979 108.111 156.437 108.608 154.849 108.872C153.255 109.142 151.63 109.17 150.028 108.956C149.228 108.847 148.439 108.675 147.667 108.441C146.78 108.152 145.911 107.814 145.062 107.427C143.332 106.683 141.411 105.954 139.511 106.467C139.293 106.528 139.08 106.604 138.873 106.695C138.65 106.793 138.843 107.121 139.065 107.024Z" fill="#3F3D56"/>
<path d="M138.363 111.695H123.141L126.723 105.476C126.787 105.365 126.88 105.272 126.991 105.208C127.102 105.143 127.228 105.11 127.357 105.11C127.485 105.11 127.611 105.143 127.723 105.208C127.834 105.272 127.926 105.365 127.99 105.476L129.521 108.133L132.123 103.616C132.203 103.476 132.319 103.36 132.458 103.28C132.597 103.199 132.755 103.157 132.916 103.157C133.077 103.157 133.234 103.199 133.374 103.28C133.513 103.36 133.629 103.476 133.709 103.616L138.363 111.695Z" fill="white"/>
<path d="M138.377 111.694H122.151C121.971 111.693 121.8 111.622 121.673 111.495C121.546 111.368 121.475 111.196 121.475 111.016V101.939C121.475 101.759 121.546 101.587 121.673 101.46C121.8 101.333 121.971 101.261 122.151 101.261H138.377C138.557 101.261 138.728 101.333 138.855 101.46C138.982 101.587 139.053 101.759 139.053 101.939V111.016C139.053 111.196 138.982 111.368 138.855 111.495C138.728 111.622 138.557 111.693 138.377 111.694ZM122.151 101.532C122.043 101.532 121.94 101.575 121.864 101.651C121.788 101.727 121.745 101.831 121.745 101.939V111.016C121.745 111.124 121.788 111.227 121.864 111.303C121.94 111.38 122.043 111.422 122.151 111.423H138.377C138.485 111.422 138.588 111.38 138.664 111.303C138.74 111.227 138.783 111.124 138.783 111.016V101.939C138.783 101.831 138.74 101.727 138.664 101.651C138.588 101.575 138.485 101.532 138.377 101.532H122.151Z" fill="#3F3D56"/>
<path d="M170.204 103.705L167.311 105.177C166.279 105.702 165.283 105.612 164.901 104.517C164.81 104.256 164.777 103.979 164.803 103.704C164.829 103.429 164.914 103.163 165.052 102.924C165.19 102.685 165.378 102.479 165.603 102.319C165.828 102.16 166.085 102.051 166.356 102.001L169.105 101.486L180.878 97.5712L188.009 92.5026L190.624 96.6773L182.383 101.134L170.204 103.705Z" fill="#FFB8B8"/>
<path d="M183.705 152.569L181.492 152.199L181.738 148.009H184.074L183.705 152.569Z" fill="#FFB8B8"/>
<path d="M205.183 148.476L203.041 149.146L201.377 145.295L203.462 144.24L205.183 148.476Z" fill="#FFB8B8"/>
<path d="M203.99 144.805L201.286 145.914L188.377 128.91L184.32 148.872L181.615 148.379C179.88 131.169 178.466 113.615 180.202 105.312L190.221 104.881L194.77 119.421L196.983 129.279L203.99 144.805Z" fill="#2F2E41"/>
<path d="M183.584 155.957C183.179 156.044 182.757 155.999 182.38 155.829L181.065 155.236C179.963 155.179 179.212 155.399 178.599 154.596C178.426 154.367 178.317 154.095 178.284 153.809C178.251 153.524 178.295 153.234 178.411 152.971C178.526 152.707 178.709 152.479 178.942 152.309C179.174 152.14 179.447 152.035 179.734 152.006L181.539 150.866L181.634 151.721C182.459 152.19 183.439 151.987 184.477 151.531L185.044 153.519C185.117 153.775 185.137 154.044 185.102 154.308C185.067 154.573 184.978 154.827 184.841 155.056C184.705 155.284 184.522 155.482 184.306 155.637C184.089 155.792 183.844 155.901 183.584 155.957Z" fill="#2F2E41"/>
<path d="M206.059 151.879C205.705 152.093 205.291 152.187 204.879 152.149L203.444 152.016C202.383 152.321 201.744 152.774 200.904 152.214C200.666 152.054 200.475 151.832 200.351 151.573C200.227 151.313 200.175 151.025 200.2 150.738C200.223 150.451 200.322 150.175 200.487 149.939C200.652 149.703 200.877 149.516 201.138 149.396L202.476 147.729L202.843 148.507C203.775 148.682 204.636 148.171 205.471 147.402L206.651 149.098C206.803 149.316 206.909 149.564 206.961 149.825C207.014 150.087 207.013 150.356 206.957 150.617C206.902 150.878 206.793 151.124 206.639 151.341C206.484 151.558 206.287 151.741 206.059 151.879Z" fill="#2F2E41"/>
<path d="M186.533 87.3832C188.977 87.3832 190.959 85.3971 190.959 82.9472C190.959 80.4972 188.977 78.5111 186.533 78.5111C184.089 78.5111 182.107 80.4972 182.107 82.9472C182.107 85.3971 184.089 87.3832 186.533 87.3832Z" fill="#FFB8B8"/>
<path d="M191.942 92.3122L186.164 91.08L185.427 86.2743L189.483 85.4117L191.942 92.3122Z" fill="#FFB8B8"/>
<path d="M190.344 105.497H180.017L182.345 99.6396C182.176 97.624 183.028 96.1416 184.248 94.851L185.795 90.9568C188.296 89.3073 190.181 89.4305 192.188 91.5729C194.568 94.9504 192.921 100.028 190.344 105.497Z" fill="white"/>
<path d="M185.672 117.943L185.379 121.181C185.274 122.336 184.668 123.134 183.54 122.876C183.271 122.814 183.019 122.695 182.8 122.527C182.582 122.359 182.402 122.145 182.274 121.901C182.145 121.657 182.071 121.387 182.056 121.112C182.041 120.836 182.086 120.56 182.187 120.303L183.214 117.696L186.164 105.62L185.672 96.8715H190.59L189.975 106.236L185.672 117.943Z" fill="#FFB8B8"/>
<path d="M190.959 97.118H185.304L185.7 93.4203C185.726 92.7808 185.99 92.1741 186.439 91.7195C186.889 91.2648 187.491 90.995 188.129 90.963C188.467 90.9461 188.805 90.9965 189.124 91.1114C189.442 91.2262 189.735 91.4032 189.984 91.6321C190.234 91.861 190.436 92.1373 190.578 92.4449C190.721 92.7526 190.801 93.0855 190.814 93.4244L190.959 97.118Z" fill="white"/>
<path d="M192.011 78.3859C192.929 78.3859 193.674 77.6394 193.674 76.7185C193.674 75.7977 192.929 75.0511 192.011 75.0511C191.092 75.0511 190.347 75.7977 190.347 76.7185C190.347 77.6394 191.092 78.3859 192.011 78.3859Z" fill="#2F2E41"/>
<path d="M190.296 76.3104C190.324 75.8874 190.511 75.4907 190.82 75.2011C191.129 74.9116 191.536 74.751 191.959 74.752C191.925 74.7476 191.891 74.7423 191.856 74.7401C191.416 74.712 190.982 74.8602 190.651 75.1522C190.32 75.4441 190.118 75.856 190.09 76.2971C190.062 76.7382 190.209 77.1726 190.5 77.5047C190.791 77.8367 191.202 78.0394 191.642 78.068C191.677 78.0702 191.712 78.0693 191.746 78.0694C191.327 78.0161 190.943 77.8046 190.674 77.4777C190.404 77.1509 190.269 76.7335 190.296 76.3104Z" fill="#2F2E41"/>
<path d="M190.287 77.0224C188.803 75.7888 184.548 77.3567 184.273 78.1861C182.267 78.4601 180.748 79.6333 180.748 81.7194C181.941 82.2092 183.297 82.1489 184.764 81.7195C187.102 83.6289 187.262 86.0293 185.84 88.7863L187.589 88.8213L189.757 85.6455L189.861 88.8669L193.87 88.7863V84.1698C193.883 82.6349 193.53 81.119 192.842 79.7479C192.217 78.5314 191.247 77.821 190.287 77.0224Z" fill="#2F2E41"/>
<path d="M186.554 85.1786C186.993 85.1786 187.349 84.6788 187.349 84.0623C187.349 83.4458 186.993 82.946 186.554 82.946C186.114 82.946 185.758 83.4458 185.758 84.0623C185.758 84.6788 186.114 85.1786 186.554 85.1786Z" fill="#FFB8B8"/>
<path d="M86.4592 85.479C86.4592 85.479 86.9381 77.1712 89.4241 79.059C91.9102 80.9467 88.3384 86.2494 88.3384 86.2494L86.4592 85.479Z" fill="#FFB9B9"/>
<path d="M77.2101 110.122C77.2101 110.122 82.7324 116.335 79.6427 116.763C76.5531 117.19 75.3377 110.909 75.3377 110.909L77.2101 110.122Z" fill="#FFB9B9"/>
<path d="M70.0039 80.7083C70.697 80.8911 71.3208 81.2751 71.7969 81.8121C72.273 82.3491 72.5802 83.015 72.6799 83.7264L74.4365 96.258L76.899 106.254C76.899 106.254 78.1303 107.365 77.6378 107.982C77.1453 108.599 78.2534 111.191 78.2534 111.191L75.1752 112.178C75.1752 112.178 74.8059 109.586 74.1902 109.463C73.6492 109.354 67.5927 93.138 66.1328 89.2095C65.9315 88.6678 65.8176 88.3597 65.8176 88.3597C65.8176 88.3597 66.0639 80.0913 70.0039 80.7083Z" fill="#575A89"/>
<path d="M70.5662 146.059L72.4569 149.418C73.921 152.551 72.6199 153.12 69.03 151.567L68.2117 147.601L70.5662 146.059Z" fill="#FFB9B9"/>
<path d="M71.5201 150.523C71.5201 150.523 72.4176 149.058 72.7423 149.303C73.0669 149.548 74.4059 150.611 74.4059 150.611L76.15 152.285C76.15 152.285 82.0424 152.909 78.2982 154.979C74.554 157.048 72.4848 155.332 72.4848 155.332C72.4848 155.332 67.2407 155.606 67.3253 154.139C67.4099 152.673 69.1012 150.353 69.1012 150.353C69.1012 150.353 71.2327 151.785 71.5201 150.523Z" fill="#2F2E41"/>
<path d="M62.1762 108.099L63.9487 129.596C63.9487 129.596 64.0078 142.447 65.8985 144.934C67.7892 147.421 67.8483 148.665 67.8483 148.665L71.7478 146.651C71.7478 146.651 69.739 143.296 70.1526 142.783C70.4075 142.457 70.5889 142.08 70.6843 141.677L69.6208 128.412L71.6297 105.316L62.1762 108.099Z" fill="#2F2E41"/>
<path d="M67.021 146.059L65.3667 150.442L61.6148 148.869L63.5942 145.586L67.021 146.059Z" fill="#FFB9B9"/>
<path d="M64.2611 148.966C64.2611 148.966 65.6683 148.084 65.8442 148.437C66.0201 148.789 66.7236 150.288 66.7236 150.288L67.5151 152.492C67.5151 152.492 72.3522 155.577 68.2187 155.753C64.0852 155.929 63.0299 153.549 63.0299 153.549C63.0299 153.549 58.3688 151.522 59.0723 150.288C59.7759 149.054 62.2384 147.774 62.2384 147.774C62.2384 147.774 63.4696 149.935 64.2611 148.966Z" fill="#2F2E41"/>
<path d="M77.1836 108.158L78.1289 127.938C78.1289 127.938 69.5026 145.823 68.5573 146.296C68.2756 146.442 68.0259 146.643 67.8229 146.887C67.62 147.131 67.4679 147.414 67.3756 147.718L62.1762 146.415L64.5396 142.625L69.739 129.951C69.739 129.951 70.5662 129.596 70.8025 128.412C71.0388 127.227 71.5115 127.227 70.3298 126.99C69.1481 126.754 69.1481 125.569 69.1481 125.569L65.2486 107.566L77.1836 108.158Z" fill="#2F2E41"/>
<path d="M77.5952 73.1482C78.0134 70.5654 76.2635 68.132 73.6867 67.7128C71.1099 67.2937 68.682 69.0477 68.2639 71.6304C67.8457 74.2131 69.5956 76.6466 72.1724 77.0657C74.7492 77.4849 77.1771 75.7309 77.5952 73.1482Z" fill="#FFB9B9"/>
<path d="M68.7345 72.6853C68.7345 72.6853 68.38 78.7258 67.9074 79.318C67.4347 79.9102 72.8704 79.7917 72.8704 79.7917C72.8704 79.7917 72.5159 74.6988 72.8704 74.225C73.2249 73.7513 68.7345 72.6853 68.7345 72.6853Z" fill="#FFB9B9"/>
<path d="M77.5376 109.461C77.5376 109.461 64.1846 108.277 61.7037 109.461C61.7037 109.461 62.617 106.065 62.381 105.711C62.2094 105.451 62.6829 95.7779 62.5342 90.198C62.4499 87.0494 61.7251 83.9745 63.8321 81.6369C64.5493 80.8428 65.3492 80.1763 66.1935 79.8506C66.1935 79.8506 65.9575 77.6005 67.139 77.4823C67.139 77.4823 71.6304 77.0077 73.2838 78.4299C73.8124 78.8815 74.145 80.2577 74.1802 81.4434C73.3619 85.4766 73.6515 89.9523 74.4024 94.5953C74.4484 94.8902 74.4989 95.1866 74.5495 95.483C75.3463 100.088 76.5508 104.835 77.5376 109.461Z" fill="#575A89"/>
<path d="M70.4602 73.7853C70.8599 73.7614 71.2503 73.8968 71.6472 73.9496C73.0675 74.1386 74.5449 73.1056 74.8585 71.7044C74.8837 71.5178 74.9392 71.3366 75.0228 71.168C75.2414 70.8104 75.7392 70.7422 76.1495 70.8244C76.5599 70.9067 76.9489 71.0992 77.3668 71.1211C78.0121 71.1551 78.6316 70.7569 78.9755 70.2086C79.3004 69.6429 79.4386 68.9887 79.3703 68.3396L79.061 68.665C78.9353 68.3985 78.8867 68.1019 78.9209 67.8091C78.757 67.7654 78.5846 67.7645 78.4202 67.8067C78.2559 67.8488 78.1051 67.9325 77.9823 68.0498C77.7095 68.0789 77.9154 67.5427 77.7127 67.3574C77.6142 67.2967 77.4967 67.2747 77.3829 67.2956C76.8027 67.3012 76.3332 66.8563 75.876 66.4982C75.0837 65.8791 74.1572 65.4555 73.1714 65.2617C72.5161 65.1336 71.8194 65.113 71.198 65.3576C70.6963 65.5833 70.2436 65.9052 69.8653 66.3051C68.8924 67.2428 68.0309 68.3444 67.6262 69.635C67.2972 70.692 67.2878 71.8231 67.5994 72.8854C67.7625 73.4371 68.254 75.3266 68.9735 75.3706C69.8777 75.4258 69.3348 73.8526 70.4602 73.7853Z" fill="#2F2E41"/>
<path d="M72.4167 81.2898L74.1101 81.4716C74.1101 81.4716 75.7725 84.7042 75.6518 85.3784C75.531 86.0527 75.2681 85.6433 76.0163 86.7221C76.7645 87.8008 78.8876 90.5892 79.1505 90.9985C79.4134 91.4079 86.5808 85.9267 86.1352 84.2845C86.1352 84.2845 88.3988 85.9122 89.3686 86.1288C89.3686 86.1288 81.9821 95.8385 80.9528 97.0811C79.9234 98.3237 79.095 98.0685 77.6804 97.3317C76.2658 96.595 69.1095 89.2461 69.1095 89.2461L72.4167 81.2898Z" fill="#575A89"/>
<path opacity="0.1" d="M74.5495 95.4831L68.6637 89.5837L70.1532 89.0968L74.4024 94.5953C74.4484 94.8902 74.499 95.1867 74.5495 95.4831Z" fill="black"/>
</g>
</g>
<defs>
<filter id="filter0_d_52_103" x="0" y="0" width="247" height="231" filterUnits="userSpaceOnUse" color-interpolation-filters="sRGB">
<feFlood flood-opacity="0" result="BackgroundImageFix"/>
<feColorMatrix in="SourceAlpha" type="matrix" values="0 0 0 0 0 0 0 0 0 0 0 0 0 0 0 0 0 0 127 0" result="hardAlpha"/>
<feOffset dy="7"/>
<feGaussianBlur stdDeviation="3.5"/>
<feComposite in2="hardAlpha" operator="out"/>
<feColorMatrix type="matrix" values="0 0 0 0 0 0 0 0 0 0 0 0 0 0 0 0 0 0 0.25 0"/>
<feBlend mode="normal" in2="BackgroundImageFix" result="effect1_dropShadow_52_103"/>
<feBlend mode="normal" in="SourceGraphic" in2="effect1_dropShadow_52_103" result="shape"/>
</filter>
<clipPath id="clip0_52_103">
<rect width="247" height="231" fill="white"/>
</clipPath>
</defs>
</svg>
