<svg width="259" height="221" viewBox="0 0 259 221" fill="none" xmlns="http://www.w3.org/2000/svg">
<g clip-path="url(#clip0_52_61)">
<g filter="url(#filter0_d_52_61)">
<path d="M252 77.2776C252 133.271 222.553 172.636 162.088 201.704C101.623 230.772 7 133.271 7 77.2776C7 21.2844 67.8574 55.0311 136.567 14.1781C200.958 -24.107 252 21.2844 252 77.2776Z" fill="#68A8CD"/>
</g>
<mask id="mask0_52_61" style="mask-type:luminance" maskUnits="userSpaceOnUse" x="48" y="37" width="180" height="129">
<path d="M228 37H48V166H228V37Z" fill="white"/>
</mask>
<g mask="url(#mask0_52_61)">
<path d="M188.112 95.4994C187.775 94.632 188.256 94.1982 188.448 93.4272C188.641 92.6561 188.016 90.2465 188.016 90.2465C188.016 90.2465 185.996 81.9093 185.371 80.2708C185.106 79.5774 184.532 79.1005 183.957 78.7801C183.918 78.5674 183.862 78.4303 183.784 78.3913C183.227 78.112 181.84 77.5056 180.915 77.338C180.742 77.0401 180.537 76.7622 180.304 76.5093C180.466 76.1969 180.541 75.8465 180.521 75.4949C180.462 74.5857 179.775 73.7709 179.865 72.8642C179.933 72.1765 180.434 71.6116 180.628 70.9484C180.709 70.6506 180.728 70.3392 180.684 70.0335C180.64 69.7279 180.534 69.4346 180.372 69.1719C180.515 69.3235 180.657 69.4752 180.799 69.6268C180.993 69.3362 181.086 68.99 181.064 68.6413C181.043 68.2926 180.908 67.9605 180.68 67.6959C180.23 67.1973 179.477 67.0103 179.127 66.436C178.768 65.846 178.961 65.0442 178.621 64.4426C177.789 62.9689 175.66 64.0136 174.385 63.4992C173.86 63.2878 173.462 63.0552 172.872 63.0719C172.371 63.1007 171.875 63.1935 171.397 63.348C170.712 63.5468 170.115 63.9756 169.707 64.5625C169.747 64.5166 169.791 64.4742 169.839 64.436C170.148 64.1932 170.69 64.2135 170.853 64.5714C170.892 64.6614 170.908 64.7595 170.901 64.8573C170.874 65.2888 170.498 65.611 170.124 65.827C169.75 66.0429 169.33 66.2235 169.086 66.5801C168.683 67.1686 168.92 67.9583 168.92 68.6718C168.917 69.1252 168.812 69.5721 168.614 69.9796C168.415 70.3871 168.128 70.7448 167.774 71.0264L169.13 70.4704C168.483 71.6069 168.057 72.8569 167.877 74.1532L169.712 72.6343C169.033 73.7181 168.62 74.9481 168.507 76.2231L169.98 74.7109C170.047 74.8291 170.08 74.9633 170.077 75.0991L169.923 75.6927C169.869 75.8106 169.809 75.9255 169.743 76.0373C169.506 76.4451 169.261 76.947 169.483 77.3634L169.484 77.3628C169.25 78.1495 168.899 78.9366 168.116 79.3191C168.984 79.4101 169.89 78.975 170.282 78.2824C170.346 78.407 170.424 78.5243 170.513 78.6323C170.538 78.6639 170.563 78.6953 170.588 78.7267L170.371 78.8713L169.792 79.2588C169.792 79.2588 165.993 80.0298 166.233 81.4756C166.243 81.5351 166.255 81.606 166.268 81.6857L165.175 83.5478L163.589 88.9453C163.589 88.9453 162.771 90.6802 162.915 91.4031C163.06 92.126 162.915 92.4151 162.915 93.7163C162.915 95.0175 162.29 95.5476 162.915 96.6078C163.54 97.668 165.416 100.752 165.416 100.752L165.828 101.062C165.808 101.248 165.815 101.436 165.849 101.62C166.233 103.547 169.84 122.005 169.84 122.005C169.84 122.005 168.012 136.607 171.715 137.523C172.179 137.637 172.635 137.742 173.078 137.834L173.638 141.523L173.302 146.197C173.302 146.197 170.753 151.98 175.417 152.318C180.082 152.655 177.966 147.306 177.966 147.306C178.212 146.849 178.313 146.327 178.254 145.812C178.207 145.383 177.806 143.15 177.414 141.003C179.184 140.79 178.853 138.908 178.617 138.08C178.719 138.02 178.795 137.925 178.831 137.812C178.885 137.62 178.761 136.863 178.535 135.804C178.352 134.75 178.039 133.045 177.825 131.889L178.976 132.077L183.832 103.547C183.832 103.547 183.864 103.093 183.85 102.429C184.514 102.085 185.198 101.782 185.9 101.523C187.487 100.897 188.112 98.5837 188.641 97.6198C189.17 96.656 188.448 96.3669 188.112 95.4994ZM170.868 77.3346C171.026 77.226 171.21 77.1634 171.4 77.1538C171.359 77.3779 170.975 77.4434 170.652 77.5608C170.711 77.474 170.784 77.3975 170.868 77.3346ZM168.445 91.6923C168.835 92.3337 168.129 94.0719 167.494 95.4513C167.129 95.1367 166.749 95.2359 167.195 94.3428C167.499 93.7769 167.679 93.1526 167.724 92.5115C167.724 92.4013 167.78 91.5917 168.254 91.2554C168.304 91.4067 168.368 91.553 168.445 91.6923ZM166.986 97.2285C167.206 97.1386 167.54 97.0004 167.991 96.8468C167.775 97.1309 167.528 97.4694 167.28 97.8389C167.187 97.7677 167.111 97.6753 167.06 97.5692C167.009 97.4631 166.983 97.3463 166.986 97.2285ZM182.582 97.8608C182.29 97.5495 182.053 97.2711 181.859 97.0219C182.222 97.1176 182.591 97.2205 182.967 97.3307C183.154 97.3587 183.345 97.346 183.527 97.2933C183.544 97.6265 183.544 98.1018 183.544 98.1018L183.017 98.4672C182.897 98.2482 182.751 98.0446 182.582 97.8608ZM184.074 96.1895C184.069 96.1944 184.063 96.2 184.057 96.2051C184.031 96.0146 183.988 95.8268 183.928 95.644C183.613 94.6479 183.445 92.8806 183.355 91.3724L184.265 94.4392C184.265 94.4392 184.313 95.9813 184.074 96.1895Z" fill="#D0CDE1"/>
<path d="M165.396 83.5226C165.396 83.5226 160.463 75.0249 160.309 74.0978C160.155 73.1708 157.688 71.4712 157.688 71.4712C156.845 70.6266 155.463 70.3594 154.007 70.3733C154.555 69.9189 152.599 69.6135 152.446 69.3082C152.292 68.9992 151.83 68.9992 151.213 68.5356C150.597 68.0722 149.057 68.4584 149.057 68.4584C148.826 67.9705 148.665 67.452 148.579 66.9186C149.236 66.1396 149.596 65.1522 149.595 64.1323C149.595 64.1212 149.594 64.1103 149.594 64.0992C149.633 64.1604 149.672 64.222 149.711 64.2854C150 62.5517 150.51 61.1106 149.538 59.5291C148.85 58.4082 147.772 57.5822 146.512 57.2101L145.586 57.9521L145.946 57.0867C145.644 57.0404 145.337 57.0227 145.031 57.0337L144.199 58.1066L144.543 57.0704C143.821 57.1604 143.125 57.3995 142.499 57.7725C141.874 58.1455 141.332 58.6444 140.908 59.2377C139.848 60.7691 139.919 62.8979 140.961 64.4413C140.965 64.4305 140.968 64.4199 140.971 64.4091C141.017 65.1311 141.243 65.83 141.629 66.4418C142.014 67.0537 142.546 67.5588 143.177 67.911L143.439 70.0102C143.203 70.2295 142.901 70.3631 142.58 70.3897C142.118 70.3897 141.655 71.6258 141.655 71.6258C141.655 71.6258 141.393 71.7583 141.111 72.3842C140.383 72.8807 138.163 74.4405 137.339 75.5304C136.852 75.7707 136.329 76.3052 136.414 77.497C136.568 79.66 136.414 89.7029 136.414 89.7029C136.414 89.7029 135.026 98.2006 135.489 98.8186C135.951 99.4367 135.335 101.445 135.335 101.445L135.797 101.548V102.063C135.797 102.063 134.406 108.526 136.568 108.243C140.114 107.78 137.493 102.527 137.493 102.527V101.926L138.11 102.063C138.11 102.063 138.418 99.9002 139.034 99.7457C139.249 99.6919 139.501 99.1144 139.738 98.3845C139.876 99.5232 139.959 100.209 139.959 100.209L140.924 99.9943L141.193 100.982C141.259 101.019 141.328 101.05 141.4 101.076L141.193 102.218C141.193 102.218 141.039 103.454 141.193 104.226C141.27 104.616 144.132 112.943 146.95 121.103L146.897 123.076C146.897 123.076 145.509 124.621 145.818 125.702C146.126 126.784 145.047 135.745 145.047 135.745L144.122 140.226L144.355 140.298L144.141 141.083C143.957 141.176 143.793 141.305 143.659 141.462C142.426 142.853 140.884 146.87 140.884 146.87C140.884 146.87 138.11 151.041 142.426 150.887C146.743 150.732 147.051 149.187 147.051 149.187C147.051 149.187 147.668 145.17 147.668 145.016C147.668 144.861 147.359 143.273 147.359 143.273L147.239 143.141L147.323 141.213L148.13 141.462C148.13 141.462 148.901 137.445 149.517 136.981C149.733 136.819 150.306 135.015 150.961 132.697C151.63 134.628 152.278 141.305 152.488 141.911C152.414 142.013 152.348 142.121 152.292 142.235C151.599 143.567 150.827 144.857 149.98 146.097C149.98 146.097 145.047 149.033 149.98 149.805C149.98 149.805 152.755 149.96 154.142 149.033C155.53 148.106 159.23 146.715 159.23 146.406C159.23 146.097 158.305 141.555 157.38 142.049L156.76 140.621L157.38 140.38L153.477 122.823C153.569 122.448 153.637 122.068 153.68 121.685C153.68 120.876 155.676 105.122 156.184 101.126C158.419 101.76 160.463 97.1191 160.463 97.1191L160.97 96.2048L161.696 96.6556C161.696 96.6556 162.313 95.1105 163.238 94.956C164.163 94.8015 165.859 86.6128 165.859 85.5312C165.844 84.8369 165.687 84.153 165.396 83.5226ZM158.213 95.6279C158.062 95.3865 157.886 95.1613 157.688 94.956C158.091 93.9039 158.401 92.8181 158.613 91.7114C158.921 90.0118 158.15 84.4497 158.15 84.4497L158.137 84.0719C158.894 85.0674 159.846 86.3946 159.846 86.7672C159.846 86.9471 159.888 87.1245 159.968 87.2855C160.049 87.4464 160.165 87.5863 160.309 87.6943L159.384 90.9389C159.384 90.9389 158.767 92.4839 158.613 93.2564C158.521 93.7145 158.469 94.1798 158.459 94.647L158.677 94.7825L158.213 95.6279Z" fill="#D0CDE1"/>
<path d="M94.8204 86.3824L95.643 86.1969L92.2515 76.6176L84.9289 73.9137C84.9289 73.9137 84.9008 73.9449 84.849 73.9986C84.2244 73.3928 83.9593 72.5137 83.8486 71.8217C84.4374 71.5833 84.9666 71.2176 85.3981 70.7506C85.8297 70.2836 86.1531 69.727 86.3453 69.1203C86.5375 68.5136 86.5936 67.8719 86.5098 67.2409C86.426 66.61 86.2042 66.0054 85.8604 65.4702C86.4638 65.3251 86.6792 64.7764 86.8818 64.1222C86.7564 64.0851 86.6285 64.0572 86.499 64.0387C86.5939 63.8255 86.6888 63.6122 86.7837 63.3989C86.617 63.3839 86.4502 63.3689 86.2834 63.3539C86.3261 63.1546 86.3687 62.9552 86.4113 62.7558C86.1987 62.903 85.986 63.0501 85.7733 63.1973C85.8456 62.988 85.8635 62.7637 85.8255 62.5456C85.7875 62.3274 85.6948 62.1225 85.5561 61.9501C85.2736 61.6081 84.9053 61.3478 84.489 61.196C83.6748 60.875 82.7881 60.785 81.9263 60.936C81.0644 61.087 80.2608 61.473 79.6035 62.0518L79.5574 61.8717C78.2559 62.8745 77.4043 64.3536 77.1893 65.9847C76.9851 67.597 77.7579 69.2387 78.7624 70.5146C78.754 70.4589 78.7449 70.4034 78.7357 70.3479C78.7791 70.4078 78.8239 70.4666 78.8702 70.5243L78.9937 75.227L78.6844 75.4927C78.6844 75.4927 73.4956 77.8454 73.2934 80.6553L73.2928 80.6573C72.9814 82.0252 72.8272 89.1325 72.8272 89.1325H73.2541L72.8272 91.9136L70.0523 102.729C70.0523 102.729 66.5066 107.364 69.5898 108.291C71.5058 108.867 72.0524 106.639 72.1918 104.87C72.3028 105.308 72.6348 105.605 73.2897 105.664C73.3413 105.669 73.3963 105.673 73.4495 105.677C71.9917 109.453 72.9814 121.733 72.9814 121.733C72.2106 123.278 81.3061 133.939 81.3061 133.939L81.8538 133.646L81.9723 133.884C81.6675 133.913 81.4602 133.939 81.4602 133.939V138.729C81.4602 138.729 80.0728 143.518 81.9227 144.445C82.4014 144.685 82.9007 144.511 83.3779 144.121C83.2867 145.599 83.156 147.805 83.156 148.308C83.156 149.08 85.1601 150.471 85.1601 150.471C85.1601 150.471 85.6226 152.17 89.3225 152.17C93.0223 152.17 90.2474 147.69 90.2474 147.69L88.2433 143.209C88.2433 143.209 88.0934 143.283 87.6396 142.912L87.8021 141.121L88.7058 141.201L89.9391 123.124C89.9391 123.124 91.0182 107.055 91.1724 104.583C91.2085 103.79 91.1899 102.996 91.1166 102.206L95.6431 92.8406L94.8204 86.3824ZM91.4807 92.3771L91.0182 93.9923V90.42L91.4807 92.3771ZM72.2348 103.835C72.2386 103.269 72.2106 102.883 72.2106 102.883L75.2244 96.8423L75.1396 98.7118C75.1396 98.7118 72.7259 101.772 72.2348 103.835ZM79.302 121.269L82.2311 110.918L83.9268 123.433L83.8052 127.982C83.5987 127.564 83.4329 127.127 83.3102 126.677C82.8477 124.823 79.302 121.269 79.302 121.269Z" fill="#D0CDE1"/>
<path d="M121.02 145.86C119.576 145.264 116.772 143.987 116.432 143.305C116.092 142.624 114.393 137.344 114.393 137.344L113.955 137.376C113.899 134.978 113.658 125.682 113.288 124.571C113.288 124.571 115.072 109.839 111.504 103.963L110.861 101.36C111.072 100.316 111.045 97.8994 110.909 97.4913C110.739 96.9804 112.863 95.3624 112.268 94.3405C111.674 93.3186 110.059 89.8272 110.059 89.8272C110.059 89.8272 110.229 87.6132 107.935 85.5694C107.935 85.5694 107.265 81.7656 104.244 81.7089C103.835 80.9946 103.264 79.8588 103.432 79.353C103.612 78.8116 104.301 77.1235 104.69 76.1786C104.896 76.0851 105.095 75.9744 105.283 75.8478C107.685 74.7689 109.379 72.1753 109.379 69.1456C109.379 65.9022 107.439 63.1574 104.765 62.237C104.884 61.9224 104.933 61.5854 104.908 61.2498C104.883 60.9143 104.784 60.5884 104.62 60.2951C104.455 60.0018 104.228 59.7484 103.955 59.5526C103.682 59.3569 103.369 59.2236 103.039 59.1622C102.709 59.1009 102.37 59.1129 102.045 59.1975C101.72 59.2821 101.417 59.4372 101.159 59.6518C100.9 59.8664 100.692 60.1353 100.548 60.4395C100.405 60.7437 100.329 61.0758 100.328 61.4123C100.181 61.063 100.123 60.6826 100.158 60.3051C100.193 59.9277 100.321 59.5649 100.531 59.2491C100.74 58.9333 101.024 58.6744 101.358 58.4954C101.691 58.3165 102.064 58.2231 102.442 58.2236C102.591 58.2238 102.739 58.2385 102.886 58.2675C102.382 58.0274 101.808 57.9796 101.272 58.1331C100.735 58.2867 100.273 58.6309 99.972 59.1014C99.6708 59.572 99.5511 60.1364 99.6354 60.689C99.7197 61.2417 100.002 61.7445 100.43 62.1034C100.456 62.1874 100.488 62.2699 100.523 62.3504C98.0075 63.3679 96.2128 66.0262 96.2128 69.1456C96.2128 72.0391 97.7574 74.535 99.9891 75.6935C99.9772 76.6348 99.7443 78.2216 98.4491 79.1887C97.7801 78.8823 96.8516 78.546 96.2559 78.6986C95.9478 78.4579 95.4829 78.3784 94.8503 79.0124C93.5758 80.2898 92.4712 83.6108 92.4712 85.6546C92.4712 87.6983 92.7262 99.535 92.7262 99.535C92.7262 99.535 91.3667 100.046 92.3013 100.812C92.4944 100.974 92.7366 101.064 92.9878 101.068L93.9157 107.965C93.9157 107.965 93.3209 114.608 95.615 114.693C95.7949 114.703 95.9737 114.659 96.1285 114.566L94.4255 122.272C94.4255 122.272 90.517 124.826 87.4582 129.851C85.8828 132.438 85.0973 134.03 84.705 134.968L84.1445 134.619L82.1903 138.366C82.1903 138.366 77.857 141.006 78.7916 142.965C79.7263 144.923 80.5759 145.434 80.5759 145.434L81.1707 145.179L82.2753 147.222C82.2753 147.222 85.1641 151.395 89.8373 149.266C90.0566 148.971 90.175 148.613 90.175 148.244C90.175 147.876 90.0566 147.518 89.8373 147.222C89.0726 146.115 87.1184 143.731 87.1184 143.731L88.3928 137.259L88.1291 137.095L96.2098 127.296C96.2098 127.296 98.5888 125.848 99.4385 124.571C100.288 123.294 105.556 110.094 105.556 110.094L108.53 123.89C108.53 123.89 108.36 128.914 109.125 132.15C109.542 133.965 109.813 135.811 109.938 137.669L109.719 137.685L110.229 141.517C110.229 141.517 108.02 146.967 109.55 147.393C110.638 147.674 111.745 147.874 112.863 147.989L113.033 147.393C113.033 147.393 119.576 150.969 121.955 148.329C121.955 148.329 122.464 146.456 121.02 145.86ZM97.7392 104.048C97.9941 104.304 97.9091 105.496 97.9091 105.496L97.3993 108.817L96.8902 111.121C96.8197 110.032 96.6776 108.95 96.4647 107.88L96.2295 101.516C96.2757 101.545 96.3265 101.566 96.3797 101.579C96.5496 101.579 96.4647 100.131 96.4647 100.131C96.4647 100.131 96.5638 99.8726 96.6876 99.4646C97.0179 100.456 97.4212 101.102 97.9091 101.238L97.9941 102.345C97.9941 102.345 96.8895 102.856 97.9091 102.856C97.9682 102.854 98.027 102.845 98.0842 102.83L97.9941 103.282C97.9941 103.282 97.4843 103.793 97.7392 104.048Z" fill="#D0CDE1"/>
<path d="M119.568 149.827C157.289 149.827 187.869 149.322 187.869 148.699C187.869 148.075 157.289 147.57 119.568 147.57C81.8461 147.57 51.2666 148.075 51.2666 148.699C51.2666 149.322 81.8461 149.827 119.568 149.827Z" fill="#3F3D56"/>
<path d="M143.473 154.528C184.966 154.528 218.603 153.223 218.603 151.614C218.603 150.004 184.966 148.699 143.473 148.699C101.979 148.699 68.3419 150.004 68.3419 151.614C68.3419 153.223 101.979 154.528 143.473 154.528Z" fill="#3F3D56"/>
<path d="M129.606 158.854C149.97 158.854 166.478 157.549 166.478 155.939C166.478 154.329 149.97 153.024 129.606 153.024C109.243 153.024 92.7351 154.329 92.7351 155.939C92.7351 157.549 109.243 158.854 129.606 158.854Z" fill="#3F3D56"/>
<path d="M182.896 160.922C191.964 160.922 199.315 160.249 199.315 159.418C199.315 158.587 191.964 157.913 182.896 157.913C173.829 157.913 166.478 158.587 166.478 159.418C166.478 160.249 173.829 160.922 182.896 160.922Z" fill="#3F3D56"/>
<path d="M160.379 166C164.68 166 168.167 165.326 168.167 164.496C168.167 163.665 164.68 162.991 160.379 162.991C156.079 162.991 152.592 163.665 152.592 164.496C152.592 165.326 156.079 166 160.379 166Z" fill="#3F3D56"/>
<path d="M96.957 159.606C101.258 159.606 104.744 158.932 104.744 158.102C104.744 157.271 101.258 156.597 96.957 156.597C92.6564 156.597 89.17 157.271 89.17 158.102C89.17 158.932 92.6564 159.606 96.957 159.606Z" fill="#3F3D56"/>
<path d="M135.423 141.082L136.174 146.348L139.927 145.972L139.551 140.518L135.423 141.082Z" fill="#FFB8B8"/>
<path d="M117.597 141.082L116.847 146.348L113.094 145.972L113.469 140.518L117.597 141.082Z" fill="#FFB8B8"/>
<path d="M112.156 86.5452C112.156 86.5452 108.778 90.4944 109.529 96.7004C110.279 102.906 111.593 117.011 111.593 117.011L112.531 142.023L118.536 141.646L119.474 120.396L122.476 103.282L130.545 123.217C130.545 123.217 134.485 141.834 134.673 141.834C134.86 141.834 140.302 141.27 140.302 141.27L137.675 119.267C137.675 119.267 133.547 87.2974 131.108 86.7332C128.668 86.1691 112.156 86.5452 112.156 86.5452Z" fill="#2F2E41"/>
<path d="M140.302 145.22C140.302 145.22 136.924 142.963 135.611 145.596C134.297 148.228 135.423 150.109 135.423 150.109C135.423 150.109 136.549 150.861 135.986 151.614C135.423 152.366 135.236 157.255 140.114 156.503C144.993 155.751 142.554 150.673 142.554 150.673L140.302 145.22Z" fill="#2F2E41"/>
<path d="M112.719 145.22C112.719 145.22 116.096 142.963 117.41 145.596C118.723 148.228 117.597 150.109 117.597 150.109C117.597 150.109 116.472 150.861 117.035 151.614C117.597 152.366 117.785 157.255 112.906 156.503C108.028 155.751 110.467 150.673 110.467 150.673L112.719 145.22Z" fill="#2F2E41"/>
<path d="M116.753 49.9676C116.753 49.9676 118.442 54.6691 117.128 57.3019C115.815 59.9348 119.192 62.9437 119.192 62.9437C119.192 62.9437 128.011 58.4303 126.886 56.1736C125.76 53.9169 123.883 50.9079 124.259 49.0273L116.753 49.9676Z" fill="#FFB8B8"/>
<path d="M120.037 51.7543C123.353 51.7543 126.041 49.06 126.041 45.7364C126.041 42.4128 123.353 39.7185 120.037 39.7185C116.721 39.7185 114.032 42.4128 114.032 45.7364C114.032 49.06 116.721 51.7543 120.037 51.7543Z" fill="#FFB8B8"/>
<path d="M115.721 57.0199C115.721 57.0199 121.746 62.0446 126.239 54.9248L130.92 57.5841L133.359 86.1691C133.359 86.1691 119.662 94.0675 113.094 87.2974L114.032 60.7811L115.721 57.0199Z" fill="#D0CDE1"/>
<path d="M117.613 54.2051L109.154 59.8406L112.156 73.757L108.215 95.3838L114.595 85.7928L117.613 54.2051Z" fill="#575A89"/>
<path d="M125.089 52.6365L127.167 54.0109L135.611 57.0198L134.297 80.3391L137.863 95.3838L132.796 98.0167C132.796 98.0167 131.858 90.8704 126.041 87.2973C120.224 83.7242 123.762 53.7068 125.089 52.6365Z" fill="#575A89"/>
<path d="M111.03 89.178L113.469 90.8705C113.469 90.8705 110.373 94.1615 109.81 93.5974C109.647 93.4406 109.521 93.2498 109.44 93.0386C109.359 92.8273 109.325 92.6007 109.341 92.375L108.778 91.0586L111.03 89.178Z" fill="#FFB8B8"/>
<path d="M127.246 88.8121L126.417 90.1183C126.417 90.1183 123.977 91.2466 124.54 91.9989C125.103 92.7511 129.794 94.4436 130.732 92.7511L131.67 91.0586L127.246 88.8121Z" fill="#FFB8B8"/>
<path d="M110.279 59.6527L108.966 59.8408L106.808 73.8512C106.808 73.8512 105.964 76.3899 106.902 82.4078C107.84 88.4257 108.769 92.3444 108.769 92.3444L112.906 89.366L111.03 84.4765L113.469 66.6109L110.279 59.6527Z" fill="#575A89"/>
<path d="M132.609 56.6438L135.611 57.0199C135.611 57.0199 138.988 60.593 139.551 64.3542C140.114 68.1154 139.927 78.8347 139.927 78.8347L131.295 92.563L126.604 89.178L133.172 77.5183L129.982 63.602L132.609 56.6438Z" fill="#575A89"/>
<path d="M125.763 40.2935C124.855 38.8158 123.433 37.7268 121.772 37.2363L120.553 38.2144L121.027 37.0735C120.628 37.0125 120.224 36.9892 119.821 37.0037L118.723 38.4181L119.178 37.0521C118.225 37.1708 117.308 37.4859 116.483 37.9777C115.658 38.4694 114.943 39.1272 114.385 39.9094C112.988 41.9283 112.752 44.736 114.126 46.7707C114.503 45.609 114.961 44.5188 115.338 43.3571C115.635 43.3976 115.935 43.399 116.232 43.3614L116.691 42.2883L116.819 43.3161C118.242 43.1918 120.351 42.9192 121.7 42.6693L121.569 41.8809L122.353 42.5361C122.766 42.4408 123.012 42.3543 122.991 42.2883C123.994 43.9086 124.988 44.9436 125.991 46.564C126.372 44.2784 127.044 42.3785 125.763 40.2935Z" fill="#2F2E41"/>
<path d="M125.43 46.362C125.655 46.362 125.837 45.9972 125.837 45.5472C125.837 45.0972 125.655 44.7324 125.43 44.7324C125.206 44.7324 125.024 45.0972 125.024 45.5472C125.024 45.9972 125.206 46.362 125.43 46.362Z" fill="#FFB8B8"/>
<path d="M190.377 151.911C190.55 157.845 187.09 160.02 182.748 160.147C182.647 160.15 182.547 160.152 182.447 160.153C182.245 160.154 182.046 160.151 181.848 160.143C177.921 159.979 174.813 157.89 174.652 152.371C174.486 146.659 181.56 139.238 182.09 138.689L182.091 138.688C182.111 138.667 182.122 138.657 182.122 138.657C182.122 138.657 190.204 145.976 190.377 151.911Z" fill="white"/>
<path d="M182.435 159.248L185.194 155.137L182.441 159.69L182.447 160.153C182.245 160.155 182.046 160.151 181.848 160.143L181.985 154.197L181.982 154.151L181.987 154.142L182 153.58L178.979 149.185L181.996 153.159L182.007 153.278L182.11 148.786L179.501 144.229L182.118 147.996L182.09 138.689V138.658L182.091 138.688L182.264 146.024L184.642 143.044L182.272 146.656L182.324 150.674L184.512 146.752L182.332 151.265L182.361 153.5L185.543 148.036L182.371 154.279L182.435 159.248Z" fill="#3F3D56"/>
<path d="M89.8019 143.072C89.9748 149.007 86.5149 151.182 82.1727 151.309C82.0719 151.312 81.9715 151.314 81.8715 151.314C81.6702 151.316 81.4707 151.312 81.2733 151.304C77.3463 151.141 74.2378 149.051 74.0769 143.532C73.9105 137.82 80.9844 130.399 81.5151 129.85L81.516 129.849C81.5362 129.828 81.5465 129.818 81.5465 129.818C81.5465 129.818 89.629 137.138 89.8019 143.072Z" fill="white"/>
<path d="M81.8601 150.409L84.6184 146.298L81.8658 150.852L81.8715 151.314C81.6702 151.316 81.4708 151.312 81.2733 151.304L81.4101 145.358L81.4064 145.312L81.4114 145.303L81.4245 144.741L78.4039 140.346L81.4209 144.321L81.4316 144.439L81.535 139.947L78.9259 135.39L81.5424 139.158L81.5151 129.85L81.5152 129.819L81.516 129.849L81.6892 137.185L84.067 134.205L81.697 137.817L81.7489 141.836L83.937 137.914L81.757 142.426L81.7858 144.661L84.9679 139.198L81.7955 145.44L81.8601 150.409Z" fill="#3F3D56"/>
<path d="M164.955 160.278C165.057 163.761 163.026 165.038 160.477 165.112C160.418 165.114 160.359 165.115 160.3 165.116C160.182 165.116 160.065 165.114 159.949 165.11C157.644 165.014 155.819 163.787 155.725 160.548C155.627 157.195 159.78 152.839 160.091 152.517L160.092 152.516C160.103 152.504 160.11 152.498 160.11 152.498C160.11 152.498 164.854 156.794 164.955 160.278Z" fill="white"/>
<path d="M160.294 164.584L161.913 162.171L160.297 164.844L160.3 165.116C160.182 165.117 160.065 165.115 159.949 165.11L160.029 161.619L160.027 161.592L160.03 161.587L160.038 161.257L158.265 158.677L160.036 161.011L160.042 161.08L160.103 158.443L158.571 155.768L160.107 157.98L160.091 152.517V152.498L160.092 152.516L160.193 156.822L161.589 155.073L160.198 157.193L160.228 159.552L161.513 157.25L160.233 159.899L160.25 161.21L162.118 158.003L160.256 161.668L160.294 164.584Z" fill="#3F3D56"/>
<path d="M227.984 46.6262C227.989 46.609 227.995 46.5917 228 46.5745C227.998 46.582 227.995 46.5893 227.992 46.5968L227.984 46.6262Z" fill="#2F2E41"/>
<path d="M201.762 146.414L215.66 125.7L201.791 148.643L201.82 150.974C200.805 150.981 199.8 150.964 198.805 150.923L199.495 120.961L199.476 120.73L199.501 120.685L199.567 117.854L184.347 95.707L199.549 115.735L199.603 116.334L200.124 93.6965L186.978 70.7351L200.161 89.7198L200.024 42.8216V42.6655L200.028 42.8191L200.901 79.7811L212.882 64.7671L200.94 82.9653L201.202 103.214L212.227 83.4521L201.242 106.191L201.388 117.45L217.421 89.9219L201.437 121.378L201.762 146.414Z" fill="#3F3D56"/>
<path d="M59.8505 145.611L69.3077 131.516L59.8698 147.128L59.8895 148.714C59.1991 148.719 58.5154 148.707 57.8384 148.679L58.3075 128.291L58.2946 128.134L58.3119 128.104L58.3568 126.177L48 111.107L58.3446 124.735L58.3813 125.142L58.7356 109.738L49.7901 94.1138L58.7611 107.032L58.6675 75.1195L58.6677 75.0133L58.6707 75.1178L59.2645 100.269L67.4173 90.0528L59.2912 102.436L59.4692 116.215L66.9714 102.767L59.4967 118.24L59.5958 125.902L70.506 107.17L59.6289 128.574L59.8505 145.611Z" fill="#3F3D56"/>
</g>
</g>
<defs>
<filter id="filter0_d_52_61" x="0" y="0" width="259" height="221" filterUnits="userSpaceOnUse" color-interpolation-filters="sRGB">
<feFlood flood-opacity="0" result="BackgroundImageFix"/>
<feColorMatrix in="SourceAlpha" type="matrix" values="0 0 0 0 0 0 0 0 0 0 0 0 0 0 0 0 0 0 127 0" result="hardAlpha"/>
<feOffset dy="7"/>
<feGaussianBlur stdDeviation="3.5"/>
<feComposite in2="hardAlpha" operator="out"/>
<feColorMatrix type="matrix" values="0 0 0 0 0 0 0 0 0 0 0 0 0 0 0 0 0 0 0.25 0"/>
<feBlend mode="normal" in2="BackgroundImageFix" result="effect1_dropShadow_52_61"/>
<feBlend mode="normal" in="SourceGraphic" in2="effect1_dropShadow_52_61" result="shape"/>
</filter>
<clipPath id="clip0_52_61">
<rect width="259" height="221" fill="white"/>
</clipPath>
</defs>
</svg>
