<svg width="322" height="102" viewBox="0 0 322 102" fill="none" xmlns="http://www.w3.org/2000/svg">
<g clip-path="url(#clip0_5_608)">
<path d="M185.502 99.5282C185.419 99.5328 185.325 99.538 185.219 99.5437C184.713 99.571 183.944 99.6099 182.898 99.6567C180.804 99.7504 177.597 99.8753 173.148 100C164.248 100.25 150.378 100.5 130.5 100.5H130.267H130.035H129.803H129.571H129.34H129.109H128.879H128.649H128.419H128.19H127.961H127.732H127.504H127.276H127.049H126.822H126.596H126.369H126.144H125.918H125.693H125.469H125.245H125.021H124.798H124.575H124.352H124.13H123.908H123.687H123.466H123.245H123.025H122.805H122.586H122.367H122.148H121.93H121.712H121.495H121.278H121.061H120.845H120.629H120.414H120.199H119.984H119.77H119.556H119.343H119.13H118.917H118.705H118.493H118.282H118.071H117.86H117.65H117.44H117.231H117.022H116.814H116.605H116.398H116.19H115.983H115.777H115.571H115.365H115.16H114.955H114.75H114.546H114.343H114.14H113.937H113.734H113.532H113.331H113.129H112.929H112.728H112.528H112.329H112.13H111.931H111.732H111.535H111.337H111.14H110.943H110.747H110.551H110.356H110.161H109.966H109.772H109.578H109.385H109.192H108.999H108.807H108.615H108.424H108.233H108.043H107.853H107.663H107.474H107.285H107.097H106.909H106.721H106.534H106.348H106.161H105.975H105.79H105.605H105.42H105.236H105.052H104.869H104.686H104.504H104.322H104.14H103.959H103.778H103.598H103.418H103.238H103.059H102.88H102.702H102.524H102.347H102.17H101.993H101.817H101.641H101.466H101.291H101.117H100.943H100.769H100.596H100.423H100.251H100.079H99.9076H99.7366H99.566H99.3958H99.2261H99.0568H98.8879H98.7195H98.5515H98.3839H98.2167H98.05H97.8837H97.7179H97.5524H97.3874H97.2229H97.0588H96.8951H96.7318H96.569H96.4066H96.2446H96.0831H95.922H95.7613H95.6011H95.4413H95.2819H95.123H94.9645H94.8065H94.6488H94.4917H94.3349H94.1786H94.0227H93.8673H93.7123H93.5578H93.4037H93.25H93.0967H92.9439H92.7916H92.6397H92.4882H92.3371H92.1865H92.0364H91.8866H91.7374H91.5885H91.4401H91.2922H91.1447H90.9976H90.851H90.7048H90.559H90.4137H90.2689H90.1245H89.9805H89.837H89.6939H89.5513H89.4091H89.2673H89.1261H88.9852H88.8448H88.7048H88.5653H88.4263H88.2876H88.1495H88.0118H87.8745H87.7377H87.6013H87.4653H87.3299H87.1948H87.0603H86.9261H86.7924H86.6592H86.5264H86.3941H86.2622H86.1308H85.9998H85.8693H85.7392H85.6096H85.4804H85.3517H85.2234H85.0956H84.9683H84.8414H84.7149H84.5889H84.4634H84.3383H84.2137H84.0895H83.9658H83.8425H83.7197H83.5974H83.4755H83.354H83.2331H83.1125H82.9925H82.8729H82.7537H82.635H82.5168H82.399H82.2817H82.1649H82.0485H81.9325H81.8171H81.702H81.5875H81.4734H81.3598H81.2466H81.1339H81.0216H80.9099H80.7985H80.6877H80.5773H80.4674H80.3579H80.2489H80.1403H80.0323H79.9246H79.8175H79.7108H79.6046H79.4989H79.3936H79.2887H79.1844H79.0805H78.9771H78.8741H78.7716H78.6696H78.5681H78.467H78.3664H78.2662H78.1666H78.0674H77.9686H77.8703H77.7725H77.6752H77.5784H77.482H77.3861H77.2906H77.1956H77.1011H77.0071H76.9135H76.8205H76.7278H76.6357H76.544H76.4528H76.3621H76.2719H76.1821H76.0928H76.004H75.9156H75.8278H75.7404H75.6534H75.567H75.481H75.3955H75.3105H75.226H75.1419H75.0583H74.9752H74.8926H74.8105H74.7288H74.6476H74.5669H74.4866H74.4069H74.3276H74.2488H74.1705H74.0927H74.0153H73.9384H73.8621H73.7861H73.7107H73.6358H73.5613H73.4873H73.4138H73.3408H73.2683H73.1962H73.1247H73.0536H72.983H72.9129H72.8433H72.7741H72.7055H72.6373H72.5696H72.5024H72.4357H72.3695H72.3038H72.2385H72.1737H72.1095H72.0457H71.9824H71.9196H71.8573H71.7954H71.7341H71.6732H71.6129H71.553H71.4936H71.4347H71.3763H71.3184H71.261H71.2041H71.1476H71.0917H71.0362H70.9813H70.9268H70.8728H70.8193H70.7664H70.7139H70.6619H70.6104H70.5594H70.5088H70.4588H70.4093H70.3603H70.3117H70.2637H70.2162H70.1691H70.1226H70.0765H70.031H69.9859H69.9414H69.8973H69.8537H69.8107H69.7681H69.7261H69.6845H69.6434H69.6029H69.5628H69.5232H69.4842H69.4456H69.4076H69.37H69.3329H69.2964H69.2603H69.2248H69.1897H69.1552H69.1212H69.0876H69.0546H69.0221H68.99H68.9585H68.9275H68.897H68.867H68.8375H68.8085H68.78H68.752H68.7245H68.6976H68.6711H68.6452H68.6197H68.5948H68.5703H68.5464H68.523H68.5046C68.6683 91.6089 73.1898 83.1797 80.5808 75.5017C88.1091 67.6813 98.5777 60.6806 110.312 54.8212C133.786 43.0992 162.21 36 182 36C186.948 36 190.685 36.4284 193.449 37.2338C196.209 38.0384 197.96 39.2076 198.993 40.6639C200.025 42.1181 200.39 43.9284 200.241 46.1176C200.092 48.3129 199.427 50.8493 198.439 53.7107C197.503 56.4231 196.287 59.3969 194.97 62.6179C194.899 62.7917 194.828 62.9663 194.756 63.1416C193.36 66.5592 191.866 70.2417 190.495 74.1456C187.801 81.8216 185.576 90.3761 185.502 99.5282Z" fill="white" stroke="black"/>
<path d="M126.913 95.909C137.624 72.3464 161.117 57.2184 187 57.2184V101.218H124.5L126.913 95.909Z" fill="#D9D9D9"/>
<path d="M321.498 100.5H321.482H321.452H321.422H321.39H321.359H321.326H321.292H321.258H321.223H321.187H321.15H321.113H321.075H321.036H320.996H320.956H320.914H320.872H320.83H320.786H320.742H320.697H320.651H320.605H320.557H320.509H320.461H320.411H320.361H320.31H320.258H320.206H320.153H320.099H320.044H319.989H319.933H319.876H319.819H319.76H319.701H319.642H319.582H319.521H319.459H319.396H319.333H319.27H319.205H319.14H319.074H319.007H318.94H318.872H318.804H318.734H318.664H318.594H318.523H318.451H318.378H318.305H318.231H318.156H318.081H318.005H317.928H317.851H317.773H317.695H317.615H317.536H317.455H317.374H317.292H317.21H317.127H317.043H316.959H316.874H316.789H316.703H316.616H316.529H316.441H316.352H316.263H316.173H316.083H315.992H315.9H315.808H315.715H315.622H315.528H315.433H315.338H315.242H315.146H315.049H314.951H314.853H314.755H314.655H314.556H314.455H314.354H314.253H314.151H314.048H313.945H313.841H313.737H313.632H313.527H313.421H313.314H313.207H313.1H312.992H312.883H312.774H312.664H312.554H312.443H312.332H312.22H312.108H311.995H311.882H311.768H311.654H311.539H311.424H311.308H311.191H311.074H310.957H310.839H310.721H310.602H310.483H310.363H310.242H310.122H310H309.879H309.756H309.634H309.51H309.387H309.263H309.138H309.013H308.888H308.762H308.635H308.508H308.381H308.253H308.125H307.996H307.867H307.738H307.608H307.477H307.346H307.215H307.083H306.951H306.818H306.685H306.552H306.418H306.284H306.149H306.014H305.879H305.743H305.606H305.47H305.333H305.195H305.057H304.919H304.78H304.641H304.501H304.362H304.221H304.081H303.94H303.798H303.656H303.514H303.372H303.229H303.086H302.942H302.798H302.654H302.509H302.364H302.218H302.073H301.927H301.78H301.633H301.486H301.339H301.191H301.043H300.894H300.745H300.596H300.447H300.297H300.147H299.996H299.846H299.694H299.543H299.391H299.239H299.087H298.934H298.781H298.628H298.475H298.321H298.167H298.012H297.857H297.702H297.547H297.392H297.236H297.08H296.923H296.766H296.61H296.452H296.295H296.137H295.979H295.821H295.662H295.503H295.344H295.185H295.025H294.866H294.705H294.545H294.385H294.224H294.063H293.901H293.74H293.578H293.416H293.254H293.092H292.929H292.766H292.603H292.44H292.276H292.113H291.949H291.785H291.62H291.456H291.291H291.126H290.961H290.796H290.63H290.464H290.298H290.132H289.966H289.8H289.633H289.466H289.299H289.132H288.965H288.797H288.63H288.462H288.294H288.126H287.957H287.789H287.62H287.452H287.283H287.114H286.944H286.775H286.606H286.436H286.266H286.096H285.926H285.756H285.586H285.416H285.245H285.074H284.904H284.733H284.562H284.391H284.22H284.048H283.877H283.705H283.534H283.362H283.19H283.018H282.846H282.674H282.502H282.33H282.158H281.985H281.813H281.64H281.467H281.295H281.122H280.949H280.776H280.603H280.43H280.257H280.084H279.911H279.737H279.564H279.391H279.217H279.044H278.87H278.697H278.523H278.35H278.176H278.002H277.829H277.655H277.481H277.308H277.134H276.96H276.786H276.612H276.439H276.265H276.091H275.917H275.743H275.569H275.395H275.222H275.048H274.874H274.7H274.526H274.353H274.179H274.005H273.831H273.658H273.484H273.31H273.137H272.963H272.79H272.616H272.443H272.269H272.096H271.922H271.749H271.576H271.403H271.23H271.057H270.884H270.711H270.538H270.365H270.192H270.019H269.847H269.674H269.502H269.329H269.157H268.985H268.813H268.641H268.469H268.297H268.125H267.954H267.782H267.611H267.439H267.268H267.097H266.926H266.755H266.584H266.413H266.243H266.072H265.902H265.732H265.562H265.392H265.222H265.052H264.883H264.713H264.544H264.375H264.206H264.037H263.868H263.7H263.531H263.363H263.195H263.027H262.859H262.692H262.524H262.357H262.19H262.023H261.856H261.69H261.524H261.357H261.191H261.026H260.86H260.694H260.529H260.364H260.199H260.035H259.87H259.706H259.542H259.378H259.214H259.051H258.888H258.725H258.562H258.4H258.237H258.075H257.913H257.752H257.59H257.429H257.268H257.107H256.947H256.787H256.627H256.467H256.306H256.145H255.983H255.82H255.657H255.494H255.329H255.165H254.999H254.833H254.667H254.5H254.332H254.164H253.996H253.826H253.657H253.486H253.316H253.144H252.972H252.8H252.627H252.454H252.28H252.105H251.931H251.755H251.579H251.403H251.226H251.049H250.871H250.692H250.514H250.334H250.155H249.975H249.794H249.613H249.431H249.249H249.067H248.884H248.701H248.517H248.333H248.148H247.963H247.778H247.592H247.406H247.219H247.032H246.844H246.656H246.468H246.279H246.09H245.901H245.711H245.521H245.33H245.139H244.948H244.756H244.564H244.372H244.179H243.986H243.793H243.599H243.405H243.211H243.016H242.821H242.625H242.43H242.233H242.037H241.84H241.643H241.446H241.249H241.051H240.853H240.654H240.455H240.256H240.057H239.857H239.658H239.457H239.257H239.056H238.856H238.654H238.453H238.251H238.05H237.847H237.645H237.443H237.24H237.037H236.833H236.63H236.426H236.222H236.018H235.814H235.61H235.405H235.2H234.995H234.79H234.584H234.379H234.173H233.967H233.761H233.554H233.348H233.141H232.935H232.728H232.521H232.313H232.106H231.899H231.691H231.483H231.275H231.067H230.859H230.651H230.443H230.234H230.026H229.817H229.608H229.4H229.191H228.982H228.773H228.564H228.354H228.145H227.936H227.726H227.517H227.307H227.098H226.888H226.678H226.469H226.259H226.049H225.839H225.629H225.419H225.209H224.999H224.789H224.58H224.37H224.16H223.95H223.74H223.53H223.32H223.11H222.9H222.69H222.48H222.27H222.06H221.851H221.641H221.431H221.221H221.012H220.802H220.593H220.383H220.174H219.965H219.755H219.546H219.337H219.128H218.919H218.71H218.502H218.293H218.085H217.876H217.668H217.46H217.251H217.043H216.836H216.628H216.42H216.213H216.005H215.798H215.591H215.384H215.177H214.971H214.764H214.558H214.352H214.146H213.94H213.734H213.529H213.324H213.118H212.914H212.709H212.504H212.3H212.096H211.892H211.688H211.485H211.282H211.078H210.876H210.673H210.471H210.268H210.067H209.865H209.663H209.462H209.261H209.061H208.86H208.66H208.46H208.261H208.061H207.862H207.664H207.465H207.267H207.069H206.871H206.674H206.477H206.28H206.084H205.888H205.692H205.497H205.301H205.107H204.912H204.718H204.524H204.331H204.138H203.945H203.752H203.56H203.369H203.177H202.986H202.796H202.605H202.415H202.226H202.037H201.848H201.66H201.472H201.284H201.097H200.91H200.724H200.538H200.353H200.168H199.983H199.799H199.615H199.432H199.249H199.066H198.884H198.703H198.521H198.341H198.16H197.981H197.801H197.623H197.444H197.266H197.089H196.912H196.735H196.559H196.384H196.209H196.035H195.861H195.687H195.514H195.342H195.17H194.998H194.828H194.657H194.487H194.318H194.149H193.981H193.814H193.647H193.48H193.314H193.149H192.984H192.819H192.656H192.493H192.33H192.168H192.007H191.846H191.686H191.526H191.367H191.209H191.051H190.894H190.737H190.581H190.426H190.271H190.117H189.963H189.811H189.658H189.507H189.356H189.206H189.056H188.907H188.759H188.611H188.464H188.318H188.172H188.028H187.883H187.74H187.597H187.455H187.313H187.172H187.032H186.893H186.754H186.616H186.479H186.343H186.207H186.072H185.937H185.804H185.671H185.539H185.407H185.277H185.147H185.018H184.889H184.762H184.635H184.509H184.384H184.259H184.136H184.013H183.89H183.769H183.648H183.529H183.41H183.292H183.174H183.058H182.942H182.827H182.713H182.6H182.487H182.376H182.265H182.155H182.046H181.938H181.83H181.724H181.618H181.514H181.41H181.307H181.204H181.103H181.003H180.903H180.804H180.707H180.61H180.514H180.419H180.325H180.231H180.139H180.048H179.957H179.868H179.779H179.691H179.604H179.519H179.434H179.35H179.267H179.185H179.103H179.023H178.944H178.866H178.789H178.712H178.637H178.563H178.489H178.417H178.346H178.275H178.206H178.138H178.07H178.004H177.938H177.874H177.811H177.748H177.687H177.627H177.568H177.51H177.452H177.396H177.341H177.287H177.234H177.182H177.132H177.082H177.033H176.986H176.939H176.894H176.849H176.806H176.764H176.723H176.683H176.644H176.606H176.569H176.534H176.5V100.25C176.499 81.8349 176.497 55.367 182.654 34.2952C185.774 23.619 190.458 14.3867 197.472 8.28662C204.464 2.20579 213.821 -0.80685 226.401 1.03865C254.414 6.24418 278.195 22.0761 294.975 41.206C311.613 60.1734 321.322 82.3276 321.498 100.5Z" fill="#9ED6FF" stroke="black"/>
<path d="M320 100C320 100 294.979 100 277.061 100C259.144 100 202 100 202 100C202 74.3976 216.211 25.191 249.608 30.3802C286.583 37.6452 320 74.3976 320 100Z" fill="#78BFF3"/>
<path d="M48.9993 100.884L321.999 100.517" stroke="black"/>
<path d="M29 101.5H0" stroke="black"/>
</g>
<defs>
<clipPath id="clip0_5_608">
<rect width="322" height="102" fill="white"/>
</clipPath>
</defs>
</svg>
