<svg width="413" height="163" viewBox="0 0 413 163" fill="none" xmlns="http://www.w3.org/2000/svg">
<g clip-path="url(#clip0_5_1523)">
<path d="M42.5204 162.5H42.5009C42.6189 128.568 54.7317 88.1539 75.849 56.1728C97.0731 24.0299 127.324 0.5 163.54 0.5C199.779 0.5 235.266 24.0558 261.722 56.215C288.044 88.2122 305.33 128.613 305.499 162.5H305.463H305.423H305.382H305.339H305.294H305.248H305.201H305.152H305.102H305.051H304.998H304.943H304.888H304.831H304.772H304.712H304.651H304.588H304.524H304.459H304.392H304.323H304.254H304.183H304.11H304.037H303.961H303.885H303.807H303.728H303.647H303.565H303.482H303.397H303.311H303.224H303.135H303.045H302.954H302.861H302.767H302.672H302.575H302.477H302.378H302.277H302.175H302.072H301.967H301.861H301.754H301.645H301.535H301.424H301.312H301.198H301.083H300.966H300.849H300.73H300.609H300.488H300.365H300.241H300.115H299.989H299.861H299.731H299.601H299.469H299.336H299.202H299.066H298.93H298.791H298.652H298.512H298.37H298.227H298.082H297.937H297.79H297.642H297.493H297.342H297.191H297.038H296.883H296.728H296.571H296.414H296.255H296.094H295.933H295.77H295.606H295.441H295.275H295.107H294.939H294.769H294.598H294.426H294.252H294.078H293.902H293.725H293.547H293.367H293.187H293.005H292.822H292.638H292.453H292.267H292.079H291.891H291.701H291.51H291.318H291.125H290.93H290.735H290.538H290.34H290.141H289.941H289.74H289.538H289.334H289.13H288.924H288.717H288.509H288.3H288.09H287.879H287.667H287.453H287.239H287.023H286.806H286.589H286.37H286.15H285.929H285.706H285.483H285.259H285.033H284.807H284.579H284.351H284.121H283.89H283.658H283.425H283.191H282.956H282.72H282.483H282.245H282.006H281.766H281.524H281.282H281.039H280.794H280.549H280.302H280.055H279.807H279.557H279.306H279.055H278.802H278.549H278.294H278.039H277.782H277.524H277.266H277.006H276.745H276.484H276.221H275.958H275.693H275.428H275.161H274.894H274.625H274.356H274.085H273.814H273.541H273.268H272.994H272.719H272.442H272.165H271.887H271.608H271.328H271.047H270.765H270.482H270.198H269.914H269.628H269.342H269.054H268.766H268.476H268.186H267.895H267.603H267.31H267.016H266.721H266.425H266.128H265.831H265.532H265.233H264.933H264.631H264.329H264.026H263.723H263.418H263.112H262.806H262.499H262.19H261.881H261.571H261.26H260.949H260.636H260.323H260.008H259.693H259.377H259.061H258.743H258.424H258.105H257.785H257.464H257.142H256.819H256.496H256.171H255.846H255.52H255.193H254.866H254.537H254.208H253.878H253.547H253.215H252.882H252.549H252.215H251.88H251.544H251.208H250.871H250.532H250.194H249.854H249.513H249.172H248.83H248.487H248.144H247.8H247.454H247.109H246.762H246.415H246.066H245.718H245.368H245.018H244.666H244.315H243.962H243.609H243.254H242.9H242.544H242.188H241.831H241.473H241.115H240.755H240.395H240.035H239.673H239.311H238.949H238.585H238.221H237.856H237.49H237.124H236.757H236.389H236.021H235.652H235.282H234.912H234.541H234.169H233.797H233.423H233.05H232.675H232.3H231.924H231.548H231.171H230.793H230.414H230.035H229.656H229.275H228.894H228.512H228.13H227.747H227.364H226.979H226.594H226.209H225.823H225.436H225.049H224.661H224.272H223.883H223.493H223.103H222.712H222.32H221.928H221.535H221.142H220.748H220.353H219.958H219.562H219.166H218.769H218.371H217.973H217.574H217.175H216.775H216.375H215.974H215.572H215.17H214.767H214.364H213.96H213.556H213.151H212.746H212.34H211.933H211.526H211.118H210.71H210.302H209.892H209.483H209.072H208.662H208.25H207.838H207.426H207.013H206.6H206.186H205.772H205.357H204.941H204.525H204.109H203.692H203.275H202.857H202.439H202.02H201.6H201.181H200.76H200.34H199.918H199.497H199.074H198.652H198.229H197.805H197.381H196.957H196.532H196.106H195.68H195.254H194.827H194.4H193.973H193.545H193.116H192.687H192.258H191.828H191.398H190.967H190.536H190.105H189.673H189.24H188.808H188.375H187.941H187.507H187.073H186.638H186.203H185.767H185.331H184.895H184.458H184.021H183.584H183.146H182.708H182.269H181.83H181.391H180.951H180.511H180.071H179.63H179.189H178.747H178.305H177.863H177.42H176.977H176.534H176.091H175.647H175.202H174.758H174.313H173.867H173.422H172.976H172.529H172.083H171.636H171.189H170.741H170.293H169.845H169.397H168.948H168.499H168.049H167.6H167.15H166.7H166.249H165.798H165.347H164.896H164.444H163.992H163.54H163.073H162.607H162.143H161.679H161.216H160.753H160.292H159.832H159.372H158.913H158.455H157.998H157.542H157.087H156.632H156.179H155.726H155.275H154.824H154.374H153.924H153.476H153.029H152.582H152.136H151.692H151.248H150.804H150.362H149.921H149.48H149.041H148.602H148.164H147.727H147.291H146.856H146.422H145.988H145.555H145.124H144.693H144.263H143.834H143.405H142.978H142.552H142.126H141.701H141.277H140.854H140.432H140.011H139.591H139.171H138.753H138.335H137.918H137.502H137.087H136.673H136.259H135.847H135.435H135.024H134.615H134.206H133.798H133.39H132.984H132.579H132.174H131.77H131.367H130.966H130.564H130.164H129.765H129.367H128.969H128.572H128.177H127.782H127.388H126.995H126.602H126.211H125.82H125.431H125.042H124.654H124.267H123.881H123.496H123.112H122.728H122.346H121.964H121.583H121.204H120.825H120.446H120.069H119.693H119.317H118.943H118.569H118.196H117.824H117.453H117.083H116.714H116.346H115.978H115.611H115.246H114.881H114.517H114.154H113.792H113.43H113.07H112.711H112.352H111.994H111.637H111.281H110.926H110.572H110.219H109.867H109.515H109.164H108.815H108.466H108.118H107.771H107.425H107.08H106.735H106.392H106.049H105.707H105.367H105.027H104.688H104.349H104.012H103.676H103.34H103.006H102.672H102.339H102.008H101.677H101.346H101.017H100.689H100.362H100.035H99.7094H99.3847H99.0609H98.738H98.4159H98.0948H97.7745H97.4552H97.1367H96.8192H96.5025H96.1868H95.8719H95.5579H95.2449H94.9327H94.6214H94.311H94.0015H93.693H93.3853H93.0785H92.7726H92.4676H92.1635H91.8604H91.5581H91.2567H90.9562H90.6566H90.3579H90.0601H89.7633H89.4673H89.1722H88.878H88.5847H88.2923H88.0009H87.7103H87.4206H87.1318H86.844H86.557H86.271H85.9858H85.7015H85.4182H85.1357H84.8542H84.5735H84.2938H84.015H83.737H83.46H83.1839H82.9087H82.6344H82.361H82.0885H81.8169H81.5462H81.2764H81.0075H80.7395H80.4725H80.2063H79.9411H79.6767H79.4133H79.1508H78.8892H78.6284H78.3686H78.1097H77.8518H77.5947H77.3385H77.0832H76.8289H76.5754H76.3229H76.0713H75.8206H75.5708H75.3219H75.0739H74.8268H74.5807H74.3354H74.0911H73.8476H73.6051H73.3635H73.1228H72.883H72.6441H72.4062H72.1691H71.933H71.6978H71.4635H71.2301H70.9976H70.766H70.5354H70.3056H70.0768H69.8489H69.6219H69.3958H69.1706H68.9464H68.723H68.5006H68.2791H68.0585H67.8388H67.6201H67.4022H67.1853H66.9693H66.7542H66.54H66.3268H66.1144H65.903H65.6925H65.4829H65.2742H65.0665H64.8596H64.6537H64.4487H64.2446H64.0415H63.8392H63.6379H63.4375H63.238H63.0394H62.8418H62.6451H62.4493H62.2544H62.0604H61.8674H61.6753H61.4841H61.2938H61.1044H60.916H60.7285H60.5419H60.3562H60.1715H59.9877H59.8048H59.6228H59.4417H59.2616H59.0824H58.9041H58.7268H58.5503H58.3748H58.2002H58.0266H57.8539H57.682H57.5112H57.3412H57.1722H57.0041H56.8369H56.6706H56.5053H56.3409H56.1774H56.0149H55.8532H55.6926H55.5328H55.3739H55.216H55.0591H54.903H54.7479H54.5937H54.4404H54.2881H54.1366H53.9862H53.8366H53.688H53.5403H53.3935H53.2477H53.1028H52.9588H52.8158H52.6737H52.5325H52.3922H52.2529H52.1145H51.9771H51.8405H51.7049H51.5703H51.4366H51.3038H51.1719H51.041H50.911H50.7819H50.6538H50.5266H50.4003H50.275H50.1506H50.0271H49.9046H49.783H49.6624H49.5426H49.4239H49.306H49.1891H49.0731H48.9581H48.844H48.7308H48.6186H48.5073H48.3969H48.2875H48.179H48.0714H47.9648H47.8592H47.7544H47.6506H47.5478H47.4458H47.3449H47.2448H47.1457H47.0476H46.9503H46.854H46.7587H46.6643H46.5708H46.4783H46.3867H46.2961H46.2064H46.1176H46.0298H45.9429H45.8569H45.7719H45.6879H45.6048H45.5226H45.4414H45.3611H45.2817H45.2033H45.1259H45.0494H44.9738H44.8992H44.8255H44.7527H44.6809H44.6101H44.5402H44.4712H44.4032H44.3361H44.27H44.2048H44.1406H44.0773H44.0149H43.9535H43.8931H43.8336H43.775H43.7174H43.6607H43.605H43.5502H43.4964H43.4435H43.3916H43.3406H43.2906H43.2415H43.1934H43.1462H43.1H43.0547H43.0103H42.9669H42.9245H42.883H42.8425H42.8029H42.7642H42.7266H42.6898H42.654H42.6192H42.5853H42.5524H42.5204Z" fill="#9ED6FF" stroke="black"/>
<path d="M307 163C307 163 259.049 163 202.313 163C143.747 163 113 163 113 163C113 116.507 148.742 52 202.313 52C255.885 52 307 116.507 307 163Z" fill="#78BFF3"/>
<path d="M223.523 162.5H223.502C223.64 141.782 232.328 117.128 247.456 97.599C262.702 77.9169 284.437 63.5 310.472 63.5C336.525 63.5 362.036 77.9361 381.051 97.64C399.92 117.192 412.3 141.833 412.498 162.5H412.492H412.459H412.425H412.39H412.354H412.317H412.279H412.24H412.199H412.158H412.116H412.073H412.029H411.984H411.938H411.891H411.842H411.793H411.743H411.692H411.64H411.587H411.533H411.478H411.422H411.365H411.307H411.248H411.188H411.127H411.065H411.002H410.938H410.874H410.808H410.741H410.673H410.605H410.535H410.465H410.393H410.321H410.247H410.173H410.097H410.021H409.944H409.866H409.787H409.707H409.626H409.544H409.461H409.377H409.292H409.207H409.12H409.033H408.944H408.855H408.765H408.674H408.582H408.489H408.395H408.3H408.204H408.107H408.01H407.911H407.812H407.712H407.611H407.509H407.406H407.302H407.197H407.091H406.985H406.877H406.769H406.66H406.55H406.439H406.327H406.214H406.101H405.986H405.871H405.755H405.638H405.52H405.401H405.281H405.161H405.039H404.917H404.794H404.67H404.545H404.419H404.293H404.166H404.037H403.908H403.778H403.648H403.516H403.384H403.25H403.116H402.981H402.846H402.709H402.572H402.433H402.294H402.154H402.014H401.872H401.73H401.587H401.443H401.298H401.152H401.006H400.859H400.711H400.562H400.412H400.262H400.11H399.958H399.806H399.652H399.498H399.342H399.186H399.03H398.872H398.714H398.555H398.395H398.234H398.073H397.91H397.747H397.584H397.419H397.254H397.088H396.921H396.753H396.585H396.416H396.246H396.075H395.904H395.732H395.559H395.385H395.211H395.035H394.86H394.683H394.506H394.327H394.149H393.969H393.789H393.608H393.426H393.243H393.06H392.876H392.692H392.506H392.32H392.133H391.946H391.757H391.568H391.379H391.188H390.997H390.805H390.613H390.42H390.226H390.031H389.836H389.64H389.443H389.246H389.047H388.849H388.649H388.449H388.248H388.047H387.844H387.642H387.438H387.234H387.029H386.823H386.617H386.41H386.202H385.994H385.785H385.576H385.365H385.155H384.943H384.731H384.518H384.304H384.09H383.875H383.66H383.444H383.227H383.01H382.792H382.573H382.354H382.134H381.913H381.692H381.47H381.248H381.025H380.801H380.577H380.352H380.126H379.9H379.673H379.446H379.218H378.989H378.76H378.53H378.3H378.069H377.837H377.605H377.372H377.138H376.904H376.67H376.434H376.199H375.962H375.725H375.488H375.25H375.011H374.771H374.532H374.291H374.05H373.808H373.566H373.323H373.08H372.836H372.592H372.347H372.101H371.855H371.608H371.361H371.113H370.865H370.616H370.367H370.117H369.866H369.615H369.363H369.111H368.858H368.605H368.351H368.097H367.842H367.587H367.331H367.075H366.818H366.56H366.302H366.044H365.785H365.525H365.265H365.004H364.743H364.482H364.22H363.957H363.694H363.43H363.166H362.902H362.636H362.371H362.105H361.838H361.571H361.303H361.035H360.767H360.498H360.228H359.958H359.688H359.417H359.145H358.874H358.601H358.328H358.055H357.781H357.507H357.232H356.957H356.682H356.406H356.129H355.852H355.575H355.297H355.018H354.74H354.46H354.181H353.901H353.62H353.339H353.058H352.776H352.494H352.211H351.928H351.644H351.36H351.076H350.791H350.505H350.22H349.934H349.647H349.36H349.073H348.785H348.497H348.208H347.919H347.63H347.34H347.05H346.759H346.468H346.177H345.885H345.593H345.3H345.007H344.714H344.42H344.126H343.832H343.537H343.241H342.946H342.65H342.353H342.057H341.76H341.462H341.164H340.866H340.567H340.268H339.969H339.669H339.369H339.069H338.768H338.467H338.166H337.864H337.562H337.259H336.956H336.653H336.35H336.046H335.742H335.437H335.132H334.827H334.522H334.216H333.91H333.603H333.297H332.989H332.682H332.374H332.066H331.758H331.449H331.14H330.831H330.521H330.211H329.901H329.59H329.28H328.968H328.657H328.345H328.033H327.721H327.408H327.096H326.782H326.469H326.155H325.841H325.527H325.212H324.897H324.582H324.267H323.951H323.635H323.319H323.003H322.686H322.369H322.052H321.734H321.416H321.098H320.78H320.462H320.143H319.824H319.505H319.185H318.865H318.545H318.225H317.905H317.584H317.263H316.942H316.62H316.299H315.977H315.655H315.332H315.01H314.687H314.364H314.041H313.717H313.394H313.07H312.746H312.422H312.097H311.772H311.448H311.122H310.797H310.472H310.136H309.801H309.466H309.132H308.799H308.466H308.134H307.803H307.472H307.142H306.813H306.484H306.155H305.828H305.501H305.174H304.848H304.523H304.199H303.875H303.552H303.229H302.907H302.586H302.265H301.945H301.625H301.306H300.988H300.67H300.353H300.037H299.721H299.406H299.092H298.778H298.464H298.152H297.84H297.529H297.218H296.908H296.598H296.289H295.981H295.674H295.367H295.06H294.755H294.45H294.145H293.841H293.538H293.236H292.934H292.632H292.332H292.032H291.732H291.434H291.136H290.838H290.541H290.245H289.949H289.654H289.36H289.066H288.773H288.481H288.189H287.898H287.607H287.317H287.028H286.74H286.452H286.164H285.877H285.591H285.306H285.021H284.737H284.453H284.17H283.888H283.606H283.325H283.045H282.765H282.486H282.208H281.93H281.653H281.376H281.1H280.825H280.55H280.276H280.003H279.73H279.458H279.186H278.915H278.645H278.376H278.107H277.838H277.571H277.304H277.037H276.771H276.506H276.242H275.978H275.715H275.452H275.19H274.929H274.668H274.408H274.149H273.89H273.632H273.375H273.118H272.862H272.606H272.351H272.097H271.843H271.59H271.338H271.086H270.835H270.585H270.335H270.086H269.838H269.59H269.342H269.096H268.85H268.605H268.36H268.116H267.873H267.63H267.388H267.147H266.906H266.666H266.426H266.187H265.949H265.711H265.475H265.238H265.003H264.768H264.533H264.3H264.067H263.834H263.602H263.371H263.141H262.911H262.682H262.453H262.225H261.998H261.771H261.545H261.32H261.095H260.871H260.648H260.425H260.203H259.982H259.761H259.541H259.321H259.103H258.884H258.667H258.45H258.234H258.018H257.803H257.589H257.375H257.162H256.95H256.738H256.527H256.316H256.107H255.898H255.689H255.481H255.274H255.068H254.862H254.656H254.452H254.248H254.045H253.842H253.64H253.439H253.238H253.038H252.839H252.64H252.442H252.244H252.048H251.852H251.656H251.461H251.267H251.074H250.881H250.689H250.497H250.306H250.116H249.926H249.737H249.549H249.361H249.174H248.988H248.802H248.617H248.433H248.249H248.066H247.884H247.702H247.521H247.341H247.161H246.982H246.803H246.625H246.448H246.272H246.096H245.921H245.746H245.572H245.399H245.226H245.054H244.883H244.713H244.543H244.373H244.205H244.037H243.869H243.703H243.537H243.371H243.207H243.043H242.879H242.717H242.555H242.393H242.232H242.072H241.913H241.754H241.596H241.439H241.282H241.126H240.97H240.816H240.661H240.508H240.355H240.203H240.051H239.901H239.75H239.601H239.452H239.304H239.156H239.009H238.863H238.718H238.573H238.428H238.285H238.142H238H237.858H237.717H237.577H237.437H237.298H237.16H237.023H236.886H236.749H236.614H236.479H236.345H236.211H236.078H235.946H235.814H235.683H235.553H235.423H235.294H235.166H235.038H234.911H234.785H234.659H234.534H234.41H234.286H234.163H234.041H233.919H233.798H233.678H233.558H233.439H233.321H233.203H233.086H232.97H232.854H232.74H232.625H232.512H232.399H232.286H232.175H232.064H231.953H231.844H231.735H231.626H231.519H231.412H231.306H231.2H231.095H230.991H230.887H230.784H230.682H230.58H230.479H230.379H230.279H230.18H230.082H229.985H229.888H229.791H229.696H229.601H229.507H229.413H229.32H229.228H229.137H229.046H228.955H228.866H228.777H228.689H228.601H228.515H228.428H228.343H228.258H228.174H228.09H228.008H227.926H227.844H227.763H227.683H227.604H227.525H227.447H227.37H227.293H227.217H227.141H227.067H226.993H226.919H226.847H226.775H226.703H226.633H226.563H226.493H226.425H226.357H226.29H226.223H226.157H226.092H226.027H225.963H225.9H225.838H225.776H225.715H225.654H225.594H225.535H225.477H225.419H225.362H225.305H225.25H225.195H225.14H225.087H225.033H224.981H224.929H224.878H224.828H224.779H224.73H224.681H224.634H224.587H224.541H224.495H224.45H224.406H224.362H224.32H224.277H224.236H224.195H224.155H224.116H224.077H224.039H224.002H223.965H223.929H223.894H223.859H223.825H223.792H223.759H223.727H223.696H223.665H223.636H223.606H223.578H223.55H223.523Z" fill="white" stroke="black"/>
<path d="M413 163C413 163 377.902 163 336.374 163C293.506 163 271 163 271 163C271 137.45 297.161 102 336.374 102C375.586 102 413 137.45 413 163Z" fill="#E1E1E1"/>
<path d="M0 162.5H413" stroke="black"/>
</g>
<defs>
<clipPath id="clip0_5_1523">
<rect width="413" height="163" fill="white"/>
</clipPath>
</defs>
</svg>
