<svg id="visual" viewBox="0 0 900 600" width="900" height="600" xmlns="http://www.w3.org/2000/svg" xmlns:xlink="http://www.w3.org/1999/xlink" version="1.1"><rect x="0" y="0" width="900" height="600" fill="#001220"></rect><path d="M0 178L12.5 177.5C25 177 50 176 75 167.5C100 159 125 143 150 143.8C175 144.7 200 162.3 225 161.2C250 160 275 140 300 137C325 134 350 148 375 157.5C400 167 425 172 450 167.7C475 163.3 500 149.7 525 154.5C550 159.3 575 182.7 600 184.3C625 186 650 166 675 153.8C700 141.7 725 137.3 750 132.3C775 127.3 800 121.7 825 119.8C850 118 875 120 887.5 121L900 122L900 0L887.5 0C875 0 850 0 825 0C800 0 775 0 750 0C725 0 700 0 675 0C650 0 625 0 600 0C575 0 550 0 525 0C500 0 475 0 450 0C425 0 400 0 375 0C350 0 325 0 300 0C275 0 250 0 225 0C200 0 175 0 150 0C125 0 100 0 75 0C50 0 25 0 12.5 0L0 0Z" fill="#2491c7"></path><path d="M0 138L12.5 134.3C25 130.7 50 123.3 75 121.2C100 119 125 122 150 122.2C175 122.3 200 119.7 225 119.7C250 119.7 275 122.3 300 131.7C325 141 350 157 375 158.3C400 159.7 425 146.3 450 136C475 125.7 500 118.3 525 118.7C550 119 575 127 600 136.5C625 146 650 157 675 163.8C700 170.7 725 173.3 750 165.2C775 157 800 138 825 126.8C850 115.7 875 112.3 887.5 110.7L900 109L900 0L887.5 0C875 0 850 0 825 0C800 0 775 0 750 0C725 0 700 0 675 0C650 0 625 0 600 0C575 0 550 0 525 0C500 0 475 0 450 0C425 0 400 0 375 0C350 0 325 0 300 0C275 0 250 0 225 0C200 0 175 0 150 0C125 0 100 0 75 0C50 0 25 0 12.5 0L0 0Z" fill="#3da0d2"></path><path d="M0 115L12.5 112.3C25 109.7 50 104.3 75 108.8C100 113.3 125 127.7 150 134.2C175 140.7 200 139.3 225 129.3C250 119.3 275 100.7 300 98.2C325 95.7 350 109.3 375 114.7C400 120 425 117 450 118.8C475 120.7 500 127.3 525 122.2C550 117 575 100 600 96.7C625 93.3 650 103.7 675 107C700 110.3 725 106.7 750 106.7C775 106.7 800 110.3 825 116C850 121.7 875 129.3 887.5 133.2L900 137L900 0L887.5 0C875 0 850 0 825 0C800 0 775 0 750 0C725 0 700 0 675 0C650 0 625 0 600 0C575 0 550 0 525 0C500 0 475 0 450 0C425 0 400 0 375 0C350 0 325 0 300 0C275 0 250 0 225 0C200 0 175 0 150 0C125 0 100 0 75 0C50 0 25 0 12.5 0L0 0Z" fill="#51afdd"></path><path d="M0 102L12.5 102.5C25 103 50 104 75 103C100 102 125 99 150 100.7C175 102.3 200 108.7 225 109.8C250 111 275 107 300 103C325 99 350 95 375 94C400 93 425 95 450 98C475 101 500 105 525 106.7C550 108.3 575 107.7 600 98.7C625 89.7 650 72.3 675 63.5C700 54.7 725 54.3 750 55.7C775 57 800 60 825 61.7C850 63.3 875 63.7 887.5 63.8L900 64L900 0L887.5 0C875 0 850 0 825 0C800 0 775 0 750 0C725 0 700 0 675 0C650 0 625 0 600 0C575 0 550 0 525 0C500 0 475 0 450 0C425 0 400 0 375 0C350 0 325 0 300 0C275 0 250 0 225 0C200 0 175 0 150 0C125 0 100 0 75 0C50 0 25 0 12.5 0L0 0Z" fill="#64bde9"></path><path d="M0 66L12.5 63C25 60 50 54 75 51.3C100 48.7 125 49.3 150 55C175 60.7 200 71.3 225 71.8C250 72.3 275 62.7 300 58C325 53.3 350 53.7 375 55.2C400 56.7 425 59.3 450 62.7C475 66 500 70 525 65.8C550 61.7 575 49.3 600 48.8C625 48.3 650 59.7 675 60.8C700 62 725 53 750 46.7C775 40.3 800 36.7 825 40.5C850 44.3 875 55.7 887.5 61.3L900 67L900 0L887.5 0C875 0 850 0 825 0C800 0 775 0 750 0C725 0 700 0 675 0C650 0 625 0 600 0C575 0 550 0 525 0C500 0 475 0 450 0C425 0 400 0 375 0C350 0 325 0 300 0C275 0 250 0 225 0C200 0 175 0 150 0C125 0 100 0 75 0C50 0 25 0 12.5 0L0 0Z" fill="#77ccf4"></path><path d="M0 48L12.5 43.7C25 39.3 50 30.7 75 25.5C100 20.3 125 18.7 150 21.5C175 24.3 200 31.7 225 37.5C250 43.3 275 47.7 300 48.7C325 49.7 350 47.3 375 44.2C400 41 425 37 450 32.2C475 27.3 500 21.7 525 19C550 16.3 575 16.7 600 19.2C625 21.7 650 26.3 675 30.2C700 34 725 37 750 37.3C775 37.7 800 35.3 825 32.5C850 29.7 875 26.3 887.5 24.7L900 23L900 0L887.5 0C875 0 850 0 825 0C800 0 775 0 750 0C725 0 700 0 675 0C650 0 625 0 600 0C575 0 550 0 525 0C500 0 475 0 450 0C425 0 400 0 375 0C350 0 325 0 300 0C275 0 250 0 225 0C200 0 175 0 150 0C125 0 100 0 75 0C50 0 25 0 12.5 0L0 0Z" fill="#89dbff"></path></svg>