<svg id="visual" viewBox="0 0 900 100" width="900" height="100" xmlns="http://www.w3.org/2000/svg" xmlns:xlink="http://www.w3.org/1999/xlink" version="1.1"><rect x="0" y="0" width="900" height="100" fill="#ffffff"></rect><path d="M0 52L18.8 57.3C37.7 62.7 75.3 73.3 112.8 79.8C150.3 86.3 187.7 88.7 225.2 79.3C262.7 70 300.3 49 337.8 46.2C375.3 43.3 412.7 58.7 450.2 61.2C487.7 63.7 525.3 53.3 562.8 45.3C600.3 37.3 637.7 31.7 675.2 28C712.7 24.3 750.3 22.7 787.8 33.3C825.3 44 862.7 67 881.3 78.5L900 90L900 101L881.3 101C862.7 101 825.3 101 787.8 101C750.3 101 712.7 101 675.2 101C637.7 101 600.3 101 562.8 101C525.3 101 487.7 101 450.2 101C412.7 101 375.3 101 337.8 101C300.3 101 262.7 101 225.2 101C187.7 101 150.3 101 112.8 101C75.3 101 37.7 101 18.8 101L0 101Z" fill="#68a8cd"></path><path d="M0 75L18.8 72.8C37.7 70.7 75.3 66.3 112.8 61.8C150.3 57.3 187.7 52.7 225.2 57.7C262.7 62.7 300.3 77.3 337.8 83.5C375.3 89.7 412.7 87.3 450.2 79.8C487.7 72.3 525.3 59.7 562.8 58C600.3 56.3 637.7 65.7 675.2 68.2C712.7 70.7 750.3 66.3 787.8 68.8C825.3 71.3 862.7 80.7 881.3 85.3L900 90L900 101L881.3 101C862.7 101 825.3 101 787.8 101C750.3 101 712.7 101 675.2 101C637.7 101 600.3 101 562.8 101C525.3 101 487.7 101 450.2 101C412.7 101 375.3 101 337.8 101C300.3 101 262.7 101 225.2 101C187.7 101 150.3 101 112.8 101C75.3 101 37.7 101 18.8 101L0 101Z" fill="#5a9cc3"></path><path d="M0 88L18.8 83.3C37.7 78.7 75.3 69.3 112.8 67.5C150.3 65.7 187.7 71.3 225.2 73.5C262.7 75.7 300.3 74.3 337.8 70.3C375.3 66.3 412.7 59.7 450.2 59.2C487.7 58.7 525.3 64.3 562.8 63.8C600.3 63.3 637.7 56.7 675.2 58C712.7 59.3 750.3 68.7 787.8 69.7C825.3 70.7 862.7 63.3 881.3 59.7L900 56L900 101L881.3 101C862.7 101 825.3 101 787.8 101C750.3 101 712.7 101 675.2 101C637.7 101 600.3 101 562.8 101C525.3 101 487.7 101 450.2 101C412.7 101 375.3 101 337.8 101C300.3 101 262.7 101 225.2 101C187.7 101 150.3 101 112.8 101C75.3 101 37.7 101 18.8 101L0 101Z" fill="#4c91b9"></path><path d="M0 61L18.8 62.5C37.7 64 75.3 67 112.8 72.3C150.3 77.7 187.7 85.3 225.2 89.2C262.7 93 300.3 93 337.8 87.7C375.3 82.3 412.7 71.7 450.2 70.7C487.7 69.7 525.3 78.3 562.8 79.3C600.3 80.3 637.7 73.7 675.2 73C712.7 72.3 750.3 77.7 787.8 80.7C825.3 83.7 862.7 84.3 881.3 84.7L900 85L900 101L881.3 101C862.7 101 825.3 101 787.8 101C750.3 101 712.7 101 675.2 101C637.7 101 600.3 101 562.8 101C525.3 101 487.7 101 450.2 101C412.7 101 375.3 101 337.8 101C300.3 101 262.7 101 225.2 101C187.7 101 150.3 101 112.8 101C75.3 101 37.7 101 18.8 101L0 101Z" fill="#3d85af"></path><path d="M0 93L18.8 92C37.7 91 75.3 89 112.8 88.2C150.3 87.3 187.7 87.7 225.2 88.7C262.7 89.7 300.3 91.3 337.8 91.2C375.3 91 412.7 89 450.2 86C487.7 83 525.3 79 562.8 80.7C600.3 82.3 637.7 89.7 675.2 92.3C712.7 95 750.3 93 787.8 93C825.3 93 862.7 95 881.3 96L900 97L900 101L881.3 101C862.7 101 825.3 101 787.8 101C750.3 101 712.7 101 675.2 101C637.7 101 600.3 101 562.8 101C525.3 101 487.7 101 450.2 101C412.7 101 375.3 101 337.8 101C300.3 101 262.7 101 225.2 101C187.7 101 150.3 101 112.8 101C75.3 101 37.7 101 18.8 101L0 101Z" fill="#2d7aa6"></path></svg>