<svg id="visual" viewBox="0 0 900 100" width="900" height="100" xmlns="http://www.w3.org/2000/svg" xmlns:xlink="http://www.w3.org/1999/xlink" version="1.1"><rect x="0" y="0" width="900" height="100" fill="#140021"></rect><path d="M0 23L60 23L60 40L120 40L120 63L180 63L180 59L240 59L240 50L300 50L300 46L360 46L360 56L420 56L420 43L480 43L480 34L540 34L540 64L600 64L600 65L660 65L660 48L720 48L720 36L780 36L780 45L840 45L840 47L900 47L900 41L900 0L900 0L840 0L840 0L780 0L780 0L720 0L720 0L660 0L660 0L600 0L600 0L540 0L540 0L480 0L480 0L420 0L420 0L360 0L360 0L300 0L300 0L240 0L240 0L180 0L180 0L120 0L120 0L60 0L60 0L0 0Z" fill="#89dbff"></path><path d="M0 51L60 51L60 41L120 41L120 32L180 32L180 23L240 23L240 41L300 41L300 51L360 51L360 19L420 19L420 41L480 41L480 47L540 47L540 24L600 24L600 40L660 40L660 40L720 40L720 19L780 19L780 15L840 15L840 34L900 34L900 23L900 0L900 0L840 0L840 0L780 0L780 0L720 0L720 0L660 0L660 0L600 0L600 0L540 0L540 0L480 0L480 0L420 0L420 0L360 0L360 0L300 0L300 0L240 0L240 0L180 0L180 0L120 0L120 0L60 0L60 0L0 0Z" fill="#6bc2ec"></path><path d="M0 17L60 17L60 24L120 24L120 13L180 13L180 18L240 18L240 21L300 21L300 30L360 30L360 28L420 28L420 16L480 16L480 23L540 23L540 23L600 23L600 10L660 10L660 8L720 8L720 39L780 39L780 22L840 22L840 21L900 21L900 23L900 0L900 0L840 0L840 0L780 0L780 0L720 0L720 0L660 0L660 0L600 0L600 0L540 0L540 0L480 0L480 0L420 0L420 0L360 0L360 0L300 0L300 0L240 0L240 0L180 0L180 0L120 0L120 0L60 0L60 0L0 0Z" fill="#4baada"></path><path d="M0 14L60 14L60 4L120 4L120 6L180 6L180 5L240 5L240 2L300 2L300 13L360 13L360 18L420 18L420 18L480 18L480 18L540 18L540 11L600 11L600 12L660 12L660 5L720 5L720 4L780 4L780 20L840 20L840 16L900 16L900 18L900 0L900 0L840 0L840 0L780 0L780 0L720 0L720 0L660 0L660 0L600 0L600 0L540 0L540 0L480 0L480 0L420 0L420 0L360 0L360 0L300 0L300 0L240 0L240 0L180 0L180 0L120 0L120 0L60 0L60 0L0 0Z" fill="#2491c7"></path></svg>