<svg id="visual" viewBox="0 0 900 450" width="900" height="450" xmlns="http://www.w3.org/2000/svg" xmlns:xlink="http://www.w3.org/1999/xlink" version="1.1"><rect x="0" y="0" width="900" height="450" fill="#ffffff"></rect><path d="M0 157L8.8 156.7C17.7 156.3 35.3 155.7 53 155.8C70.7 156 88.3 157 106 153.2C123.7 149.3 141.3 140.7 159 135.2C176.7 129.7 194.3 127.3 212 125.2C229.7 123 247.3 121 265 127.5C282.7 134 300.3 149 318 149.5C335.7 150 353.3 136 371 130.8C388.7 125.7 406.3 129.3 423.8 133.5C441.3 137.7 458.7 142.3 476.2 145.5C493.7 148.7 511.3 150.3 529 143.2C546.7 136 564.3 120 582 113.3C599.7 106.7 617.3 109.3 635 111.7C652.7 114 670.3 116 688 117.2C705.7 118.3 723.3 118.7 741 122.3C758.7 126 776.3 133 794 134.3C811.7 135.7 829.3 131.3 847 135.5C864.7 139.7 882.3 152.3 891.2 158.7L900 165L900 0L891.2 0C882.3 0 864.7 0 847 0C829.3 0 811.7 0 794 0C776.3 0 758.7 0 741 0C723.3 0 705.7 0 688 0C670.3 0 652.7 0 635 0C617.3 0 599.7 0 582 0C564.3 0 546.7 0 529 0C511.3 0 493.7 0 476.2 0C458.7 0 441.3 0 423.8 0C406.3 0 388.7 0 371 0C353.3 0 335.7 0 318 0C300.3 0 282.7 0 265 0C247.3 0 229.7 0 212 0C194.3 0 176.7 0 159 0C141.3 0 123.7 0 106 0C88.3 0 70.7 0 53 0C35.3 0 17.7 0 8.8 0L0 0Z" fill="#89dbff"></path><path d="M0 139L8.8 132.7C17.7 126.3 35.3 113.7 53 107.8C70.7 102 88.3 103 106 102.2C123.7 101.3 141.3 98.7 159 95.3C176.7 92 194.3 88 212 87.7C229.7 87.3 247.3 90.7 265 96.7C282.7 102.7 300.3 111.3 318 117.5C335.7 123.7 353.3 127.3 371 124.2C388.7 121 406.3 111 423.8 112.2C441.3 113.3 458.7 125.7 476.2 129C493.7 132.3 511.3 126.7 529 117C546.7 107.3 564.3 93.7 582 91.3C599.7 89 617.3 98 635 99.2C652.7 100.3 670.3 93.7 688 98C705.7 102.3 723.3 117.7 741 121.7C758.7 125.7 776.3 118.3 794 119C811.7 119.7 829.3 128.3 847 130C864.7 131.7 882.3 126.3 891.2 123.7L900 121L900 0L891.2 0C882.3 0 864.7 0 847 0C829.3 0 811.7 0 794 0C776.3 0 758.7 0 741 0C723.3 0 705.7 0 688 0C670.3 0 652.7 0 635 0C617.3 0 599.7 0 582 0C564.3 0 546.7 0 529 0C511.3 0 493.7 0 476.2 0C458.7 0 441.3 0 423.8 0C406.3 0 388.7 0 371 0C353.3 0 335.7 0 318 0C300.3 0 282.7 0 265 0C247.3 0 229.7 0 212 0C194.3 0 176.7 0 159 0C141.3 0 123.7 0 106 0C88.3 0 70.7 0 53 0C35.3 0 17.7 0 8.8 0L0 0Z" fill="#72c8f1"></path><path d="M0 110L8.8 106.8C17.7 103.7 35.3 97.3 53 95.5C70.7 93.7 88.3 96.3 106 93.5C123.7 90.7 141.3 82.3 159 76.5C176.7 70.7 194.3 67.3 212 65.5C229.7 63.7 247.3 63.3 265 63.8C282.7 64.3 300.3 65.7 318 73.7C335.7 81.7 353.3 96.3 371 101.3C388.7 106.3 406.3 101.7 423.8 96.5C441.3 91.3 458.7 85.7 476.2 82C493.7 78.3 511.3 76.7 529 81C546.7 85.3 564.3 95.7 582 96.5C599.7 97.3 617.3 88.7 635 85.5C652.7 82.3 670.3 84.7 688 88C705.7 91.3 723.3 95.7 741 95.8C758.7 96 776.3 92 794 93.2C811.7 94.3 829.3 100.7 847 104C864.7 107.3 882.3 107.7 891.2 107.8L900 108L900 0L891.2 0C882.3 0 864.7 0 847 0C829.3 0 811.7 0 794 0C776.3 0 758.7 0 741 0C723.3 0 705.7 0 688 0C670.3 0 652.7 0 635 0C617.3 0 599.7 0 582 0C564.3 0 546.7 0 529 0C511.3 0 493.7 0 476.2 0C458.7 0 441.3 0 423.8 0C406.3 0 388.7 0 371 0C353.3 0 335.7 0 318 0C300.3 0 282.7 0 265 0C247.3 0 229.7 0 212 0C194.3 0 176.7 0 159 0C141.3 0 123.7 0 106 0C88.3 0 70.7 0 53 0C35.3 0 17.7 0 8.8 0L0 0Z" fill="#5bb6e3"></path><path d="M0 31L8.8 38C17.7 45 35.3 59 53 67C70.7 75 88.3 77 106 75C123.7 73 141.3 67 159 66.7C176.7 66.3 194.3 71.7 212 68.8C229.7 66 247.3 55 265 49.2C282.7 43.3 300.3 42.7 318 48.5C335.7 54.3 353.3 66.7 371 73C388.7 79.3 406.3 79.7 423.8 78.7C441.3 77.7 458.7 75.3 476.2 69.7C493.7 64 511.3 55 529 49.5C546.7 44 564.3 42 582 40.5C599.7 39 617.3 38 635 38.5C652.7 39 670.3 41 688 44.7C705.7 48.3 723.3 53.7 741 57.7C758.7 61.7 776.3 64.3 794 59.8C811.7 55.3 829.3 43.7 847 38.3C864.7 33 882.3 34 891.2 34.5L900 35L900 0L891.2 0C882.3 0 864.7 0 847 0C829.3 0 811.7 0 794 0C776.3 0 758.7 0 741 0C723.3 0 705.7 0 688 0C670.3 0 652.7 0 635 0C617.3 0 599.7 0 582 0C564.3 0 546.7 0 529 0C511.3 0 493.7 0 476.2 0C458.7 0 441.3 0 423.8 0C406.3 0 388.7 0 371 0C353.3 0 335.7 0 318 0C300.3 0 282.7 0 265 0C247.3 0 229.7 0 212 0C194.3 0 176.7 0 159 0C141.3 0 123.7 0 106 0C88.3 0 70.7 0 53 0C35.3 0 17.7 0 8.8 0L0 0Z" fill="#42a3d5"></path><path d="M0 43L8.8 43.2C17.7 43.3 35.3 43.7 53 40.5C70.7 37.3 88.3 30.7 106 29.2C123.7 27.7 141.3 31.3 159 34.3C176.7 37.3 194.3 39.7 212 41C229.7 42.3 247.3 42.7 265 42.5C282.7 42.3 300.3 41.7 318 41.3C335.7 41 353.3 41 371 36.3C388.7 31.7 406.3 22.3 423.8 23.5C441.3 24.7 458.7 36.3 476.2 37.8C493.7 39.3 511.3 30.7 529 26.5C546.7 22.3 564.3 22.7 582 23.8C599.7 25 617.3 27 635 32C652.7 37 670.3 45 688 47.3C705.7 49.7 723.3 46.3 741 44.3C758.7 42.3 776.3 41.7 794 40.3C811.7 39 829.3 37 847 31.3C864.7 25.7 882.3 16.3 891.2 11.7L900 7L900 0L891.2 0C882.3 0 864.7 0 847 0C829.3 0 811.7 0 794 0C776.3 0 758.7 0 741 0C723.3 0 705.7 0 688 0C670.3 0 652.7 0 635 0C617.3 0 599.7 0 582 0C564.3 0 546.7 0 529 0C511.3 0 493.7 0 476.2 0C458.7 0 441.3 0 423.8 0C406.3 0 388.7 0 371 0C353.3 0 335.7 0 318 0C300.3 0 282.7 0 265 0C247.3 0 229.7 0 212 0C194.3 0 176.7 0 159 0C141.3 0 123.7 0 106 0C88.3 0 70.7 0 53 0C35.3 0 17.7 0 8.8 0L0 0Z" fill="#2491c7"></path></svg>