<svg id="visual" viewBox="0 0 900 600" width="900" height="600" xmlns="http://www.w3.org/2000/svg" xmlns:xlink="http://www.w3.org/1999/xlink" version="1.1"><rect x="0" y="0" width="900" height="600" fill="#ffffff"></rect><path d="M0 268L12.5 267.2C25 266.3 50 264.7 75 252C100 239.3 125 215.7 150 217C175 218.3 200 244.7 225 242.7C250 240.7 275 210.3 300 205.8C325 201.3 350 222.7 375 237.2C400 251.7 425 259.3 450 252.7C475 246 500 225 525 232C550 239 575 274 600 276.7C625 279.3 650 249.7 675 231.7C700 213.7 725 207.3 750 199.8C775 192.3 800 183.7 825 180.8C850 178 875 181 887.5 182.5L900 184L900 0L887.5 0C875 0 850 0 825 0C800 0 775 0 750 0C725 0 700 0 675 0C650 0 625 0 600 0C575 0 550 0 525 0C500 0 475 0 450 0C425 0 400 0 375 0C350 0 325 0 300 0C275 0 250 0 225 0C200 0 175 0 150 0C125 0 100 0 75 0C50 0 25 0 12.5 0L0 0Z" fill="#2491c7"></path><path d="M0 207L12.5 201.7C25 196.3 50 185.7 75 182.5C100 179.3 125 183.7 150 183.8C175 184 200 180 225 180C250 180 275 184 300 198C325 212 350 236 375 238C400 240 425 220 450 204.3C475 188.7 500 177.3 525 178C550 178.7 575 191.3 600 205.7C625 220 650 236 675 246C700 256 725 260 750 247.8C775 235.7 800 207.3 825 190.7C850 174 875 169 887.5 166.5L900 164L900 0L887.5 0C875 0 850 0 825 0C800 0 775 0 750 0C725 0 700 0 675 0C650 0 625 0 600 0C575 0 550 0 525 0C500 0 475 0 450 0C425 0 400 0 375 0C350 0 325 0 300 0C275 0 250 0 225 0C200 0 175 0 150 0C125 0 100 0 75 0C50 0 25 0 12.5 0L0 0Z" fill="#3da0d2"></path><path d="M0 172L12.5 168.2C25 164.3 50 156.7 75 163.7C100 170.7 125 192.3 150 202.2C175 212 200 210 225 195C250 180 275 152 300 148C325 144 350 164 375 171.8C400 179.7 425 175.3 450 178.3C475 181.3 500 191.7 525 184.2C550 176.7 575 151.3 600 146.2C625 141 650 156 675 160.8C700 165.7 725 160.3 750 160.5C775 160.7 800 166.3 825 174.8C850 183.3 875 194.7 887.5 200.3L900 206L900 0L887.5 0C875 0 850 0 825 0C800 0 775 0 750 0C725 0 700 0 675 0C650 0 625 0 600 0C575 0 550 0 525 0C500 0 475 0 450 0C425 0 400 0 375 0C350 0 325 0 300 0C275 0 250 0 225 0C200 0 175 0 150 0C125 0 100 0 75 0C50 0 25 0 12.5 0L0 0Z" fill="#51afdd"></path><path d="M0 154L12.5 154.7C25 155.3 50 156.7 75 155.2C100 153.7 125 149.3 150 152C175 154.7 200 164.3 225 165.8C250 167.3 275 160.7 300 154.5C325 148.3 350 142.7 375 141.5C400 140.3 425 143.7 450 148.2C475 152.7 500 158.3 525 160.7C550 163 575 162 600 148.5C625 135 650 109 675 95.8C700 82.7 725 82.3 750 84.5C775 86.7 800 91.3 825 93.8C850 96.3 875 96.7 887.5 96.8L900 97L900 0L887.5 0C875 0 850 0 825 0C800 0 775 0 750 0C725 0 700 0 675 0C650 0 625 0 600 0C575 0 550 0 525 0C500 0 475 0 450 0C425 0 400 0 375 0C350 0 325 0 300 0C275 0 250 0 225 0C200 0 175 0 150 0C125 0 100 0 75 0C50 0 25 0 12.5 0L0 0Z" fill="#64bde9"></path><path d="M0 100L12.5 95.3C25 90.7 50 81.3 75 77.3C100 73.3 125 74.7 150 83.3C175 92 200 108 225 108.7C250 109.3 275 94.7 300 87.7C325 80.7 350 81.3 375 83.7C400 86 425 90 450 95C475 100 500 106 525 99.5C550 93 575 74 600 73C625 72 650 89 675 90.8C700 92.7 725 79.3 750 70C775 60.7 800 55.3 825 61.2C850 67 875 84 887.5 92.5L900 101L900 0L887.5 0C875 0 850 0 825 0C800 0 775 0 750 0C725 0 700 0 675 0C650 0 625 0 600 0C575 0 550 0 525 0C500 0 475 0 450 0C425 0 400 0 375 0C350 0 325 0 300 0C275 0 250 0 225 0C200 0 175 0 150 0C125 0 100 0 75 0C50 0 25 0 12.5 0L0 0Z" fill="#77ccf4"></path><path d="M0 72L12.5 65.7C25 59.3 50 46.7 75 39C100 31.3 125 28.7 150 32.8C175 37 200 48 225 56.7C250 65.3 275 71.7 300 73.3C325 75 350 72 375 67.3C400 62.7 425 56.3 450 49C475 41.7 500 33.3 525 29.3C550 25.3 575 25.7 600 29.3C625 33 650 40 675 45.7C700 51.3 725 55.7 750 56.2C775 56.7 800 53.3 825 49.2C850 45 875 40 887.5 37.5L900 35L900 0L887.5 0C875 0 850 0 825 0C800 0 775 0 750 0C725 0 700 0 675 0C650 0 625 0 600 0C575 0 550 0 525 0C500 0 475 0 450 0C425 0 400 0 375 0C350 0 325 0 300 0C275 0 250 0 225 0C200 0 175 0 150 0C125 0 100 0 75 0C50 0 25 0 12.5 0L0 0Z" fill="#89dbff"></path></svg>