<svg id="visual" viewBox="0 0 900 450" width="900" height="450" xmlns="http://www.w3.org/2000/svg" xmlns:xlink="http://www.w3.org/1999/xlink" version="1.1"><rect x="0" y="0" width="900" height="450" fill="#ffffff"></rect><path d="M0 200L12.5 199.5C25 199 50 198 75 188.7C100 179.3 125 161.7 150 162.7C175 163.7 200 183.3 225 181.8C250 180.3 275 157.7 300 154.3C325 151 350 167 375 177.8C400 188.7 425 194.3 450 189.3C475 184.3 500 168.7 525 174C550 179.3 575 205.7 600 207.5C625 209.3 650 186.7 675 173C700 159.3 725 154.7 750 149.2C775 143.7 800 137.3 825 135.3C850 133.3 875 135.7 887.5 136.8L900 138L900 0L887.5 0C875 0 850 0 825 0C800 0 775 0 750 0C725 0 700 0 675 0C650 0 625 0 600 0C575 0 550 0 525 0C500 0 475 0 450 0C425 0 400 0 375 0C350 0 325 0 300 0C275 0 250 0 225 0C200 0 175 0 150 0C125 0 100 0 75 0C50 0 25 0 12.5 0L0 0Z" fill="#2491c7"></path><path d="M0 155L12.5 151C25 147 50 139 75 136.5C100 134 125 137 150 137.2C175 137.3 200 134.7 225 134.8C250 135 275 138 300 148.5C325 159 350 177 375 178.5C400 180 425 165 450 153.3C475 141.7 500 133.3 525 133.8C550 134.3 575 143.7 600 154.3C625 165 650 177 675 184.5C700 192 725 195 750 185.8C775 176.7 800 155.3 825 142.8C850 130.3 875 126.7 887.5 124.8L900 123L900 0L887.5 0C875 0 850 0 825 0C800 0 775 0 750 0C725 0 700 0 675 0C650 0 625 0 600 0C575 0 550 0 525 0C500 0 475 0 450 0C425 0 400 0 375 0C350 0 325 0 300 0C275 0 250 0 225 0C200 0 175 0 150 0C125 0 100 0 75 0C50 0 25 0 12.5 0L0 0Z" fill="#3da0d2"></path><path d="M0 129L12.5 126C25 123 50 117 75 122.2C100 127.3 125 143.7 150 151.2C175 158.7 200 157.3 225 146.2C250 135 275 114 300 111C325 108 350 123 375 128.8C400 134.7 425 131.3 450 133.5C475 135.7 500 143.3 525 137.7C550 132 575 113 600 109.2C625 105.3 650 116.7 675 120.3C700 124 725 120 750 120.2C775 120.3 800 124.7 825 131C850 137.3 875 145.7 887.5 149.8L900 154L900 0L887.5 0C875 0 850 0 825 0C800 0 775 0 750 0C725 0 700 0 675 0C650 0 625 0 600 0C575 0 550 0 525 0C500 0 475 0 450 0C425 0 400 0 375 0C350 0 325 0 300 0C275 0 250 0 225 0C200 0 175 0 150 0C125 0 100 0 75 0C50 0 25 0 12.5 0L0 0Z" fill="#51afdd"></path><path d="M0 115L12.5 115.5C25 116 50 117 75 116C100 115 125 112 150 114C175 116 200 123 225 124C250 125 275 120 300 115.5C325 111 350 107 375 106.2C400 105.3 425 107.7 450 111C475 114.3 500 118.7 525 120.3C550 122 575 121 600 110.8C625 100.7 650 81.3 675 71.5C700 61.7 725 61.3 750 63C775 64.7 800 68.3 825 70.2C850 72 875 72 887.5 72L900 72L900 0L887.5 0C875 0 850 0 825 0C800 0 775 0 750 0C725 0 700 0 675 0C650 0 625 0 600 0C575 0 550 0 525 0C500 0 475 0 450 0C425 0 400 0 375 0C350 0 325 0 300 0C275 0 250 0 225 0C200 0 175 0 150 0C125 0 100 0 75 0C50 0 25 0 12.5 0L0 0Z" fill="#64bde9"></path><path d="M0 75L12.5 71.5C25 68 50 61 75 58C100 55 125 56 150 62.5C175 69 200 81 225 81.5C250 82 275 71 300 65.7C325 60.3 350 60.7 375 62.3C400 64 425 67 450 70.8C475 74.7 500 79.3 525 74.5C550 69.7 575 55.3 600 54.7C625 54 650 67 675 68.3C700 69.7 725 59.3 750 52.3C775 45.3 800 41.7 825 46.2C850 50.7 875 63.3 887.5 69.7L900 76L900 0L887.5 0C875 0 850 0 825 0C800 0 775 0 750 0C725 0 700 0 675 0C650 0 625 0 600 0C575 0 550 0 525 0C500 0 475 0 450 0C425 0 400 0 375 0C350 0 325 0 300 0C275 0 250 0 225 0C200 0 175 0 150 0C125 0 100 0 75 0C50 0 25 0 12.5 0L0 0Z" fill="#77ccf4"></path><path d="M0 54L12.5 49.2C25 44.3 50 34.7 75 28.8C100 23 125 21 150 24.2C175 27.3 200 35.7 225 42.2C250 48.7 275 53.3 300 54.5C325 55.7 350 53.3 375 49.8C400 46.3 425 41.7 450 36.2C475 30.7 500 24.3 525 21.3C550 18.3 575 18.7 600 21.5C625 24.3 650 29.7 675 34C700 38.3 725 41.7 750 42.2C775 42.7 800 40.3 825 37.2C850 34 875 30 887.5 28L900 26L900 0L887.5 0C875 0 850 0 825 0C800 0 775 0 750 0C725 0 700 0 675 0C650 0 625 0 600 0C575 0 550 0 525 0C500 0 475 0 450 0C425 0 400 0 375 0C350 0 325 0 300 0C275 0 250 0 225 0C200 0 175 0 150 0C125 0 100 0 75 0C50 0 25 0 12.5 0L0 0Z" fill="#89dbff"></path></svg>