<svg id="visual" viewBox="0 0 900 100" width="900" height="100" xmlns="http://www.w3.org/2000/svg" xmlns:xlink="http://www.w3.org/1999/xlink" version="1.1"><rect x="0" y="0" width="900" height="100" fill="#fff"></rect><path d="M0 30L60 30L60 52L120 52L120 81L180 81L180 76L240 76L240 65L300 65L300 60L360 60L360 72L420 72L420 56L480 56L480 44L540 44L540 82L600 82L600 84L660 84L660 62L720 62L720 47L780 47L780 58L840 58L840 61L900 61L900 53L900 0L900 0L840 0L840 0L780 0L780 0L720 0L720 0L660 0L660 0L600 0L600 0L540 0L540 0L480 0L480 0L420 0L420 0L360 0L360 0L300 0L300 0L240 0L240 0L180 0L180 0L120 0L120 0L60 0L60 0L0 0Z" fill="#89dbff"></path><path d="M0 66L60 66L60 53L120 53L120 41L180 41L180 30L240 30L240 53L300 53L300 66L360 66L360 24L420 24L420 53L480 53L480 61L540 61L540 31L600 31L600 51L660 51L660 51L720 51L720 24L780 24L780 20L840 20L840 44L900 44L900 30L900 0L900 0L840 0L840 0L780 0L780 0L720 0L720 0L660 0L660 0L600 0L600 0L540 0L540 0L480 0L480 0L420 0L420 0L360 0L360 0L300 0L300 0L240 0L240 0L180 0L180 0L120 0L120 0L60 0L60 0L0 0Z" fill="#6bc2ec"></path><path d="M0 22L60 22L60 31L120 31L120 17L180 17L180 23L240 23L240 27L300 27L300 38L360 38L360 36L420 36L420 21L480 21L480 30L540 30L540 30L600 30L600 13L660 13L660 11L720 11L720 50L780 50L780 28L840 28L840 27L900 27L900 30L900 0L900 0L840 0L840 0L780 0L780 0L720 0L720 0L660 0L660 0L600 0L600 0L540 0L540 0L480 0L480 0L420 0L420 0L360 0L360 0L300 0L300 0L240 0L240 0L180 0L180 0L120 0L120 0L60 0L60 0L0 0Z" fill="#4baada"></path><path d="M0 18L60 18L60 5L120 5L120 7L180 7L180 7L240 7L240 3L300 3L300 17L360 17L360 24L420 24L420 24L480 24L480 23L540 23L540 14L600 14L600 16L660 16L660 6L720 6L720 6L780 6L780 26L840 26L840 21L900 21L900 24L900 0L900 0L840 0L840 0L780 0L780 0L720 0L720 0L660 0L660 0L600 0L600 0L540 0L540 0L480 0L480 0L420 0L420 0L360 0L360 0L300 0L300 0L240 0L240 0L180 0L180 0L120 0L120 0L60 0L60 0L0 0Z" fill="#2491c7"></path></svg>