<svg width="550" height="217" viewBox="0 0 550 217" fill="none" xmlns="http://www.w3.org/2000/svg">
<g clip-path="url(#clip0_5_1319)">
<path d="M31.842 45.4756C33.5462 42.1165 36.9933 40 40.76 40H87V179H6V120.328C6 104.606 9.70713 89.1053 16.8205 75.0843L31.842 45.4756Z" fill="#54A7E3"/>
<path d="M320 162H91V203H320V162Z" fill="#252525"/>
<path d="M320 162H512.5L523 168.563V190.438H460.766C459.598 190.438 458.438 190.642 457.341 191.042L441.83 196.698C441.281 196.898 440.701 197 440.117 197H320V162Z" fill="#252525"/>
<path d="M6 179H50V197H6V179Z" fill="#30719F"/>
<mask id="mask0_5_1319" style="mask-type:luminance" maskUnits="userSpaceOnUse" x="6" y="179" width="44" height="18">
<path d="M6 179H50V197H6V179Z" fill="white"/>
</mask>
<g mask="url(#mask0_5_1319)">
<path d="M6 180H50V178H6V180Z" fill="#252525"/>
</g>
<path d="M85 157H6V168H85V157Z" fill="#6DBFFB"/>
<path d="M85 40H105C107.761 40 110 42.2386 110 45V174H85V40Z" fill="#4095D2"/>
<path d="M85.5 40V168" stroke="black"/>
<path d="M69.5 217C84.6878 217 97 204.688 97 189.5C97 174.312 84.6878 162 69.5 162C54.3122 162 42 174.312 42 189.5C42 204.688 54.3122 217 69.5 217Z" fill="#11425C"/>
<path d="M69.5 215C83.5833 215 95 203.583 95 189.5C95 175.417 83.5833 164 69.5 164C55.4167 164 44 175.417 44 189.5C44 203.583 55.4167 215 69.5 215Z" fill="#4687B7"/>
<path d="M95 189.5C95 205.245 83.6941 215 69.7476 215C55.801 215 44 203.807 44 189.5C68.2621 189.5 55.801 189.5 69.7476 189.5C83.6941 189.5 95 189.5 95 189.5Z" fill="#11425C"/>
<path d="M69.5 211C81.3741 211 91 201.374 91 189.5C91 177.626 81.3741 168 69.5 168C57.6259 168 48 177.626 48 189.5C48 201.374 57.6259 211 69.5 211Z" fill="#166591"/>
<path d="M91 189.5C91 201.374 81.3741 211 69.5 211C57.6259 211 48 201.374 48 189.5C48 189.5 57.6259 189.5 69.5 189.5C81.3741 189.5 91 189.5 91 189.5Z" fill="#092838"/>
<path d="M69.5 205C78.0604 205 85 198.06 85 189.5C85 180.94 78.0604 174 69.5 174C60.9396 174 54 180.94 54 189.5C54 198.06 60.9396 205 69.5 205Z" fill="#4687B7"/>
<path d="M69.5 199C74.7467 199 79 194.747 79 189.5C79 184.253 74.7467 180 69.5 180C64.2533 180 60 184.253 60 189.5C60 194.747 64.2533 199 69.5 199Z" fill="#447DB1"/>
<path d="M69.5 179C70.3284 179 71 178.328 71 177.5C71 176.672 70.3284 176 69.5 176C68.6716 176 68 176.672 68 177.5C68 178.328 68.6716 179 69.5 179Z" fill="#242424"/>
<path d="M69.5 179C70.3284 179 71 178.328 71 177.5C71 176.672 70.3284 176 69.5 176C68.6716 176 68 176.672 68 177.5C68 178.328 68.6716 179 69.5 179Z" fill="#242424"/>
<path d="M69.5 179C70.3284 179 71 178.328 71 177.5C71 176.672 70.3284 176 69.5 176C68.6716 176 68 176.672 68 177.5C68 178.328 68.6716 179 69.5 179Z" fill="#242424"/>
<path d="M69.5 179C70.3284 179 71 178.328 71 177.5C71 176.672 70.3284 176 69.5 176C68.6716 176 68 176.672 68 177.5C68 178.328 68.6716 179 69.5 179Z" fill="#242424"/>
<path d="M57.5 191C58.3284 191 59 190.328 59 189.5C59 188.672 58.3284 188 57.5 188C56.6716 188 56 188.672 56 189.5C56 190.328 56.6716 191 57.5 191Z" fill="#242424"/>
<path d="M57.5 191C58.3284 191 59 190.328 59 189.5C59 188.672 58.3284 188 57.5 188C56.6716 188 56 188.672 56 189.5C56 190.328 56.6716 191 57.5 191Z" fill="#242424"/>
<path d="M57.5 191C58.3284 191 59 190.328 59 189.5C59 188.672 58.3284 188 57.5 188C56.6716 188 56 188.672 56 189.5C56 190.328 56.6716 191 57.5 191Z" fill="#242424"/>
<path d="M57.5 191C58.3284 191 59 190.328 59 189.5C59 188.672 58.3284 188 57.5 188C56.6716 188 56 188.672 56 189.5C56 190.328 56.6716 191 57.5 191Z" fill="#242424"/>
<path d="M81.5 191C82.3284 191 83 190.328 83 189.5C83 188.672 82.3284 188 81.5 188C80.6716 188 80 188.672 80 189.5C80 190.328 80.6716 191 81.5 191Z" fill="#242424"/>
<path d="M81.5 191C82.3284 191 83 190.328 83 189.5C83 188.672 82.3284 188 81.5 188C80.6716 188 80 188.672 80 189.5C80 190.328 80.6716 191 81.5 191Z" fill="#242424"/>
<path d="M81.5 191C82.3284 191 83 190.328 83 189.5C83 188.672 82.3284 188 81.5 188C80.6716 188 80 188.672 80 189.5C80 190.328 80.6716 191 81.5 191Z" fill="#242424"/>
<path d="M81.5 191C82.3284 191 83 190.328 83 189.5C83 188.672 82.3284 188 81.5 188C80.6716 188 80 188.672 80 189.5C80 190.328 80.6716 191 81.5 191Z" fill="#242424"/>
<path d="M69.5 203C70.3284 203 71 202.328 71 201.5C71 200.672 70.3284 200 69.5 200C68.6716 200 68 200.672 68 201.5C68 202.328 68.6716 203 69.5 203Z" fill="#242424"/>
<path d="M69.5 203C70.3284 203 71 202.328 71 201.5C71 200.672 70.3284 200 69.5 200C68.6716 200 68 200.672 68 201.5C68 202.328 68.6716 203 69.5 203Z" fill="#242424"/>
<path d="M69.5 203C70.3284 203 71 202.328 71 201.5C71 200.672 70.3284 200 69.5 200C68.6716 200 68 200.672 68 201.5C68 202.328 68.6716 203 69.5 203Z" fill="#242424"/>
<path d="M69.5 203C70.3284 203 71 202.328 71 201.5C71 200.672 70.3284 200 69.5 200C68.6716 200 68 200.672 68 201.5C68 202.328 68.6716 203 69.5 203Z" fill="#242424"/>
<path d="M77.5 199C78.3284 199 79 198.328 79 197.5C79 196.672 78.3284 196 77.5 196C76.6716 196 76 196.672 76 197.5C76 198.328 76.6716 199 77.5 199Z" fill="#242424"/>
<path d="M77.5 199C78.3284 199 79 198.328 79 197.5C79 196.672 78.3284 196 77.5 196C76.6716 196 76 196.672 76 197.5C76 198.328 76.6716 199 77.5 199Z" fill="#242424"/>
<path d="M77.5 199C78.3284 199 79 198.328 79 197.5C79 196.672 78.3284 196 77.5 196C76.6716 196 76 196.672 76 197.5C76 198.328 76.6716 199 77.5 199Z" fill="#242424"/>
<path d="M77.5 199C78.3284 199 79 198.328 79 197.5C79 196.672 78.3284 196 77.5 196C76.6716 196 76 196.672 76 197.5C76 198.328 76.6716 199 77.5 199Z" fill="#242424"/>
<path d="M77.5 183C78.3284 183 79 182.328 79 181.5C79 180.672 78.3284 180 77.5 180C76.6716 180 76 180.672 76 181.5C76 182.328 76.6716 183 77.5 183Z" fill="#242424"/>
<path d="M77.5 183C78.3284 183 79 182.328 79 181.5C79 180.672 78.3284 180 77.5 180C76.6716 180 76 180.672 76 181.5C76 182.328 76.6716 183 77.5 183Z" fill="#242424"/>
<path d="M77.5 183C78.3284 183 79 182.328 79 181.5C79 180.672 78.3284 180 77.5 180C76.6716 180 76 180.672 76 181.5C76 182.328 76.6716 183 77.5 183Z" fill="#242424"/>
<path d="M77.5 183C78.3284 183 79 182.328 79 181.5C79 180.672 78.3284 180 77.5 180C76.6716 180 76 180.672 76 181.5C76 182.328 76.6716 183 77.5 183Z" fill="#242424"/>
<path d="M61.5 183C62.3284 183 63 182.328 63 181.5C63 180.672 62.3284 180 61.5 180C60.6716 180 60 180.672 60 181.5C60 182.328 60.6716 183 61.5 183Z" fill="#242424"/>
<path d="M61.5 183C62.3284 183 63 182.328 63 181.5C63 180.672 62.3284 180 61.5 180C60.6716 180 60 180.672 60 181.5C60 182.328 60.6716 183 61.5 183Z" fill="#242424"/>
<path d="M61.5 183C62.3284 183 63 182.328 63 181.5C63 180.672 62.3284 180 61.5 180C60.6716 180 60 180.672 60 181.5C60 182.328 60.6716 183 61.5 183Z" fill="#242424"/>
<path d="M61.5 183C62.3284 183 63 182.328 63 181.5C63 180.672 62.3284 180 61.5 180C60.6716 180 60 180.672 60 181.5C60 182.328 60.6716 183 61.5 183Z" fill="#242424"/>
<path d="M69.5 185C70.3284 185 71 184.328 71 183.5C71 182.672 70.3284 182 69.5 182C68.6716 182 68 182.672 68 183.5C68 184.328 68.6716 185 69.5 185Z" fill="#242424"/>
<path d="M69.5 185C70.3284 185 71 184.328 71 183.5C71 182.672 70.3284 182 69.5 182C68.6716 182 68 182.672 68 183.5C68 184.328 68.6716 185 69.5 185Z" fill="#242424"/>
<path d="M69.5 185C70.3284 185 71 184.328 71 183.5C71 182.672 70.3284 182 69.5 182C68.6716 182 68 182.672 68 183.5C68 184.328 68.6716 185 69.5 185Z" fill="#242424"/>
<path d="M69.5 185C70.3284 185 71 184.328 71 183.5C71 182.672 70.3284 182 69.5 182C68.6716 182 68 182.672 68 183.5C68 184.328 68.6716 185 69.5 185Z" fill="#242424"/>
<path d="M63.5 191C64.3284 191 65 190.328 65 189.5C65 188.672 64.3284 188 63.5 188C62.6716 188 62 188.672 62 189.5C62 190.328 62.6716 191 63.5 191Z" fill="#242424"/>
<path d="M63.5 191C64.3284 191 65 190.328 65 189.5C65 188.672 64.3284 188 63.5 188C62.6716 188 62 188.672 62 189.5C62 190.328 62.6716 191 63.5 191Z" fill="#242424"/>
<path d="M63.5 191C64.3284 191 65 190.328 65 189.5C65 188.672 64.3284 188 63.5 188C62.6716 188 62 188.672 62 189.5C62 190.328 62.6716 191 63.5 191Z" fill="#242424"/>
<path d="M63.5 191C64.3284 191 65 190.328 65 189.5C65 188.672 64.3284 188 63.5 188C62.6716 188 62 188.672 62 189.5C62 190.328 62.6716 191 63.5 191Z" fill="#242424"/>
<path d="M69.5 197C70.3284 197 71 196.328 71 195.5C71 194.672 70.3284 194 69.5 194C68.6716 194 68 194.672 68 195.5C68 196.328 68.6716 197 69.5 197Z" fill="#242424"/>
<path d="M69.5 197C70.3284 197 71 196.328 71 195.5C71 194.672 70.3284 194 69.5 194C68.6716 194 68 194.672 68 195.5C68 196.328 68.6716 197 69.5 197Z" fill="#242424"/>
<path d="M69.5 197C70.3284 197 71 196.328 71 195.5C71 194.672 70.3284 194 69.5 194C68.6716 194 68 194.672 68 195.5C68 196.328 68.6716 197 69.5 197Z" fill="#242424"/>
<path d="M69.5 197C70.3284 197 71 196.328 71 195.5C71 194.672 70.3284 194 69.5 194C68.6716 194 68 194.672 68 195.5C68 196.328 68.6716 197 69.5 197Z" fill="#242424"/>
<path d="M75.5 191C76.3284 191 77 190.328 77 189.5C77 188.672 76.3284 188 75.5 188C74.6716 188 74 188.672 74 189.5C74 190.328 74.6716 191 75.5 191Z" fill="#242424"/>
<path d="M75.5 191C76.3284 191 77 190.328 77 189.5C77 188.672 76.3284 188 75.5 188C74.6716 188 74 188.672 74 189.5C74 190.328 74.6716 191 75.5 191Z" fill="#242424"/>
<path d="M75.5 191C76.3284 191 77 190.328 77 189.5C77 188.672 76.3284 188 75.5 188C74.6716 188 74 188.672 74 189.5C74 190.328 74.6716 191 75.5 191Z" fill="#242424"/>
<path d="M75.5 191C76.3284 191 77 190.328 77 189.5C77 188.672 76.3284 188 75.5 188C74.6716 188 74 188.672 74 189.5C74 190.328 74.6716 191 75.5 191Z" fill="#242424"/>
<path d="M69.5 192C70.8807 192 72 190.881 72 189.5C72 188.119 70.8807 187 69.5 187C68.1193 187 67 188.119 67 189.5C67 190.881 68.1193 192 69.5 192Z" fill="#242424"/>
<path d="M69.5 192C70.8807 192 72 190.881 72 189.5C72 188.119 70.8807 187 69.5 187C68.1193 187 67 188.119 67 189.5C67 190.881 68.1193 192 69.5 192Z" fill="#242424"/>
<path d="M69.5 192C70.8807 192 72 190.881 72 189.5C72 188.119 70.8807 187 69.5 187C68.1193 187 67 188.119 67 189.5C67 190.881 68.1193 192 69.5 192Z" fill="#242424"/>
<path d="M69.5 192C70.8807 192 72 190.881 72 189.5C72 188.119 70.8807 187 69.5 187C68.1193 187 67 188.119 67 189.5C67 190.881 68.1193 192 69.5 192Z" fill="#242424"/>
<path d="M61.5 199C62.3284 199 63 198.328 63 197.5C63 196.672 62.3284 196 61.5 196C60.6716 196 60 196.672 60 197.5C60 198.328 60.6716 199 61.5 199Z" fill="#242424"/>
<path d="M61.5 199C62.3284 199 63 198.328 63 197.5C63 196.672 62.3284 196 61.5 196C60.6716 196 60 196.672 60 197.5C60 198.328 60.6716 199 61.5 199Z" fill="#242424"/>
<path d="M61.5 199C62.3284 199 63 198.328 63 197.5C63 196.672 62.3284 196 61.5 196C60.6716 196 60 196.672 60 197.5C60 198.328 60.6716 199 61.5 199Z" fill="#242424"/>
<path d="M61.5 199C62.3284 199 63 198.328 63 197.5C63 196.672 62.3284 196 61.5 196C60.6716 196 60 196.672 60 197.5C60 198.328 60.6716 199 61.5 199Z" fill="#242424"/>
<path d="M388.5 217C403.688 217 416 204.688 416 189.5C416 174.312 403.688 162 388.5 162C373.312 162 361 174.312 361 189.5C361 204.688 373.312 217 388.5 217Z" fill="#11425C"/>
<path d="M388.5 215C402.583 215 414 203.583 414 189.5C414 175.417 402.583 164 388.5 164C374.417 164 363 175.417 363 189.5C363 203.583 374.417 215 388.5 215Z" fill="#4687B7"/>
<path d="M414 189.5C414 205.245 402.694 215 388.748 215C374.801 215 363 203.807 363 189.5C387.262 189.5 374.801 189.5 388.748 189.5C402.694 189.5 414 189.5 414 189.5Z" fill="#11425C"/>
<path d="M388.5 211C400.374 211 410 201.374 410 189.5C410 177.626 400.374 168 388.5 168C376.626 168 367 177.626 367 189.5C367 201.374 376.626 211 388.5 211Z" fill="#166591"/>
<path d="M410 189.5C410 201.374 400.374 211 388.5 211C376.626 211 367 201.374 367 189.5C367 189.5 376.626 189.5 388.5 189.5C400.374 189.5 410 189.5 410 189.5Z" fill="#092838"/>
<path d="M388.5 205C397.06 205 404 198.06 404 189.5C404 180.94 397.06 174 388.5 174C379.94 174 373 180.94 373 189.5C373 198.06 379.94 205 388.5 205Z" fill="#4687B7"/>
<path d="M388.5 199C393.747 199 398 194.747 398 189.5C398 184.253 393.747 180 388.5 180C383.253 180 379 184.253 379 189.5C379 194.747 383.253 199 388.5 199Z" fill="#447DB1"/>
<path d="M388.5 179C389.328 179 390 178.328 390 177.5C390 176.672 389.328 176 388.5 176C387.672 176 387 176.672 387 177.5C387 178.328 387.672 179 388.5 179Z" fill="#242424"/>
<path d="M388.5 179C389.328 179 390 178.328 390 177.5C390 176.672 389.328 176 388.5 176C387.672 176 387 176.672 387 177.5C387 178.328 387.672 179 388.5 179Z" fill="#242424"/>
<path d="M388.5 179C389.328 179 390 178.328 390 177.5C390 176.672 389.328 176 388.5 176C387.672 176 387 176.672 387 177.5C387 178.328 387.672 179 388.5 179Z" fill="#242424"/>
<path d="M388.5 179C389.328 179 390 178.328 390 177.5C390 176.672 389.328 176 388.5 176C387.672 176 387 176.672 387 177.5C387 178.328 387.672 179 388.5 179Z" fill="#242424"/>
<path d="M376.5 191C377.328 191 378 190.328 378 189.5C378 188.672 377.328 188 376.5 188C375.672 188 375 188.672 375 189.5C375 190.328 375.672 191 376.5 191Z" fill="#242424"/>
<path d="M376.5 191C377.328 191 378 190.328 378 189.5C378 188.672 377.328 188 376.5 188C375.672 188 375 188.672 375 189.5C375 190.328 375.672 191 376.5 191Z" fill="#242424"/>
<path d="M376.5 191C377.328 191 378 190.328 378 189.5C378 188.672 377.328 188 376.5 188C375.672 188 375 188.672 375 189.5C375 190.328 375.672 191 376.5 191Z" fill="#242424"/>
<path d="M376.5 191C377.328 191 378 190.328 378 189.5C378 188.672 377.328 188 376.5 188C375.672 188 375 188.672 375 189.5C375 190.328 375.672 191 376.5 191Z" fill="#242424"/>
<path d="M400.5 191C401.328 191 402 190.328 402 189.5C402 188.672 401.328 188 400.5 188C399.672 188 399 188.672 399 189.5C399 190.328 399.672 191 400.5 191Z" fill="#242424"/>
<path d="M400.5 191C401.328 191 402 190.328 402 189.5C402 188.672 401.328 188 400.5 188C399.672 188 399 188.672 399 189.5C399 190.328 399.672 191 400.5 191Z" fill="#242424"/>
<path d="M400.5 191C401.328 191 402 190.328 402 189.5C402 188.672 401.328 188 400.5 188C399.672 188 399 188.672 399 189.5C399 190.328 399.672 191 400.5 191Z" fill="#242424"/>
<path d="M400.5 191C401.328 191 402 190.328 402 189.5C402 188.672 401.328 188 400.5 188C399.672 188 399 188.672 399 189.5C399 190.328 399.672 191 400.5 191Z" fill="#242424"/>
<path d="M388.5 203C389.328 203 390 202.328 390 201.5C390 200.672 389.328 200 388.5 200C387.672 200 387 200.672 387 201.5C387 202.328 387.672 203 388.5 203Z" fill="#242424"/>
<path d="M388.5 203C389.328 203 390 202.328 390 201.5C390 200.672 389.328 200 388.5 200C387.672 200 387 200.672 387 201.5C387 202.328 387.672 203 388.5 203Z" fill="#242424"/>
<path d="M388.5 203C389.328 203 390 202.328 390 201.5C390 200.672 389.328 200 388.5 200C387.672 200 387 200.672 387 201.5C387 202.328 387.672 203 388.5 203Z" fill="#242424"/>
<path d="M388.5 203C389.328 203 390 202.328 390 201.5C390 200.672 389.328 200 388.5 200C387.672 200 387 200.672 387 201.5C387 202.328 387.672 203 388.5 203Z" fill="#242424"/>
<path d="M396.5 199C397.328 199 398 198.328 398 197.5C398 196.672 397.328 196 396.5 196C395.672 196 395 196.672 395 197.5C395 198.328 395.672 199 396.5 199Z" fill="#242424"/>
<path d="M396.5 199C397.328 199 398 198.328 398 197.5C398 196.672 397.328 196 396.5 196C395.672 196 395 196.672 395 197.5C395 198.328 395.672 199 396.5 199Z" fill="#242424"/>
<path d="M396.5 199C397.328 199 398 198.328 398 197.5C398 196.672 397.328 196 396.5 196C395.672 196 395 196.672 395 197.5C395 198.328 395.672 199 396.5 199Z" fill="#242424"/>
<path d="M396.5 199C397.328 199 398 198.328 398 197.5C398 196.672 397.328 196 396.5 196C395.672 196 395 196.672 395 197.5C395 198.328 395.672 199 396.5 199Z" fill="#242424"/>
<path d="M396.5 183C397.328 183 398 182.328 398 181.5C398 180.672 397.328 180 396.5 180C395.672 180 395 180.672 395 181.5C395 182.328 395.672 183 396.5 183Z" fill="#242424"/>
<path d="M396.5 183C397.328 183 398 182.328 398 181.5C398 180.672 397.328 180 396.5 180C395.672 180 395 180.672 395 181.5C395 182.328 395.672 183 396.5 183Z" fill="#242424"/>
<path d="M396.5 183C397.328 183 398 182.328 398 181.5C398 180.672 397.328 180 396.5 180C395.672 180 395 180.672 395 181.5C395 182.328 395.672 183 396.5 183Z" fill="#242424"/>
<path d="M396.5 183C397.328 183 398 182.328 398 181.5C398 180.672 397.328 180 396.5 180C395.672 180 395 180.672 395 181.5C395 182.328 395.672 183 396.5 183Z" fill="#242424"/>
<path d="M380.5 183C381.328 183 382 182.328 382 181.5C382 180.672 381.328 180 380.5 180C379.672 180 379 180.672 379 181.5C379 182.328 379.672 183 380.5 183Z" fill="#242424"/>
<path d="M380.5 183C381.328 183 382 182.328 382 181.5C382 180.672 381.328 180 380.5 180C379.672 180 379 180.672 379 181.5C379 182.328 379.672 183 380.5 183Z" fill="#242424"/>
<path d="M380.5 183C381.328 183 382 182.328 382 181.5C382 180.672 381.328 180 380.5 180C379.672 180 379 180.672 379 181.5C379 182.328 379.672 183 380.5 183Z" fill="#242424"/>
<path d="M380.5 183C381.328 183 382 182.328 382 181.5C382 180.672 381.328 180 380.5 180C379.672 180 379 180.672 379 181.5C379 182.328 379.672 183 380.5 183Z" fill="#242424"/>
<path d="M388.5 185C389.328 185 390 184.328 390 183.5C390 182.672 389.328 182 388.5 182C387.672 182 387 182.672 387 183.5C387 184.328 387.672 185 388.5 185Z" fill="#242424"/>
<path d="M388.5 185C389.328 185 390 184.328 390 183.5C390 182.672 389.328 182 388.5 182C387.672 182 387 182.672 387 183.5C387 184.328 387.672 185 388.5 185Z" fill="#242424"/>
<path d="M388.5 185C389.328 185 390 184.328 390 183.5C390 182.672 389.328 182 388.5 182C387.672 182 387 182.672 387 183.5C387 184.328 387.672 185 388.5 185Z" fill="#242424"/>
<path d="M388.5 185C389.328 185 390 184.328 390 183.5C390 182.672 389.328 182 388.5 182C387.672 182 387 182.672 387 183.5C387 184.328 387.672 185 388.5 185Z" fill="#242424"/>
<path d="M382.5 191C383.328 191 384 190.328 384 189.5C384 188.672 383.328 188 382.5 188C381.672 188 381 188.672 381 189.5C381 190.328 381.672 191 382.5 191Z" fill="#242424"/>
<path d="M382.5 191C383.328 191 384 190.328 384 189.5C384 188.672 383.328 188 382.5 188C381.672 188 381 188.672 381 189.5C381 190.328 381.672 191 382.5 191Z" fill="#242424"/>
<path d="M382.5 191C383.328 191 384 190.328 384 189.5C384 188.672 383.328 188 382.5 188C381.672 188 381 188.672 381 189.5C381 190.328 381.672 191 382.5 191Z" fill="#242424"/>
<path d="M382.5 191C383.328 191 384 190.328 384 189.5C384 188.672 383.328 188 382.5 188C381.672 188 381 188.672 381 189.5C381 190.328 381.672 191 382.5 191Z" fill="#242424"/>
<path d="M388.5 197C389.328 197 390 196.328 390 195.5C390 194.672 389.328 194 388.5 194C387.672 194 387 194.672 387 195.5C387 196.328 387.672 197 388.5 197Z" fill="#242424"/>
<path d="M388.5 197C389.328 197 390 196.328 390 195.5C390 194.672 389.328 194 388.5 194C387.672 194 387 194.672 387 195.5C387 196.328 387.672 197 388.5 197Z" fill="#242424"/>
<path d="M388.5 197C389.328 197 390 196.328 390 195.5C390 194.672 389.328 194 388.5 194C387.672 194 387 194.672 387 195.5C387 196.328 387.672 197 388.5 197Z" fill="#242424"/>
<path d="M388.5 197C389.328 197 390 196.328 390 195.5C390 194.672 389.328 194 388.5 194C387.672 194 387 194.672 387 195.5C387 196.328 387.672 197 388.5 197Z" fill="#242424"/>
<path d="M394.5 191C395.328 191 396 190.328 396 189.5C396 188.672 395.328 188 394.5 188C393.672 188 393 188.672 393 189.5C393 190.328 393.672 191 394.5 191Z" fill="#242424"/>
<path d="M394.5 191C395.328 191 396 190.328 396 189.5C396 188.672 395.328 188 394.5 188C393.672 188 393 188.672 393 189.5C393 190.328 393.672 191 394.5 191Z" fill="#242424"/>
<path d="M394.5 191C395.328 191 396 190.328 396 189.5C396 188.672 395.328 188 394.5 188C393.672 188 393 188.672 393 189.5C393 190.328 393.672 191 394.5 191Z" fill="#242424"/>
<path d="M394.5 191C395.328 191 396 190.328 396 189.5C396 188.672 395.328 188 394.5 188C393.672 188 393 188.672 393 189.5C393 190.328 393.672 191 394.5 191Z" fill="#242424"/>
<path d="M388.5 192C389.881 192 391 190.881 391 189.5C391 188.119 389.881 187 388.5 187C387.119 187 386 188.119 386 189.5C386 190.881 387.119 192 388.5 192Z" fill="#242424"/>
<path d="M388.5 192C389.881 192 391 190.881 391 189.5C391 188.119 389.881 187 388.5 187C387.119 187 386 188.119 386 189.5C386 190.881 387.119 192 388.5 192Z" fill="#242424"/>
<path d="M388.5 192C389.881 192 391 190.881 391 189.5C391 188.119 389.881 187 388.5 187C387.119 187 386 188.119 386 189.5C386 190.881 387.119 192 388.5 192Z" fill="#242424"/>
<path d="M388.5 192C389.881 192 391 190.881 391 189.5C391 188.119 389.881 187 388.5 187C387.119 187 386 188.119 386 189.5C386 190.881 387.119 192 388.5 192Z" fill="#242424"/>
<path d="M380.5 199C381.328 199 382 198.328 382 197.5C382 196.672 381.328 196 380.5 196C379.672 196 379 196.672 379 197.5C379 198.328 379.672 199 380.5 199Z" fill="#242424"/>
<path d="M380.5 199C381.328 199 382 198.328 382 197.5C382 196.672 381.328 196 380.5 196C379.672 196 379 196.672 379 197.5C379 198.328 379.672 199 380.5 199Z" fill="#242424"/>
<path d="M380.5 199C381.328 199 382 198.328 382 197.5C382 196.672 381.328 196 380.5 196C379.672 196 379 196.672 379 197.5C379 198.328 379.672 199 380.5 199Z" fill="#242424"/>
<path d="M380.5 199C381.328 199 382 198.328 382 197.5C382 196.672 381.328 196 380.5 196C379.672 196 379 196.672 379 197.5C379 198.328 379.672 199 380.5 199Z" fill="#242424"/>
<path d="M6 179H0V197H6V179Z" fill="#8B8B8B"/>
<path d="M6 155H0V179H6V155Z" fill="#EEEEEE"/>
<path d="M31 47.5C37.5561 47.5 42.1142 54.0211 39.8616 60.1782L30.319 86.2615C29.7805 87.7332 28.9037 89.0578 27.7593 90.1284L14 103H7.5L7.77717 101.522C9.58259 91.8929 12.7931 82.5815 17.3059 73.8861L31 47.5Z" fill="#252525"/>
<path d="M543.5 0.5H123.5V161.5H543.5V0.5Z" fill="#82CAFF" stroke="#1E5074"/>
<path d="M549.5 0.5H544.5V161.5H549.5V0.5Z" fill="#58B7FC" stroke="#1E5074"/>
<path d="M162 165H111C105.477 165 101 169.477 101 175V192C101 197.523 105.477 202 111 202H162C167.523 202 172 197.523 172 192V175C172 169.477 167.523 165 162 165Z" fill="white"/>
<path d="M101 185H172V192C172 197.523 167.523 202 162 202H111C105.477 202 101 197.523 101 192V185Z" fill="#E8E8E8"/>
<path d="M118 165H114V202H118V165Z" fill="#252525"/>
<path d="M159 165H155V202H159V165Z" fill="#252525"/>
<path d="M319.5 194.5H172.5V202.5H319.5V194.5Z" fill="white" stroke="black"/>
<path d="M528.5 12.5H136.5V135.5H528.5V12.5Z" fill="#3E82B5" stroke="#225175"/>
<path d="M69 121C69 119.343 70.3431 118 72 118H82V124H72C70.3431 124 69 122.657 69 121Z" fill="#252525"/>
<path d="M45.3326 57.1779C45.7215 55.326 47.3549 54 49.2472 54H75C77.2091 54 79 55.7909 79 58V92.228C79 93.8954 77.9657 95.3879 76.4045 95.9733L55.6792 103.745C55.23 103.914 54.7543 104 54.2747 104H40.4272C37.8874 104 35.9906 101.664 36.5126 99.1779L45.3326 57.1779Z" fill="#252525"/>
<path d="M47.0343 51.5H78C79.933 51.5 81.5 53.067 81.5 55V145C81.5 146.933 79.933 148.5 78 148.5H36C34.067 148.5 32.5 146.933 32.5 145V100.945C32.5 100.669 32.5325 100.395 32.5968 100.127L43.631 54.1827C44.0089 52.6093 45.4161 51.5 47.0343 51.5Z" stroke="#252525"/>
<path d="M54 157H66V159C66 160.657 64.6569 162 63 162H57C55.3431 162 54 160.657 54 159V157Z" fill="#447DB1"/>
<path d="M14 168H6V179H14V168Z" fill="white"/>
<path d="M14 168H22V174L14 179V168Z" fill="#E8B972"/>
<path d="M529 12H137V20H529V12Z" fill="#225175"/>
<path d="M138 20H136V136H138V20Z" fill="#225175"/>
<path d="M160 20H158V136H160V20Z" fill="#225175"/>
<path d="M182 20H180V136H182V20Z" fill="#225175"/>
<path d="M204 20H202V136H204V20Z" fill="#225175"/>
<path d="M226 20H224V136H226V20Z" fill="#225175"/>
<path d="M248 20H246V136H248V20Z" fill="#225175"/>
<path d="M270 20H268V136H270V20Z" fill="#225175"/>
<path d="M292 20H290V136H292V20Z" fill="#225175"/>
<path d="M314 19H312V135H314V19Z" fill="#225175"/>
<path d="M336 19H334V135H336V19Z" fill="#225175"/>
<path d="M358 20H356V136H358V20Z" fill="#225175"/>
<path d="M380 20H378V136H380V20Z" fill="#225175"/>
<path d="M402 20H400V136H402V20Z" fill="#225175"/>
<path d="M424 20H422V136H424V20Z" fill="#225175"/>
<path d="M446 20H444V136H446V20Z" fill="#225175"/>
<path d="M468 20H466V136H468V20Z" fill="#225175"/>
<path d="M490 20H488V136H490V20Z" fill="#225175"/>
<path d="M512 20H510V136H512V20Z" fill="#225175"/>
<path d="M145 1H136V4H145V1Z" fill="#225175"/>
<path d="M211 1H202V4H211V1Z" fill="#225175"/>
<path d="M277 1H268V4H277V1Z" fill="#225175"/>
<path d="M343 1H334V4H343V1Z" fill="#225175"/>
<path d="M409 1H400V4H409V1Z" fill="#225175"/>
<path d="M475 1H466V4H475V1Z" fill="#225175"/>
<path d="M177.5 144H162.5C161.119 144 160 145.119 160 146.5C160 147.881 161.119 149 162.5 149H177.5C178.881 149 180 147.881 180 146.5C180 145.119 178.881 144 177.5 144Z" fill="#225175"/>
<path d="M375.5 144H360.5C359.119 144 358 145.119 358 146.5C358 147.881 359.119 149 360.5 149H375.5C376.881 149 378 147.881 378 146.5C378 145.119 376.881 144 375.5 144Z" fill="#225175"/>
<path d="M180 136H160V138H180V136Z" fill="#225175"/>
<path d="M224 136H204V138H224V136Z" fill="#225175"/>
<path d="M268 136H248V138H268V136Z" fill="#225175"/>
<path d="M312 136H292V138H312V136Z" fill="#225175"/>
<path d="M356 136H336V138H356V136Z" fill="#225175"/>
<path d="M400 136H380V138H400V136Z" fill="#225175"/>
<path d="M444 136H424V138H444V136Z" fill="#225175"/>
<path d="M488 136H468V138H488V136Z" fill="#225175"/>
<path d="M529 136H512V138H529V136Z" fill="#225175"/>
</g>
<defs>
<clipPath id="clip0_5_1319">
<rect width="550" height="217" fill="white"/>
</clipPath>
</defs>
</svg>
