<svg width="664" height="202" viewBox="0 0 664 202" fill="none" xmlns="http://www.w3.org/2000/svg">
<path d="M110.727 45.7868C122.827 28.9687 142.281 19 163 19V19V60H100.5L110.727 45.7868Z" fill="#54A7E3"/>
<path d="M102.5 57H117.689C121.169 57 124.59 56.0917 127.611 54.3649L128.889 53.6351C131.91 51.9083 135.331 51 138.811 51H163V59.5H100.5L102.5 57Z" fill="#6DBFFB"/>
<path d="M75.6228 83.3337C79.8639 72.5542 81.9845 67.1645 86.2079 63.8203C86.9583 63.2261 87.7504 62.6865 88.5781 62.2058C93.2364 59.5 99.0283 59.5 110.612 59.5H119.613C120.721 59.5 121.276 59.5 121.818 59.4406C122.889 59.3235 123.933 59.0341 124.912 58.5838C125.407 58.3556 125.883 58.0704 126.833 57.5V57.5C128.735 56.3591 129.685 55.7887 130.677 55.3324C132.633 54.4318 134.723 53.8531 136.864 53.6187C137.948 53.5 139.057 53.5 141.275 53.5H163V148H61V120.5L75.6228 83.3337Z" fill="#54A7E3"/>
<path d="M61.5 143L35.5001 142.5L11.0001 148.5C11.0001 127 34.4889 123.443 62.5 118C63.5 117.806 61.5 143 61.5 143Z" fill="#54A7E3"/>
<rect x="75" y="148" width="103" height="32" fill="#56A5DF"/>
<path d="M62.5 118V143" stroke="#525252"/>
<rect x="71" y="148" width="107" height="8" fill="#6DBFFB"/>
<path d="M63.5 142C79.5 148.594 91.7753 196.895 61.6607 182.372C34.2987 182.372 86.458 169.893 0 169.893C8.25723 139.729 4.5 149 24 140C35.1873 134.837 55.4791 138.695 63.5 142Z" fill="#8ED0FF"/>
<path d="M61.5 144C79.5108 150.754 91.5361 196.181 61.5 183C34.2093 183 86.2327 171.675 0 171.675C8.23571 144.299 4.86402 149.548 25 142.5C45 135.5 53.5 141 61.5 144Z" fill="#54A7E3"/>
<rect x="72" y="180" width="106" height="7" fill="black"/>
<path d="M2 170H26V179H9C5.13401 179 2 175.866 2 172V170Z" fill="#D9D9D9"/>
<circle cx="48.5" cy="172.5" r="27.5" fill="#11425C"/>
<circle cx="48.5" cy="172.5" r="25.5" fill="#4687B7"/>
<path d="M74 172.5C74 188.245 62.6941 198 48.7476 198C34.801 198 23 186.807 23 172.5C47.2621 172.5 34.801 172.5 48.7476 172.5C62.6941 172.5 74 172.5 74 172.5Z" fill="#11425C"/>
<circle cx="48.5" cy="172.5" r="21.5" fill="#166591"/>
<path d="M70 172.5C70 184.374 60.3741 194 48.5 194C36.6259 194 27 184.374 27 172.5C27 172.5 36.6259 172.5 48.5 172.5C60.3741 172.5 70 172.5 70 172.5Z" fill="#092838"/>
<circle cx="48.5" cy="172.5" r="15.5" fill="#4687B7"/>
<circle cx="48.5" cy="172.5" r="9.5" fill="#447DB1"/>
<circle cx="48.5" cy="160.5" r="1.5" fill="#242424"/>
<circle cx="48.5" cy="160.5" r="1.5" fill="#242424"/>
<circle cx="48.5" cy="160.5" r="1.5" fill="#242424"/>
<circle cx="48.5" cy="160.5" r="1.5" fill="#242424"/>
<circle cx="36.5" cy="172.5" r="1.5" fill="#242424"/>
<circle cx="36.5" cy="172.5" r="1.5" fill="#242424"/>
<circle cx="36.5" cy="172.5" r="1.5" fill="#242424"/>
<circle cx="36.5" cy="172.5" r="1.5" fill="#242424"/>
<circle cx="60.5" cy="172.5" r="1.5" fill="#242424"/>
<circle cx="60.5" cy="172.5" r="1.5" fill="#242424"/>
<circle cx="60.5" cy="172.5" r="1.5" fill="#242424"/>
<circle cx="60.5" cy="172.5" r="1.5" fill="#242424"/>
<circle cx="48.5" cy="184.5" r="1.5" fill="#242424"/>
<circle cx="48.5" cy="184.5" r="1.5" fill="#242424"/>
<circle cx="48.5" cy="184.5" r="1.5" fill="#242424"/>
<circle cx="48.5" cy="184.5" r="1.5" fill="#242424"/>
<circle cx="56.5" cy="180.5" r="1.5" fill="#242424"/>
<circle cx="56.5" cy="180.5" r="1.5" fill="#242424"/>
<circle cx="56.5" cy="180.5" r="1.5" fill="#242424"/>
<circle cx="56.5" cy="180.5" r="1.5" fill="#242424"/>
<circle cx="56.5" cy="164.5" r="1.5" fill="#242424"/>
<circle cx="56.5" cy="164.5" r="1.5" fill="#242424"/>
<circle cx="56.5" cy="164.5" r="1.5" fill="#242424"/>
<circle cx="56.5" cy="164.5" r="1.5" fill="#242424"/>
<circle cx="40.5" cy="164.5" r="1.5" fill="#242424"/>
<circle cx="40.5" cy="164.5" r="1.5" fill="#242424"/>
<circle cx="40.5" cy="164.5" r="1.5" fill="#242424"/>
<circle cx="40.5" cy="164.5" r="1.5" fill="#242424"/>
<circle cx="48.5" cy="166.5" r="1.5" fill="#242424"/>
<circle cx="48.5" cy="166.5" r="1.5" fill="#242424"/>
<circle cx="48.5" cy="166.5" r="1.5" fill="#242424"/>
<circle cx="48.5" cy="166.5" r="1.5" fill="#242424"/>
<circle cx="42.5" cy="172.5" r="1.5" fill="#242424"/>
<circle cx="42.5" cy="172.5" r="1.5" fill="#242424"/>
<circle cx="42.5" cy="172.5" r="1.5" fill="#242424"/>
<circle cx="42.5" cy="172.5" r="1.5" fill="#242424"/>
<circle cx="48.5" cy="178.5" r="1.5" fill="#242424"/>
<circle cx="48.5" cy="178.5" r="1.5" fill="#242424"/>
<circle cx="48.5" cy="178.5" r="1.5" fill="#242424"/>
<circle cx="48.5" cy="178.5" r="1.5" fill="#242424"/>
<circle cx="54.5" cy="172.5" r="1.5" fill="#242424"/>
<circle cx="54.5" cy="172.5" r="1.5" fill="#242424"/>
<circle cx="54.5" cy="172.5" r="1.5" fill="#242424"/>
<circle cx="54.5" cy="172.5" r="1.5" fill="#242424"/>
<circle cx="48.5" cy="172.5" r="2.5" fill="#242424"/>
<circle cx="48.5" cy="172.5" r="2.5" fill="#242424"/>
<circle cx="48.5" cy="172.5" r="2.5" fill="#242424"/>
<circle cx="48.5" cy="172.5" r="2.5" fill="#242424"/>
<circle cx="40.5" cy="180.5" r="1.5" fill="#242424"/>
<circle cx="40.5" cy="180.5" r="1.5" fill="#242424"/>
<circle cx="40.5" cy="180.5" r="1.5" fill="#242424"/>
<circle cx="40.5" cy="180.5" r="1.5" fill="#242424"/>
<rect x="124" y="156" width="48" height="27" rx="5" fill="#FAFAFA"/>
<path d="M124 171H172V178C172 180.761 169.761 183 167 183H129C126.239 183 124 180.761 124 178V171Z" fill="#E3E3E3"/>
<rect x="130" y="156" width="5" height="27" fill="#313131"/>
<rect x="145" y="156" width="6" height="27" fill="#313131"/>
<rect x="161" y="156" width="5" height="27" fill="#313131"/>
<path d="M125 148C125 151.59 120.523 155 115 155C109.477 155 105 151.59 105 148C105 148 109.477 148 115 148C120.523 148 125 148 125 148Z" fill="#447DB1"/>
<path d="M5.5 155H23V160.5L13 164H2L5.5 155Z" fill="#FCFCFC"/>
<path d="M13 155H23V160.5L13 164V155Z" fill="#E8B972"/>
<path d="M80 72.5L83.4341 72.9683C87.2866 73.4936 89.6296 77.4883 88.2079 81.1072L76.5883 110.684C75.2942 113.978 72.3553 116.343 68.8607 116.902L62 118L80 72.5Z" fill="#252525"/>
<path d="M97.3998 75H125.428C127.938 75 129.963 77.0544 129.927 79.5647L129.071 139.065C129.036 141.525 127.031 143.5 124.571 143.5H82C79.5147 143.5 77.5 141.485 77.5 139V117.595L93.215 77.8455C93.8939 76.1282 95.5532 75 97.3998 75Z" stroke="#252525"/>
<path d="M95.7528 78.9041C96.2035 77.7555 97.3116 77 98.5455 77H123.5C125.157 77 126.5 78.3431 126.5 80V108.113C126.5 109.51 125.536 110.722 124.175 111.037L100.833 116.423C100.612 116.474 100.385 116.5 100.158 116.5L85.3999 116.5C83.2859 116.5 81.835 114.372 82.6072 112.404L95.7528 78.9041Z" fill="#252525"/>
<path d="M124 126C124 124.343 125.343 123 127 123H129V136H127C125.343 136 124 134.657 124 133V126Z" fill="#252525"/>
<path d="M130.664 62.9259C134.095 59.7587 138.593 58 143.262 58H158C159.105 58 160 58.8954 160 60V62C160 63.1046 159.105 64 158 64H131.084C130.52 64 130.249 63.3082 130.664 62.9259V62.9259Z" fill="#252525"/>
<line x1="163.5" y1="19" x2="163.5" y2="148" stroke="#252525"/>
<path d="M143 81.4167C143 77.8728 145.873 75 149.417 75V75C151.948 75 154 77.052 154 79.5833V92.5C154 95.5376 151.538 98 148.5 98V98C145.462 98 143 95.5376 143 92.5V81.4167Z" fill="#252525"/>
<rect x="147" y="111" width="14" height="35" rx="5" stroke="#252525" stroke-dasharray="1 1"/>
<rect x="135.25" y="108.25" width="2.5" height="20.5" rx="1.25" fill="#F9F9F9" stroke="black" stroke-width="0.5"/>
<rect x="178" y="151" width="106" height="32" fill="#252525"/>
<rect x="203" y="143" width="101" height="23" fill="#252525"/>
<rect x="196" y="141" width="461" height="19" fill="#252525"/>
<rect x="657" y="141" width="7" height="40" fill="#252525"/>
<circle cx="205.5" cy="172.5" r="27.5" fill="#11425C"/>
<circle cx="205.5" cy="172.5" r="25.5" fill="#4687B7"/>
<path d="M231 172.5C231 188.245 219.694 198 205.748 198C191.801 198 180 186.807 180 172.5C204.262 172.5 191.801 172.5 205.748 172.5C219.694 172.5 231 172.5 231 172.5Z" fill="#11425C"/>
<circle cx="205.5" cy="172.5" r="21.5" fill="#166591"/>
<path d="M227 172.5C227 184.374 217.374 194 205.5 194C193.626 194 184 184.374 184 172.5C184 172.5 193.626 172.5 205.5 172.5C217.374 172.5 227 172.5 227 172.5Z" fill="#092838"/>
<circle cx="205.5" cy="172.5" r="15.5" fill="#4687B7"/>
<circle cx="205.5" cy="172.5" r="9.5" fill="#447DB1"/>
<circle cx="205.5" cy="160.5" r="1.5" fill="#242424"/>
<circle cx="205.5" cy="160.5" r="1.5" fill="#242424"/>
<circle cx="205.5" cy="160.5" r="1.5" fill="#242424"/>
<circle cx="205.5" cy="160.5" r="1.5" fill="#242424"/>
<circle cx="193.5" cy="172.5" r="1.5" fill="#242424"/>
<circle cx="193.5" cy="172.5" r="1.5" fill="#242424"/>
<circle cx="193.5" cy="172.5" r="1.5" fill="#242424"/>
<circle cx="193.5" cy="172.5" r="1.5" fill="#242424"/>
<circle cx="217.5" cy="172.5" r="1.5" fill="#242424"/>
<circle cx="217.5" cy="172.5" r="1.5" fill="#242424"/>
<circle cx="217.5" cy="172.5" r="1.5" fill="#242424"/>
<circle cx="217.5" cy="172.5" r="1.5" fill="#242424"/>
<circle cx="205.5" cy="184.5" r="1.5" fill="#242424"/>
<circle cx="205.5" cy="184.5" r="1.5" fill="#242424"/>
<circle cx="205.5" cy="184.5" r="1.5" fill="#242424"/>
<circle cx="205.5" cy="184.5" r="1.5" fill="#242424"/>
<circle cx="213.5" cy="180.5" r="1.5" fill="#242424"/>
<circle cx="213.5" cy="180.5" r="1.5" fill="#242424"/>
<circle cx="213.5" cy="180.5" r="1.5" fill="#242424"/>
<circle cx="213.5" cy="180.5" r="1.5" fill="#242424"/>
<circle cx="213.5" cy="164.5" r="1.5" fill="#242424"/>
<circle cx="213.5" cy="164.5" r="1.5" fill="#242424"/>
<circle cx="213.5" cy="164.5" r="1.5" fill="#242424"/>
<circle cx="213.5" cy="164.5" r="1.5" fill="#242424"/>
<circle cx="197.5" cy="164.5" r="1.5" fill="#242424"/>
<circle cx="197.5" cy="164.5" r="1.5" fill="#242424"/>
<circle cx="197.5" cy="164.5" r="1.5" fill="#242424"/>
<circle cx="197.5" cy="164.5" r="1.5" fill="#242424"/>
<circle cx="205.5" cy="166.5" r="1.5" fill="#242424"/>
<circle cx="205.5" cy="166.5" r="1.5" fill="#242424"/>
<circle cx="205.5" cy="166.5" r="1.5" fill="#242424"/>
<circle cx="205.5" cy="166.5" r="1.5" fill="#242424"/>
<circle cx="199.5" cy="172.5" r="1.5" fill="#242424"/>
<circle cx="199.5" cy="172.5" r="1.5" fill="#242424"/>
<circle cx="199.5" cy="172.5" r="1.5" fill="#242424"/>
<circle cx="199.5" cy="172.5" r="1.5" fill="#242424"/>
<circle cx="205.5" cy="178.5" r="1.5" fill="#242424"/>
<circle cx="205.5" cy="178.5" r="1.5" fill="#242424"/>
<circle cx="205.5" cy="178.5" r="1.5" fill="#242424"/>
<circle cx="205.5" cy="178.5" r="1.5" fill="#242424"/>
<circle cx="211.5" cy="172.5" r="1.5" fill="#242424"/>
<circle cx="211.5" cy="172.5" r="1.5" fill="#242424"/>
<circle cx="211.5" cy="172.5" r="1.5" fill="#242424"/>
<circle cx="211.5" cy="172.5" r="1.5" fill="#242424"/>
<circle cx="205.5" cy="172.5" r="2.5" fill="#242424"/>
<circle cx="205.5" cy="172.5" r="2.5" fill="#242424"/>
<circle cx="205.5" cy="172.5" r="2.5" fill="#242424"/>
<circle cx="205.5" cy="172.5" r="2.5" fill="#242424"/>
<circle cx="197.5" cy="180.5" r="1.5" fill="#242424"/>
<circle cx="197.5" cy="180.5" r="1.5" fill="#242424"/>
<circle cx="197.5" cy="180.5" r="1.5" fill="#242424"/>
<circle cx="197.5" cy="180.5" r="1.5" fill="#242424"/>
<circle cx="265.5" cy="173.5" r="27.5" fill="#11425C"/>
<circle cx="265.5" cy="173.5" r="25.5" fill="#4687B7"/>
<path d="M291 173.5C291 189.245 279.694 199 265.748 199C251.801 199 240 187.807 240 173.5C264.262 173.5 251.801 173.5 265.748 173.5C279.694 173.5 291 173.5 291 173.5Z" fill="#11425C"/>
<circle cx="265.5" cy="173.5" r="21.5" fill="#166591"/>
<path d="M287 173.5C287 185.374 277.374 195 265.5 195C253.626 195 244 185.374 244 173.5C244 173.5 253.626 173.5 265.5 173.5C277.374 173.5 287 173.5 287 173.5Z" fill="#092838"/>
<circle cx="265.5" cy="173.5" r="15.5" fill="#4687B7"/>
<circle cx="265.5" cy="173.5" r="9.5" fill="#447DB1"/>
<circle cx="265.5" cy="161.5" r="1.5" fill="#242424"/>
<circle cx="265.5" cy="161.5" r="1.5" fill="#242424"/>
<circle cx="265.5" cy="161.5" r="1.5" fill="#242424"/>
<circle cx="265.5" cy="161.5" r="1.5" fill="#242424"/>
<circle cx="253.5" cy="173.5" r="1.5" fill="#242424"/>
<circle cx="253.5" cy="173.5" r="1.5" fill="#242424"/>
<circle cx="253.5" cy="173.5" r="1.5" fill="#242424"/>
<circle cx="253.5" cy="173.5" r="1.5" fill="#242424"/>
<circle cx="277.5" cy="173.5" r="1.5" fill="#242424"/>
<circle cx="277.5" cy="173.5" r="1.5" fill="#242424"/>
<circle cx="277.5" cy="173.5" r="1.5" fill="#242424"/>
<circle cx="277.5" cy="173.5" r="1.5" fill="#242424"/>
<circle cx="265.5" cy="185.5" r="1.5" fill="#242424"/>
<circle cx="265.5" cy="185.5" r="1.5" fill="#242424"/>
<circle cx="265.5" cy="185.5" r="1.5" fill="#242424"/>
<circle cx="265.5" cy="185.5" r="1.5" fill="#242424"/>
<circle cx="273.5" cy="181.5" r="1.5" fill="#242424"/>
<circle cx="273.5" cy="181.5" r="1.5" fill="#242424"/>
<circle cx="273.5" cy="181.5" r="1.5" fill="#242424"/>
<circle cx="273.5" cy="181.5" r="1.5" fill="#242424"/>
<circle cx="273.5" cy="165.5" r="1.5" fill="#242424"/>
<circle cx="273.5" cy="165.5" r="1.5" fill="#242424"/>
<circle cx="273.5" cy="165.5" r="1.5" fill="#242424"/>
<circle cx="273.5" cy="165.5" r="1.5" fill="#242424"/>
<circle cx="257.5" cy="165.5" r="1.5" fill="#242424"/>
<circle cx="257.5" cy="165.5" r="1.5" fill="#242424"/>
<circle cx="257.5" cy="165.5" r="1.5" fill="#242424"/>
<circle cx="257.5" cy="165.5" r="1.5" fill="#242424"/>
<circle cx="265.5" cy="167.5" r="1.5" fill="#242424"/>
<circle cx="265.5" cy="167.5" r="1.5" fill="#242424"/>
<circle cx="265.5" cy="167.5" r="1.5" fill="#242424"/>
<circle cx="265.5" cy="167.5" r="1.5" fill="#242424"/>
<circle cx="259.5" cy="173.5" r="1.5" fill="#242424"/>
<circle cx="259.5" cy="173.5" r="1.5" fill="#242424"/>
<circle cx="259.5" cy="173.5" r="1.5" fill="#242424"/>
<circle cx="259.5" cy="173.5" r="1.5" fill="#242424"/>
<circle cx="265.5" cy="179.5" r="1.5" fill="#242424"/>
<circle cx="265.5" cy="179.5" r="1.5" fill="#242424"/>
<circle cx="265.5" cy="179.5" r="1.5" fill="#242424"/>
<circle cx="265.5" cy="179.5" r="1.5" fill="#242424"/>
<circle cx="271.5" cy="173.5" r="1.5" fill="#242424"/>
<circle cx="271.5" cy="173.5" r="1.5" fill="#242424"/>
<circle cx="271.5" cy="173.5" r="1.5" fill="#242424"/>
<circle cx="271.5" cy="173.5" r="1.5" fill="#242424"/>
<circle cx="265.5" cy="173.5" r="2.5" fill="#242424"/>
<circle cx="265.5" cy="173.5" r="2.5" fill="#242424"/>
<circle cx="265.5" cy="173.5" r="2.5" fill="#242424"/>
<circle cx="265.5" cy="173.5" r="2.5" fill="#242424"/>
<circle cx="257.5" cy="181.5" r="1.5" fill="#242424"/>
<circle cx="257.5" cy="181.5" r="1.5" fill="#242424"/>
<circle cx="257.5" cy="181.5" r="1.5" fill="#242424"/>
<circle cx="257.5" cy="181.5" r="1.5" fill="#242424"/>
<circle cx="531.5" cy="174.5" r="27.5" fill="#11425C"/>
<circle cx="531.5" cy="174.5" r="25.5" fill="#4687B7"/>
<path d="M557 174.5C557 190.245 545.694 200 531.748 200C517.801 200 506 188.807 506 174.5C530.262 174.5 517.801 174.5 531.748 174.5C545.694 174.5 557 174.5 557 174.5Z" fill="#11425C"/>
<circle cx="531.5" cy="174.5" r="21.5" fill="#166591"/>
<path d="M553 174.5C553 186.374 543.374 196 531.5 196C519.626 196 510 186.374 510 174.5C510 174.5 519.626 174.5 531.5 174.5C543.374 174.5 553 174.5 553 174.5Z" fill="#092838"/>
<circle cx="531.5" cy="174.5" r="15.5" fill="#4687B7"/>
<circle cx="531.5" cy="174.5" r="9.5" fill="#447DB1"/>
<circle cx="531.5" cy="162.5" r="1.5" fill="#242424"/>
<circle cx="531.5" cy="162.5" r="1.5" fill="#242424"/>
<circle cx="531.5" cy="162.5" r="1.5" fill="#242424"/>
<circle cx="531.5" cy="162.5" r="1.5" fill="#242424"/>
<circle cx="519.5" cy="174.5" r="1.5" fill="#242424"/>
<circle cx="519.5" cy="174.5" r="1.5" fill="#242424"/>
<circle cx="519.5" cy="174.5" r="1.5" fill="#242424"/>
<circle cx="519.5" cy="174.5" r="1.5" fill="#242424"/>
<circle cx="543.5" cy="174.5" r="1.5" fill="#242424"/>
<circle cx="543.5" cy="174.5" r="1.5" fill="#242424"/>
<circle cx="543.5" cy="174.5" r="1.5" fill="#242424"/>
<circle cx="543.5" cy="174.5" r="1.5" fill="#242424"/>
<circle cx="531.5" cy="186.5" r="1.5" fill="#242424"/>
<circle cx="531.5" cy="186.5" r="1.5" fill="#242424"/>
<circle cx="531.5" cy="186.5" r="1.5" fill="#242424"/>
<circle cx="531.5" cy="186.5" r="1.5" fill="#242424"/>
<circle cx="539.5" cy="182.5" r="1.5" fill="#242424"/>
<circle cx="539.5" cy="182.5" r="1.5" fill="#242424"/>
<circle cx="539.5" cy="182.5" r="1.5" fill="#242424"/>
<circle cx="539.5" cy="182.5" r="1.5" fill="#242424"/>
<circle cx="539.5" cy="166.5" r="1.5" fill="#242424"/>
<circle cx="539.5" cy="166.5" r="1.5" fill="#242424"/>
<circle cx="539.5" cy="166.5" r="1.5" fill="#242424"/>
<circle cx="539.5" cy="166.5" r="1.5" fill="#242424"/>
<circle cx="523.5" cy="166.5" r="1.5" fill="#242424"/>
<circle cx="523.5" cy="166.5" r="1.5" fill="#242424"/>
<circle cx="523.5" cy="166.5" r="1.5" fill="#242424"/>
<circle cx="523.5" cy="166.5" r="1.5" fill="#242424"/>
<circle cx="531.5" cy="168.5" r="1.5" fill="#242424"/>
<circle cx="531.5" cy="168.5" r="1.5" fill="#242424"/>
<circle cx="531.5" cy="168.5" r="1.5" fill="#242424"/>
<circle cx="531.5" cy="168.5" r="1.5" fill="#242424"/>
<circle cx="525.5" cy="174.5" r="1.5" fill="#242424"/>
<circle cx="525.5" cy="174.5" r="1.5" fill="#242424"/>
<circle cx="525.5" cy="174.5" r="1.5" fill="#242424"/>
<circle cx="525.5" cy="174.5" r="1.5" fill="#242424"/>
<circle cx="531.5" cy="180.5" r="1.5" fill="#242424"/>
<circle cx="531.5" cy="180.5" r="1.5" fill="#242424"/>
<circle cx="531.5" cy="180.5" r="1.5" fill="#242424"/>
<circle cx="531.5" cy="180.5" r="1.5" fill="#242424"/>
<circle cx="537.5" cy="174.5" r="1.5" fill="#242424"/>
<circle cx="537.5" cy="174.5" r="1.5" fill="#242424"/>
<circle cx="537.5" cy="174.5" r="1.5" fill="#242424"/>
<circle cx="537.5" cy="174.5" r="1.5" fill="#242424"/>
<circle cx="531.5" cy="174.5" r="2.5" fill="#242424"/>
<circle cx="531.5" cy="174.5" r="2.5" fill="#242424"/>
<circle cx="531.5" cy="174.5" r="2.5" fill="#242424"/>
<circle cx="531.5" cy="174.5" r="2.5" fill="#242424"/>
<circle cx="523.5" cy="182.5" r="1.5" fill="#242424"/>
<circle cx="523.5" cy="182.5" r="1.5" fill="#242424"/>
<circle cx="523.5" cy="182.5" r="1.5" fill="#242424"/>
<circle cx="523.5" cy="182.5" r="1.5" fill="#242424"/>
<circle cx="588.5" cy="174.5" r="27.5" fill="#11425C"/>
<circle cx="588.5" cy="174.5" r="25.5" fill="#4687B7"/>
<path d="M614 174.5C614 190.245 602.694 200 588.748 200C574.801 200 563 188.807 563 174.5C587.262 174.5 574.801 174.5 588.748 174.5C602.694 174.5 614 174.5 614 174.5Z" fill="#11425C"/>
<circle cx="588.5" cy="174.5" r="21.5" fill="#166591"/>
<path d="M610 174.5C610 186.374 600.374 196 588.5 196C576.626 196 567 186.374 567 174.5C567 174.5 576.626 174.5 588.5 174.5C600.374 174.5 610 174.5 610 174.5Z" fill="#092838"/>
<circle cx="588.5" cy="174.5" r="15.5" fill="#4687B7"/>
<circle cx="588.5" cy="174.5" r="9.5" fill="#447DB1"/>
<circle cx="588.5" cy="162.5" r="1.5" fill="#242424"/>
<circle cx="588.5" cy="162.5" r="1.5" fill="#242424"/>
<circle cx="588.5" cy="162.5" r="1.5" fill="#242424"/>
<circle cx="588.5" cy="162.5" r="1.5" fill="#242424"/>
<circle cx="576.5" cy="174.5" r="1.5" fill="#242424"/>
<circle cx="576.5" cy="174.5" r="1.5" fill="#242424"/>
<circle cx="576.5" cy="174.5" r="1.5" fill="#242424"/>
<circle cx="576.5" cy="174.5" r="1.5" fill="#242424"/>
<circle cx="600.5" cy="174.5" r="1.5" fill="#242424"/>
<circle cx="600.5" cy="174.5" r="1.5" fill="#242424"/>
<circle cx="600.5" cy="174.5" r="1.5" fill="#242424"/>
<circle cx="600.5" cy="174.5" r="1.5" fill="#242424"/>
<circle cx="588.5" cy="186.5" r="1.5" fill="#242424"/>
<circle cx="588.5" cy="186.5" r="1.5" fill="#242424"/>
<circle cx="588.5" cy="186.5" r="1.5" fill="#242424"/>
<circle cx="588.5" cy="186.5" r="1.5" fill="#242424"/>
<circle cx="596.5" cy="182.5" r="1.5" fill="#242424"/>
<circle cx="596.5" cy="182.5" r="1.5" fill="#242424"/>
<circle cx="596.5" cy="182.5" r="1.5" fill="#242424"/>
<circle cx="596.5" cy="182.5" r="1.5" fill="#242424"/>
<circle cx="596.5" cy="166.5" r="1.5" fill="#242424"/>
<circle cx="596.5" cy="166.5" r="1.5" fill="#242424"/>
<circle cx="596.5" cy="166.5" r="1.5" fill="#242424"/>
<circle cx="596.5" cy="166.5" r="1.5" fill="#242424"/>
<circle cx="580.5" cy="166.5" r="1.5" fill="#242424"/>
<circle cx="580.5" cy="166.5" r="1.5" fill="#242424"/>
<circle cx="580.5" cy="166.5" r="1.5" fill="#242424"/>
<circle cx="580.5" cy="166.5" r="1.5" fill="#242424"/>
<circle cx="588.5" cy="168.5" r="1.5" fill="#242424"/>
<circle cx="588.5" cy="168.5" r="1.5" fill="#242424"/>
<circle cx="588.5" cy="168.5" r="1.5" fill="#242424"/>
<circle cx="588.5" cy="168.5" r="1.5" fill="#242424"/>
<circle cx="582.5" cy="174.5" r="1.5" fill="#242424"/>
<circle cx="582.5" cy="174.5" r="1.5" fill="#242424"/>
<circle cx="582.5" cy="174.5" r="1.5" fill="#242424"/>
<circle cx="582.5" cy="174.5" r="1.5" fill="#242424"/>
<circle cx="588.5" cy="180.5" r="1.5" fill="#242424"/>
<circle cx="588.5" cy="180.5" r="1.5" fill="#242424"/>
<circle cx="588.5" cy="180.5" r="1.5" fill="#242424"/>
<circle cx="588.5" cy="180.5" r="1.5" fill="#242424"/>
<circle cx="594.5" cy="174.5" r="1.5" fill="#242424"/>
<circle cx="594.5" cy="174.5" r="1.5" fill="#242424"/>
<circle cx="594.5" cy="174.5" r="1.5" fill="#242424"/>
<circle cx="594.5" cy="174.5" r="1.5" fill="#242424"/>
<circle cx="588.5" cy="174.5" r="2.5" fill="#242424"/>
<circle cx="588.5" cy="174.5" r="2.5" fill="#242424"/>
<circle cx="588.5" cy="174.5" r="2.5" fill="#242424"/>
<circle cx="588.5" cy="174.5" r="2.5" fill="#242424"/>
<circle cx="580.5" cy="182.5" r="1.5" fill="#242424"/>
<circle cx="580.5" cy="182.5" r="1.5" fill="#242424"/>
<circle cx="580.5" cy="182.5" r="1.5" fill="#242424"/>
<circle cx="580.5" cy="182.5" r="1.5" fill="#242424"/>
<mask id="path-133-inside-1_4_202" fill="white">
<path d="M192 0H657V141H192V0Z"/>
</mask>
<path d="M192 0H657V141H192V0Z" fill="#82CAFF"/>
<path d="M192 0V-1H191V0H192ZM657 0H658V-1H657V0ZM657 141V142H658V141H657ZM192 141H191V142H192V141ZM192 1H657V-1H192V1ZM656 0V141H658V0H656ZM657 140H192V142H657V140ZM193 141V0H191V141H193Z" fill="#1E5074" mask="url(#path-133-inside-1_4_202)"/>
<path d="M176 23C176 20.7909 177.791 19 180 19H193V65H180C177.791 65 176 63.2091 176 61V23Z" fill="#C0C0C0"/>
<circle cx="185.004" cy="28.0037" r="5.00123" transform="rotate(-0.0280954 185.004 28.0037)" fill="#252525"/>
<circle cx="185.004" cy="40.0037" r="5.00123" transform="rotate(-0.0280954 185.004 40.0037)" fill="#252525"/>
<mask id="path-138-inside-2_4_202" fill="white">
<path d="M204 21H656V118H204V21Z"/>
</mask>
<path d="M204 21H656V118H204V21Z" fill="#3E82B5"/>
<path d="M656 117H204V119H656V117Z" fill="#225175" mask="url(#path-138-inside-2_4_202)"/>
<rect x="204" y="21" width="452" height="7" fill="#225175"/>
<rect x="204" y="28" width="3" height="90" fill="#225175"/>
<rect x="231" y="28" width="3" height="90" fill="#225175"/>
<rect x="258" y="28" width="3" height="90" fill="#225175"/>
<rect x="285" y="28" width="3" height="90" fill="#225175"/>
<rect x="312" y="28" width="3" height="90" fill="#225175"/>
<rect x="339" y="28" width="3" height="90" fill="#225175"/>
<rect x="366" y="28" width="3" height="90" fill="#225175"/>
<rect x="393" y="28" width="3" height="90" fill="#225175"/>
<rect x="420" y="28" width="3" height="90" fill="#225175"/>
<rect x="447" y="28" width="3" height="90" fill="#225175"/>
<rect x="474" y="28" width="3" height="90" fill="#225175"/>
<rect x="501" y="28" width="3" height="90" fill="#225175"/>
<rect x="528" y="28" width="3" height="90" fill="#225175"/>
<rect x="555" y="28" width="3" height="90" fill="#225175"/>
<rect x="582" y="28" width="3" height="90" fill="#225175"/>
<rect x="609" y="28" width="3" height="90" fill="#225175"/>
<rect x="636" y="28" width="3" height="90" fill="#225175"/>
<rect x="231" y="118" width="30" height="2" fill="#225175"/>
<rect x="285" y="118" width="30" height="2" fill="#225175"/>
<rect x="339" y="118" width="30" height="2" fill="#225175"/>
<rect x="393" y="118" width="30" height="2" fill="#225175"/>
<rect x="447" y="118" width="30" height="2" fill="#225175"/>
<rect x="501" y="118" width="30" height="2" fill="#225175"/>
<rect x="555" y="118" width="30" height="2" fill="#225175"/>
<rect x="609" y="118" width="30" height="2" fill="#225175"/>
<rect x="208" y="125" width="21" height="7" rx="3.5" fill="#225175"/>
<rect x="477" y="125" width="21" height="7" rx="3.5" fill="#225175"/>
<rect x="204" y="1" width="7" height="2" fill="#1E5074"/>
<rect x="283" y="1" width="7" height="2" fill="#1E5074"/>
<rect x="366" y="1" width="7" height="2" fill="#1E5074"/>
<rect x="445" y="1" width="7" height="2" fill="#1E5074"/>
<rect x="524" y="1" width="7" height="2" fill="#1E5074"/>
<rect x="603" y="1" width="7" height="2" fill="#1E5074"/>
<mask id="path-174-inside-3_4_202" fill="white">
<path d="M657 0H664V141H657V0Z"/>
</mask>
<path d="M657 0H664V141H657V0Z" fill="#58B7FC"/>
<path d="M664 0H665V-1H664V0ZM664 141V142H665V141H664ZM657 1H664V-1H657V1ZM663 0V141H665V0H663ZM664 140H657V142H664V140Z" fill="#1E5074" mask="url(#path-174-inside-3_4_202)"/>
</svg>
