<svg id="visual" viewBox="0 0 900 100" width="900" height="100" xmlns="http://www.w3.org/2000/svg" xmlns:xlink="http://www.w3.org/1999/xlink" version="1.1"><path d="M0 62L21.5 63.8C43 65.7 86 69.3 128.8 64.3C171.7 59.3 214.3 45.7 257.2 47C300 48.3 343 64.7 385.8 74.3C428.7 84 471.3 87 514.2 80.5C557 74 600 58 642.8 52C685.7 46 728.3 50 771.2 55C814 60 857 66 878.5 69L900 72L900 101L878.5 101C857 101 814 101 771.2 101C728.3 101 685.7 101 642.8 101C600 101 557 101 514.2 101C471.3 101 428.7 101 385.8 101C343 101 300 101 257.2 101C214.3 101 171.7 101 128.8 101C86 101 43 101 21.5 101L0 101Z" fill="#4EB9F4" stroke-linecap="round" stroke-linejoin="miter"></path></svg>