<?xml version="1.0" encoding="UTF-8"?>
<svg id="a" data-name="Warstwa 1" xmlns="http://www.w3.org/2000/svg" xmlns:xlink="http://www.w3.org/1999/xlink" viewBox="0 0 415.02 312.26">
  <defs>
    <linearGradient id="b" data-name="Gradient bez nazwy 526" x1="55.79" y1="212.56" x2="221.67" y2="212.56" gradientUnits="userSpaceOnUse">
      <stop offset=".06" stop-color="#52c9f4"/>
      <stop offset="1" stop-color="#020203"/>
    </linearGradient>
    <linearGradient id="c" data-name="Gradient bez nazwy 1137" x1="92.93" y1="100.41" x2="323.2" y2="100.41" gradientUnits="userSpaceOnUse">
      <stop offset="0" stop-color="#52c9f4"/>
      <stop offset=".41" stop-color="#51c7f2"/>
      <stop offset=".56" stop-color="#4ec0eb"/>
      <stop offset=".66" stop-color="#4ab5df"/>
      <stop offset=".75" stop-color="#43a4ce"/>
      <stop offset=".82" stop-color="#3b8fb8"/>
      <stop offset=".88" stop-color="#31759d"/>
      <stop offset=".94" stop-color="#24557d"/>
      <stop offset=".99" stop-color="#163258"/>
      <stop offset="1" stop-color="#152e54"/>
    </linearGradient>
    <linearGradient id="d" data-name="Gradient bez nazwy 1134" x1="161.47" y1="117.04" x2="319.56" y2="117.04" gradientUnits="userSpaceOnUse">
      <stop offset="0" stop-color="#52c9f4"/>
      <stop offset="1" stop-color="#152e54"/>
    </linearGradient>
    <linearGradient id="e" data-name="Gradient bez nazwy 1201" x1="223.73" y1="189.09" x2="296.56" y2="189.09" gradientUnits="userSpaceOnUse">
      <stop offset="0" stop-color="#152e54"/>
      <stop offset="0" stop-color="#3c5170"/>
      <stop offset="0" stop-color="#697991"/>
      <stop offset="0" stop-color="#919daf"/>
      <stop offset="0" stop-color="#b3bbc7"/>
      <stop offset="0" stop-color="#cfd4dc"/>
      <stop offset="0" stop-color="#e4e7eb"/>
      <stop offset="0" stop-color="#f3f4f6"/>
      <stop offset="0" stop-color="#fcfcfd"/>
      <stop offset="0" stop-color="#fff"/>
      <stop offset="0" stop-color="#231f20"/>
    </linearGradient>
    <linearGradient id="f" data-name="Gradient bez nazwy 1195" x1="118.06" y1="121.37" x2="270.31" y2="121.37" gradientUnits="userSpaceOnUse">
      <stop offset="0" stop-color="#152e54"/>
      <stop offset=".03" stop-color="#162c4f"/>
      <stop offset=".21" stop-color="#1b263a"/>
      <stop offset=".41" stop-color="#1f222b"/>
      <stop offset=".64" stop-color="#221f22"/>
      <stop offset="1" stop-color="#231f20"/>
    </linearGradient>
    <linearGradient id="g" data-name="Gradient bez nazwy 1131" x1="109.79" y1="117.54" x2="299.36" y2="117.54" gradientUnits="userSpaceOnUse">
      <stop offset="0" stop-color="#52c9f4"/>
      <stop offset="1" stop-color="#142e54"/>
    </linearGradient>
  </defs>
  <path d="M109.72,189.45c.93.11,1.73-.72,2.28-1.28,4.15-4.26,8.02-8.8,12.22-13,.89-.89,1.87-1.81,1.67-2.78-.27-1.28-2.33-1.43-5.43-3.43-1.01-.65-1.66-1.2-2.96-2.3-3.85-3.26-6.47-7.25-7.33-8.61-2.78-4.39-3.54-7.27-6.83-16.94-5.95-17.48-2.04-3.91-10.78-26-.54-1.36-1.58-4.02-2.44-3.89-1.3.19-1.36,6.58-1.39,10.39-.1,10.82,1.33,18.97,1.67,20.83,1.14,6.3,2.55,11.02,3.44,14,.77,2.54,1.99,6.55,4.11,11.67,1.95,4.7,3.81,8.26,4.78,10.06,2.52,4.66,2.31,3.45,3.7,6.33,1.35,2.79,1.95,4.79,3.3,4.95Z" style="fill: #231f20; stroke-width: 0px;"/>
  <line x1="98.63" y1="266.65" x2="216.53" style="fill: none; stroke-width: 0px;"/>
  <path d="M78.61,193.11c-2.44-.22-10.55-.65-16.61,4.89-.4.37-1.8,1.68-3.11,3.78-5.16,8.22-2.4,17.81-2.08,18.86,2.84,9.36,11.19,14.02,13.83,15.5,23.61,13.19,60.51-5.51,73.58-12.14,7.56-3.83,23.67-13.69,45.33-20.67,10.8-3.48,18.37-4.64,24-.86,4.98,3.34,6.13,8.97,7.3,8.56,1.69-.6,1.16-13.13-5.56-19.2-1.66-1.5-5.42-4.15-10.34-5.83,0,0-.7-.23-1.4-.44-9.14-2.72-17.11-.33-27.56,2.89-6.66,2.05-9.52,3.62-19.33,8-11.75,5.24-23.34,10.37-36.55,14.61-20.62,6.63-27.7,5.47-31.45,4.5-1.61-.42-15.94-4.12-16.44-12.22-.31-4.99,4.78-9.03,6.39-10.22Z" style="fill: url(#b); stroke-width: 0px;"/>
  <path d="M205.13,144.6c0-.16-11.2-2.34-25.82.29-6.94,1.25-7.02,2.21-12.83,3-6.87.93-18.3,2.49-26.08-3.33-8.54-6.38-10.92-20.31-7.67-30.38,7.45-23.04,44.6-26.35,47.08-26.54,0,0,29.56-2.27,63.67,18.88.61.38,1.62,1.05,1.69.97.22-.29-9.7-9.78-23.77-16.63-4.44-2.16-7.94-3.4-10.17-4.18-6.23-2.18-18.94-6.5-35.56-5.83-5.66.23-12.26.55-20.39,3.44-4.44,1.58-12.29,4.48-19.5,11.72-3.73,3.75-11.75,11.81-12.5,24.5-.12,2.02-.77,17.07,10.28,26.06,8.71,7.08,19.72,6.35,25.11,5.99,5.59-.37,11.28-1.91,14.17-2.69,6.55-1.77,7.44-2.77,12.19-4.03,11.18-2.96,20.09-1.09,20.1-1.24Z" style="fill: #231f20; stroke-width: 0px;"/>
  <path d="M247.64,208.89c-2.16.74-4.41,1.43-6.75,2.08-8.96,2.48-15.65,3.22-24.67,4.17-9.22.97-10.57.62-11.58.25-4.17-1.52-5.78-4.39-10.17-4.5-1.46-.04-2.99.45-6,1.42-2.03.65-5.65,1.84-9.67,3.83-2.23,1.35-4.05,2.36-5.19,2.97-5.24,2.8-8.37,3.92-12.11,7.14-1.82,1.57-2.73,2.37-2.64,3.28.08.8.94,2.88,14.81,5.24,8.16,1.39,14.49,1.84,17.14,1.96,19.6.88,29.41,1.16,33.92.5,3.88-.57,8.75-1.47,14.33-3.14,6.71-2.02,12.2-4.47,16.34-6.61" style="fill: #231f20; stroke: #231f20; stroke-miterlimit: 10; stroke-width: .5px;"/>
  <polygon points="170.15 153.23 229.91 153.23 232.33 169 167.72 169 170.15 153.23" style="fill: #231f20; stroke-width: 0px;"/>
  <path d="M225.97,24.31c24.66,4.72,40.53,17.38,44.75,20.92,10.47,8.77,16.36,17.57,20.09,23.22,4.04,6.13,12.5,19.24,16.25,38.28,1.45,7.35,2.17,15.47,1.67,25.42-1.22,24.07-8.91,44.27-14.94,57.53,1.66,1.86,3.28,3.58,4.9,5.15,8.12-10.58,18-27.64,22.29-48.6,1-4.9,4.5-23.7-.08-47.25-3.73-19.15-11.02-32.25-12.83-35.42-2.37-4.13-8.11-13.54-18-23.42-18.34-18.32-38.65-25.99-48.92-29.08-21.91-6.61-39.95-5.08-45.83-4.42-3.12.35-12.26,1.51-23.32,5.21-10.64,3.56-46.26,15.47-65.85,50.96-3.22,5.84-21.64,39.21-8.58,67.83,5.41,11.86,15.06,20.35,15.71,19.89.71-.51-9.84-11.48-13.21-26.8-3.94-17.89,3.67-33.67,7.5-41.63,16.68-34.62,53.78-54.63,86.08-58.7,15.63-1.97,27.91.07,32.33.92Z" style="fill: url(#c); stroke-width: 0px;"/>
  <path d="M298.85,194.99c.3-.37.6-.75.89-1.13" style="fill: none; stroke: #231f20; stroke-miterlimit: 10; stroke-width: 4px;"/>
  <path d="M161.14,229.31c14.23,6.16,29.93,9.58,46.42,9.58,33.07,0,62.92-13.73,84.18-35.8" style="fill: none; stroke: #231f20; stroke-miterlimit: 10; stroke-width: 4px;"/>
  <path d="M110.09,186.56c.08.12.16.24.24.36" style="fill: none; stroke: #231f20; stroke-miterlimit: 10; stroke-width: 4px;"/>
  <path d="M299.74,193.86c15.47-19.82,24.7-44.76,24.7-71.86,0-64.56-52.33-116.89-116.89-116.89s-116.89,52.33-116.89,116.89c0,23.86,7.15,46.06,19.43,64.55" style="fill: none; stroke: #231f20; stroke-miterlimit: 10; stroke-width: 4px;"/>
  <path d="M268.47,63.14c9.49,6.07,23.22,15.11,31.67,33,1.64,3.47,9.9,21.59,5.42,43.92-.39,1.96-4.15,19.82-14.47,28.42-2.84,2.36-5.7,4.74-9.74,6.21.35.44.72.9,1.1,1.37,6.03,7.49,10.92,13.49,15.73,18.26.56-.73,1.15-1.51,1.8-2.4,1.23-1.69,2.35-3.22,4-5.78,2.68-4.14,5.69-8.84,8.39-15.22,0,0,1.78-4.21,3.19-9.11,8.24-28.59,1.19-53,1.19-53-6.95-23.52-21.98-37.03-28.78-43-27.6-24.24-59.82-25.71-69.33-26-31.17-.96-57.33,11.19-57.17,11.83.1.39,9.83-3.07,24.28-4.72,11.73-1.35,48.64-5.58,82.72,16.22Z" style="fill: url(#d); stroke-width: 0px;"/>
  <g>
    <path d="M270.57,183.75c-6.84-7.23-7.55-10.18-15.01-16.19-9.66-7.78-20.02-12.12-21.96-12.92-4.28-1.76-7.43-2.93-9.87-3.79l31.15,76.48,41.68-15.33-5.54-11.2c-10.26-6.3-17.36-13.81-20.45-17.06Z" style="fill: url(#e); stroke-width: 0px;"/>
    <path d="M204.11,98.42s2.06,5.06,2.56,6.72c.29.97,5.12,14.07,9.12,24.9,14.92,9.69,34.57,8.09,52.29,26.47.94.98,1.65,1.78,2.24,2.5l-62.09-125.37h-6.11l-84.05,175.44,46.83-21.17,34.67-89.5h4.56Z" style="fill: url(#f); stroke-width: 0px;"/>
  </g>
  <path d="M277.89,93.06c-9.08-10.62-28.72-30.33-59.42-39-14.56-4.11-26.83-4.39-32.99-4.27-10.24.2-30.31.83-50.6,13.44-6.9,4.29-19.44,12.31-27.58,28.17-3.15,6.14-8.78,17.09-7.08,31.5,1.22,10.38,5.67,18.11,8.89,22.56,1.87,2.59,12.37,17.07,30.11,19.26,9.8,1.21,18.35-1.75,25.99-4.4,4.86-1.69,9.48-3.83,9.35-4.22-.2-.58-10.39,4.12-19.91,4.4-9.06.26-21.38-3.36-36.5-19.51-2.56-3.61-7.1-11.16-7.58-21.5-.52-11.04,3.88-19.15,6.58-24,1.3-2.33,5.2-8.95,13.59-16.08,18.01-15.32,39.25-18.16,49.39-19.39,3.82-.46,20.52-2.29,40.78,2.56,10.01,2.39,18.24,5.78,23.67,8.33,6.97,3.28,12.36,6.6,15.83,8.92,7.95,5.29,14.14,10.73,18.72,15.3" style="fill: #86d4ef; stroke-width: 0px;"/>
  <path d="M208.78,145.56c-8.97-2.95-17.65-1.16-23.67.11-9.1,1.93-8.27,3.36-15,4.78-5.42,1.14-17.56,3.71-29-2.56-1.47-.81-13.9-7.86-16.33-20.78-3.66-19.47,18.45-35.91,21.33-38,33.43-24.18,80.75-1.35,83-.22,20.36,10.18,31.07,25.36,33.11,28.33,4.34,6.32,10.45,15,12.33,27.56,1.17,7.82.15,14.19-.97,19.16,1.45,2.34,3.7,5.71,8.81,12.06,6.2-2.37,13.25-7.94,15.77-14.94,1.63-4.53,1.31-9.51.67-19.44-.13-2.07-.4-6.74-1.28-11.28-2.53-13.15-10.19-24.69-12.33-27.67-14.04-19.54-33.77-29.24-39.78-32.11-30.66-14.66-58.88-11.43-65.33-10.56-14.03,1.89-40.12,5.41-57.11,26.67-4.24,5.3-16.1,20.14-12.56,38.89,3.08,16.27,15.87,25.22,19.11,27.33,13.41,8.73,30.79,9.27,41.83,5.09,6.97-2.64,14.06-4.94,21-7.67,1.18-.46,3.57-1.41,6.9-2.02,4.92-.9,9.26-.56,9.97-.5,3.18.27,5.14.85,5.24.55.12-.38-2.86-1.84-5.72-2.78Z" style="fill: url(#g); stroke-width: 0px;"/>
  <path d="M336.39,193.06c-.13.27,2.84,1.01,4.33,3.75,2.2,4.04.21,10.58-2.75,13.58-7.95,8.06-31.61-.59-46.92-10.17-6.15-3.85-3.99-3.49-29.75-25.25-16.25-13.73-20.2-16.48-25.75-19.25-1.69-.84-9.66-5.19-19.16-7.05-6.34-1.24-11.31-1.01-12.34-.95-.15,0-2.47.06-4.87.52-5.05.97-9.12,3.25-21.63,7.39-6.91,2.29-24.37,10.93-38.67,9.03-22.33-2.97-40.94-29.66-43.75-52.36-1.43-11.54,1.09-23.2.26-23.31-.71-.09-3.21,8.16-3.63,16.97-.9,18.62,7.42,40.4,24.79,53.36,1.56,1.16,8.11,5.93,19.45,9.47,36.94,11.53,58.53-13.95,89.33-1.47,9.24,3.74,15.84,9.46,19.81,12.89,15.57,13.47,17.27,24.78,25.33,34.92,21.66,27.22,76.36,29.88,87.75,13.08,4.45-6.56,3.12-17.3-1.33-24-6.52-9.81-20.24-11.72-20.5-11.17Z" style="fill: #231f20; stroke-width: 0px;"/>
  <text transform="translate(0 297.62)" style="fill: #231f20; font-family: Prime-Regular, Prime; font-size: 60px;"><tspan x="0" y="0">APPROXIM</tspan><tspan x="304.14" y="0" style="letter-spacing: -.08em;">A</tspan><tspan x="344.28" y="0" style="letter-spacing: 0em;">TE</tspan></text>
</svg>