<svg width="270" height="243" viewBox="0 0 270 243" fill="none" xmlns="http://www.w3.org/2000/svg">
<g clip-path="url(#clip0_52_2)">
<g filter="url(#filter0_d_52_2)">
<path d="M233.022 50.6668C299.076 146.439 245.343 170.382 174.498 200.139C31.0126 260.409 61.9481 223.66 32.1725 141.57C3.42366 80.0021 -22.2947 57.8498 84.4867 37.3273C149.272 24.8761 166.968 -45.1051 233.022 50.6668Z" fill="#68A8CD"/>
</g>
<mask id="mask0_52_2" style="mask-type:luminance" maskUnits="userSpaceOnUse" x="49" y="27" width="158" height="143">
<path d="M207 27H49V170H207V27Z" fill="white"/>
</mask>
<g mask="url(#mask0_52_2)">
<path d="M207 159.729V162.643C207 163.647 204.755 164.464 201.996 164.464H59.1777C57.8832 164.464 56.7011 164.284 55.8124 163.988C55.7176 163.957 55.625 163.924 55.5368 163.89C54.6921 163.564 54.1739 163.125 54.1739 162.643V159.729C97.6513 157.117 151.121 158.001 207 159.729Z" fill="#F2F2F2"/>
<path d="M207 162.939V165.853C207 166.856 204.755 167.673 201.996 167.673H59.1777C57.8832 167.673 56.7011 167.493 55.8124 167.197C55.7176 167.167 55.625 167.134 55.5368 167.099C54.6921 166.774 54.1739 166.335 54.1739 165.853V162.939C94.1931 160.991 148.652 161.618 207 162.939Z" fill="white"/>
<path d="M207 165.266V168.179C207 169.183 204.755 170 201.996 170H59.1777C57.8832 170 56.7011 169.82 55.8124 169.524C55.7176 169.494 55.625 169.461 55.5368 169.426C54.6921 169.101 54.1739 168.662 54.1739 168.179V165.266C97.4748 163.63 150.23 164.018 207 165.266Z" fill="#F2F2F2"/>
<path d="M195.603 157.973C195.819 157.988 195.938 157.701 195.775 157.534L195.758 157.465L195.765 157.448C195.983 156.892 196.722 156.896 196.938 157.453C197.13 157.947 197.374 158.443 197.435 158.966C197.462 159.197 197.449 159.432 197.402 159.658C197.851 158.607 198.088 157.46 198.088 156.305C198.088 156.015 198.073 155.725 198.043 155.436C198.018 155.2 197.983 154.964 197.939 154.731C197.698 153.472 197.177 152.272 196.425 151.27C196.064 151.059 195.763 150.729 195.581 150.333C195.515 150.19 195.464 150.036 195.44 149.88C195.481 149.885 195.595 149.215 195.564 149.174C195.621 149.081 195.724 149.035 195.786 148.944C196.098 148.492 196.526 148.571 196.75 149.185C197.229 149.443 197.233 149.871 196.94 150.283C196.753 150.546 196.727 150.9 196.564 151.181C196.58 151.204 196.598 151.226 196.615 151.249C196.924 151.674 197.191 152.129 197.417 152.608C197.353 152.076 197.447 151.435 197.607 151.021C197.79 150.55 198.132 150.154 198.433 149.747C198.795 149.257 199.536 149.471 199.6 150.091L199.602 150.109C199.557 150.136 199.513 150.165 199.471 150.195C199.226 150.368 199.311 150.773 199.6 150.821L199.607 150.822C199.591 150.994 199.563 151.165 199.522 151.333C199.909 152.932 199.075 153.514 197.884 153.54C197.857 153.555 197.832 153.569 197.805 153.583C197.926 153.947 198.022 154.319 198.094 154.697C198.158 155.031 198.202 155.369 198.227 155.708C198.258 156.136 198.256 156.566 198.222 156.993L198.224 156.978C198.31 156.507 198.548 156.068 198.895 155.764C199.411 155.31 200.14 155.143 200.697 154.778C200.965 154.603 201.309 154.829 201.262 155.162L201.26 155.178C201.177 155.214 201.096 155.256 201.018 155.303C200.973 155.33 200.929 155.358 200.886 155.389C200.642 155.562 200.727 155.967 201.016 156.014L201.022 156.015L201.036 156.018C200.894 156.379 200.695 156.714 200.447 157.004C200.206 158.399 199.168 158.532 198.058 158.125C197.937 158.691 197.759 159.244 197.531 159.77H195.65C195.643 159.748 195.637 159.725 195.631 159.702C195.805 159.714 195.98 159.703 196.152 159.669C196.012 159.486 195.873 159.301 195.733 159.118C195.73 159.114 195.727 159.111 195.724 159.107C195.653 159.013 195.582 158.92 195.511 158.827C195.507 158.539 195.539 158.252 195.603 157.973Z" fill="#F2F2F2"/>
<path d="M112.023 155.849C112.238 155.864 112.358 155.577 112.194 155.41L112.178 155.341L112.185 155.324C112.403 154.768 113.142 154.772 113.358 155.329C113.55 155.824 113.794 156.319 113.854 156.842C113.881 157.073 113.869 157.308 113.821 157.535C114.271 156.483 114.508 155.336 114.508 154.182C114.508 153.892 114.493 153.602 114.462 153.312C114.437 153.076 114.403 152.841 114.359 152.608C114.118 151.348 113.597 150.148 112.845 149.147C112.484 148.935 112.182 148.605 112 148.209C111.935 148.066 111.884 147.912 111.859 147.756C111.901 147.761 112.015 147.091 111.984 147.05C112.041 146.957 112.143 146.911 112.206 146.82C112.517 146.369 112.946 146.447 113.17 147.061C113.648 147.319 113.653 147.748 113.359 148.16C113.173 148.422 113.147 148.776 112.983 149.057C113 149.08 113.018 149.102 113.035 149.126C113.344 149.55 113.611 150.006 113.836 150.485C113.773 149.952 113.867 149.311 114.027 148.898C114.209 148.427 114.551 148.03 114.853 147.623C115.214 147.134 115.956 147.347 116.02 147.967L116.022 147.985C115.977 148.012 115.933 148.041 115.89 148.071C115.646 148.244 115.731 148.649 116.02 148.697L116.026 148.698C116.01 148.87 115.983 149.041 115.942 149.209C116.329 150.808 115.494 151.39 114.303 151.417C114.277 151.431 114.251 151.445 114.225 151.459C114.346 151.823 114.442 152.196 114.514 152.574C114.578 152.908 114.622 153.245 114.647 153.584C114.678 154.012 114.675 154.442 114.642 154.869L114.644 154.854C114.729 154.384 114.968 153.944 115.315 153.64C115.831 153.186 116.56 153.019 117.117 152.654C117.385 152.479 117.729 152.706 117.682 153.038L117.679 153.054C117.597 153.09 117.516 153.132 117.437 153.179C117.393 153.206 117.349 153.235 117.306 153.265C117.062 153.438 117.146 153.843 117.436 153.891L117.442 153.892L117.456 153.894C117.313 154.255 117.115 154.591 116.867 154.88C116.625 156.276 115.588 156.408 114.478 156.002C114.357 156.567 114.179 157.12 113.951 157.646H112.07C112.063 157.624 112.057 157.601 112.051 157.579C112.225 157.59 112.4 157.579 112.571 157.545C112.432 157.362 112.292 157.177 112.153 156.994C112.149 156.991 112.147 156.987 112.144 156.983C112.073 156.89 112.002 156.797 111.931 156.703C111.927 156.415 111.959 156.128 112.023 155.849Z" fill="#F2F2F2"/>
<path d="M175.808 158.19H174.646L174.093 153.395H175.808V158.19Z" fill="#FFB6B6"/>
<path d="M175.849 159.487H172.276V159.439C172.276 158.617 172.899 157.951 173.667 157.951L174.319 157.421L175.537 157.951H175.849V159.487Z" fill="#2F2E41"/>
<path d="M190.872 151.373L190.122 152.322L186.343 149.677L187.451 148.276L190.872 151.373Z" fill="#FFB6B6"/>
<path d="M191.824 152.177L189.517 155.096L189.482 155.065C188.896 154.534 188.822 153.595 189.318 152.968L189.362 152.092L190.526 151.44L190.728 151.185L191.824 152.177Z" fill="#2F2E41"/>
<path d="M181.481 122.917L175.252 123.691L172.797 128.191L172.444 129.698L172.604 130.734L172.21 131.456L172.444 132.838L171.506 143.762L174.087 156.068H176.493L175.73 144.641L177.725 134.847L179.486 144.39L187.626 151.976L189.523 149.067L183.241 143.386L182.654 141.376L183.445 139.678L184.062 128.443L181.481 122.917Z" fill="#2F2E41"/>
<path d="M178.515 127.035C178.515 127.035 182.443 128.344 182.857 126.863C183.27 125.383 182.754 123.552 182.363 123.358C181.971 123.163 182.435 121.887 182.87 121.034C183.304 120.181 183.237 119.712 182.988 119.61C182.738 119.507 178.85 109.175 178.85 109.175L177.528 108.878L176.468 107.486L174.218 107.777L173.298 109.599L171.756 110.473L171.193 116.017C171.193 116.017 171.47 118.393 172.034 120.892C172.209 121.67 172.412 122.459 172.644 123.193C173.188 124.921 173.889 126.339 174.749 126.561C177.148 127.18 178.515 127.035 178.515 127.035Z" fill="white"/>
<path d="M165.114 117.311L164.313 117.468L164.127 117.505L163.83 117.564L157.645 118.782C157.321 119.008 156.895 118.971 156.608 118.692C156.277 118.365 156.258 117.811 156.563 117.458C156.569 117.452 156.574 117.447 156.58 117.441C156.899 117.083 157.429 117.063 157.772 117.395C157.805 117.429 157.835 117.465 157.862 117.504L158.029 117.446L158.553 117.263L158.948 117.126L159.735 116.85L160.04 116.744L161.03 116.399L161.984 116.066L163.14 115.663L164.029 115.353L164.206 115.672L165.114 117.311Z" fill="#FFB6B6"/>
<path d="M166.576 117.578C166.402 117.599 166.288 117.604 166.249 117.594C165.917 117.509 166.284 117.277 165.55 117.612C164.955 117.883 164.905 117.396 164.819 117.604C164.677 117.947 164.476 117.598 164.313 117.468C164.24 117.41 164.176 117.397 164.127 117.505C164.11 117.541 164.095 117.593 164.083 117.663C164.044 117.872 163.948 117.789 163.83 117.564C163.636 117.191 163.381 116.431 163.236 115.968C163.194 115.838 163.161 115.73 163.14 115.663C163.125 115.613 163.117 115.585 163.117 115.585C163.117 115.585 163.163 115.442 163.389 115.318C163.547 115.23 163.794 115.153 164.175 115.139C164.409 115.13 164.593 115.183 164.735 115.203C164.818 115.215 164.887 115.215 164.942 115.188L164.944 115.187C165.006 115.157 165.053 115.094 165.088 114.972C165.152 114.754 165.419 114.78 165.684 114.851C165.932 114.92 166.18 115.028 166.254 115.005C166.36 114.971 169.161 112.323 170.95 110.624C171.767 109.848 173.014 109.909 173.761 110.762L174.522 111.63C174.522 111.63 175.01 111.976 175.099 112.623C175.135 112.896 175.101 113.223 174.928 113.603C174.775 113.935 174.515 114.308 174.102 114.718C172.347 116.459 167.853 117.43 166.576 117.578Z" fill="white"/>
<path d="M184.056 118.177L184.352 118.99L184.42 119.178L184.531 119.479L186.817 125.748C187.085 126.046 187.132 126.5 186.93 126.855C186.692 127.264 186.188 127.389 185.805 127.135C185.799 127.13 185.793 127.125 185.787 127.121C185.398 126.852 185.28 126.299 185.52 125.876C185.545 125.836 185.572 125.797 185.603 125.761L185.517 125.596L185.251 125.081L185.05 124.691L184.649 123.916L184.494 123.616L183.99 122.641L183.505 121.702L182.917 120.563L182.464 119.688L182.724 119.441L184.056 118.177Z" fill="#FFB6B6"/>
<path d="M184.025 116.591C184.077 116.769 184.103 116.888 184.102 116.932C184.086 117.297 183.804 116.955 184.25 117.662C184.611 118.237 184.173 118.381 184.38 118.432C184.723 118.517 184.44 118.793 184.352 118.99C184.312 119.077 184.312 119.147 184.42 119.178C184.457 119.189 184.507 119.195 184.574 119.195C184.773 119.196 184.715 119.312 184.531 119.479C184.225 119.754 183.576 120.164 183.179 120.404C183.067 120.474 182.974 120.528 182.917 120.563C182.874 120.588 182.849 120.602 182.849 120.602C182.849 120.602 182.71 120.58 182.553 120.366C182.443 120.217 182.325 119.972 182.24 119.574C182.188 119.33 182.201 119.127 182.193 118.974C182.189 118.885 182.176 118.812 182.14 118.759L182.139 118.758C182.1 118.698 182.033 118.66 181.915 118.646C181.702 118.621 181.676 118.335 181.691 118.043C181.708 117.769 181.759 117.488 181.724 117.415C181.65 117.261 179.094 114.517 179.094 114.517L177.066 109.364C177.066 109.364 177.291 108.786 177.869 108.571C178.112 108.481 178.419 108.455 178.8 108.566C179.134 108.663 179.526 108.866 179.98 109.223C181.909 110.738 183.648 115.277 184.025 116.591Z" fill="white"/>
<path d="M174.617 107.171C176.111 107.171 177.322 105.874 177.322 104.275C177.322 102.676 176.111 101.38 174.617 101.38C173.122 101.38 171.911 102.676 171.911 104.275C171.911 105.874 173.122 107.171 174.617 107.171Z" fill="#FFB6B6"/>
<path d="M176.911 106.561C176.911 106.561 176.014 106.955 175.568 107.01C175.792 106.64 176.104 105.981 176.327 105.612C176.444 105.418 176.563 105.22 176.617 104.997C176.669 104.772 176.646 104.515 176.503 104.344C176.366 104.177 176.126 104.119 175.936 104.207C175.745 104.295 175.619 104.52 175.636 104.74C175.468 104.672 175.431 104.43 175.462 104.24C175.493 104.05 175.565 103.855 175.515 103.669C175.466 103.489 175.305 103.361 175.134 103.315C174.965 103.268 174.785 103.289 174.611 103.324C174.114 103.422 173.632 103.624 173.126 103.63C173.026 103.632 172.924 103.623 172.823 103.604C172.908 103.308 172.903 102.982 172.795 102.695C172.692 102.964 172.54 103.212 172.352 103.423C172.143 103.296 171.979 103.11 171.906 102.865C171.825 102.594 171.872 102.294 171.982 102.036C172.033 101.917 172.097 101.806 172.169 101.7C172.241 101.705 172.316 101.702 172.387 101.691C172.546 101.67 172.699 101.619 172.838 101.534C172.694 101.493 172.554 101.437 172.421 101.363C172.427 101.355 172.433 101.348 172.439 101.34C172.572 101.178 172.717 101.013 172.907 100.942C173.097 100.87 173.344 100.924 173.437 101.117C173.958 100.638 174.664 100.397 175.348 100.464C176.021 100.531 176.665 100.893 177.097 101.451C176.962 101.542 176.843 101.658 176.75 101.797C176.927 101.762 177.108 101.753 177.287 101.768C177.365 101.948 177.392 102.141 177.308 102.312C177.475 102.478 177.809 102.772 177.596 102.826C177.934 103.42 178.055 104.152 177.93 104.835C177.805 105.519 177.433 106.147 176.911 106.561Z" fill="#2F2E41"/>
<path d="M140.397 158.047H141.838L142.524 152.1L140.397 152.101V158.047Z" fill="#A0616A"/>
<path d="M140.347 159.655H144.777V159.595C144.777 158.576 144.005 157.75 143.053 157.75L142.243 157.093L140.733 157.75H140.347V159.655Z" fill="#2F2E41"/>
<path d="M128.281 156.711L129.645 157.209L132.088 151.817L130.075 151.083L128.281 156.711Z" fill="#A0616A"/>
<path d="M127.748 158.216L131.941 159.746L131.96 159.689C132.267 158.725 131.785 157.676 130.884 157.347L130.316 156.446L128.689 156.546L128.323 156.413L127.748 158.216Z" fill="#2F2E41"/>
<path d="M143.985 125.646C143.985 125.646 145.371 130.202 145.115 130.801C144.859 131.401 144.423 130.934 144.859 131.401C145.296 131.868 145.677 131.371 145.268 132.165C144.859 132.958 144.24 139.488 143.968 139.804C143.695 140.121 143.321 140.129 143.653 140.436C143.986 140.743 144.423 140.121 143.986 140.743C143.55 141.366 142.391 155.734 142.391 155.734H140.128C140.128 155.734 139.565 155.039 139.884 154.587C140.203 154.134 139.856 153.96 139.884 153.658C139.912 153.356 139.806 152.705 139.786 152.407C139.766 152.11 139.384 145.03 140.303 140.94L138.627 133.153L136.598 142.565C136.598 142.565 133.341 149.516 132.408 152.054C132.408 152.054 133.16 152.725 132.826 153.113C132.493 153.502 132.202 153.19 132.493 153.502C132.784 153.813 132.056 154.903 132.056 154.903L128.7 154.748L132.372 140.94C132.372 140.94 132.136 139.402 132.372 139.138C132.608 138.875 132.608 139.809 132.608 138.875V137.629C132.608 137.629 132.745 129.968 132.763 129.516C132.781 129.065 134.528 125.795 134.528 125.795L143.985 125.646Z" fill="#2F2E41"/>
<path d="M143.929 109.911V118.894C143.929 118.894 143.506 120.135 143.515 121.591C143.524 123.118 143.838 124.878 143.837 125.648C143.837 125.781 143.828 125.883 143.806 125.951C142.416 130.26 135.064 126.344 134.395 125.977C134.364 125.96 134.347 125.951 134.347 125.951L134.492 121.124L134.467 119.736L134.295 110.215L134.449 110.083L135.798 108.932L135.93 108.819L136.335 109.452L139.947 109.186L141.326 108.778L141.756 108.965L143.695 109.809L143.929 109.911Z" fill="#3F3D56"/>
<path d="M154.792 121.963L152.745 120.134L151.606 121.239L153.833 123.091C153.849 123.181 153.878 123.271 153.92 123.357C154.149 123.824 154.688 124.004 155.124 123.76C155.561 123.515 155.73 122.938 155.501 122.471C155.355 122.173 155.083 121.992 154.792 121.963Z" fill="#A0616A"/>
<path d="M142.104 109.728C141.629 110.438 141.939 111.587 142.217 112.408C142.575 113.462 146.914 118.055 148.022 118.3C148.882 118.489 148.698 118.47 148.924 119.061C149.151 119.652 148.475 119.482 149.306 119.92C150.137 120.359 150.284 120.014 150.323 120.482C150.363 120.95 150.113 121.116 150.705 121.341C151.297 121.567 151.4 121.745 151.587 121.869C151.774 121.992 152.799 123.166 152.799 123.166C152.799 123.166 153.877 121.835 154.731 121.517C154.731 121.517 153.34 120.708 153.352 120.33C153.364 119.951 153.563 119.696 153.158 119.594C152.752 119.492 152.386 119.857 152.649 119.313C152.911 118.769 150.559 116.497 150.559 116.497C149.689 114.395 147.393 112.141 144.831 109.858C144.052 109.165 142.937 109.111 142.104 109.728Z" fill="#3F3D56"/>
<path d="M133.481 127.799L133.366 124.949L131.835 124.792L132.057 127.8C132.005 127.874 131.962 127.957 131.931 128.048C131.763 128.543 132.001 129.091 132.464 129.272C132.928 129.452 133.44 129.197 133.608 128.701C133.716 128.385 133.657 128.049 133.481 127.799Z" fill="#A0616A"/>
<path d="M135.081 109.937L135.038 109.943C134.228 110.045 133.517 110.568 133.139 111.341C132.651 112.334 131.109 119.06 131.487 119.983C131.839 120.843 131.824 120.632 131.568 121.209C131.313 121.786 130.975 121.137 131.232 122.089C131.489 123.042 131.826 122.926 131.529 123.272C131.233 123.619 130.95 123.532 131.193 124.153C131.436 124.773 131.382 124.975 131.423 125.206C131.463 125.437 131.343 127.038 131.343 127.038C131.343 127.038 132.988 126.994 133.784 127.455C133.784 127.455 133.405 125.811 133.675 125.565C133.944 125.32 134.254 125.305 134.052 124.915C133.849 124.526 133.35 124.483 133.903 124.324C134.456 124.165 134.44 120.774 134.44 120.774L135.081 109.937Z" fill="#3F3D56"/>
<path d="M139.025 106.305C138.961 106.321 138.896 106.335 138.831 106.345C138.631 106.38 138.43 106.391 138.235 106.378C137.641 106.345 137.081 106.111 136.628 105.724C136.149 105.316 135.791 104.739 135.641 104.052C135.289 102.431 136.231 100.81 137.746 100.432C139.239 100.059 140.731 101.033 141.113 102.612C141.119 102.636 141.125 102.66 141.13 102.684C141.482 104.306 140.541 105.927 139.025 106.305Z" fill="#A0616A"/>
<path d="M136.425 105.949C136.033 105.621 135.995 104.996 135.66 104.601C135.101 103.942 134.839 103.233 135.132 102.452C135.391 101.761 135.336 100.912 135.893 100.467C135.619 100.361 135.555 100.14 135.797 100.136C135.96 100.133 136.568 100.467 136.275 100.052C135.983 99.6362 136.536 99.8001 136.5 99.6301C136.463 99.4601 136.228 99.3659 136.125 99.5007C136.455 99.0862 137.177 99.1746 137.412 99.6583C137.741 99.1298 138.091 98.7662 138.596 99.1015C139.091 99.4309 139.084 99.8381 139.617 99.7402C139.867 99.6942 139.891 100.2 140.062 100.401C140.233 100.602 140.483 100.758 140.733 100.707C140.982 100.657 141.173 100.324 141.033 100.097L141.622 101.533L141.859 101.222C142.235 101.485 142.112 102.17 141.733 102.429C141.353 102.688 140.629 102.09 140.424 102.518C140.099 103.192 139.338 102.852 138.815 102.375C138.182 101.797 137.417 103.554 137.722 104.383C137.405 104.051 136.819 104.327 136.655 104.768C136.491 105.21 136.611 105.707 136.733 106.164L136.425 105.949Z" fill="#2F2E41"/>
<path d="M141.791 108.965L141.693 109.099L141.429 109.458L140.451 112.549L135.833 108.932L135.965 108.819L136.668 107.22L140.28 106.954L141.361 108.778L141.791 108.965Z" fill="#E6E6E6"/>
<path d="M188.127 60.0772C189.781 56.8208 190.855 53.628 191.239 50.6831C189.705 50.4912 188.349 50.6249 187.165 51.0504C189.204 47.4143 190.565 42.9364 188.793 40.6377C187.677 39.3706 186.235 38.422 184.53 37.7919C185.082 35.0617 185.088 32.5038 184.46 30.2549C181.544 19.7848 162.248 38.6485 149.934 30.4838C144.771 27.0622 139.214 31.3735 134.713 38.3063C135.331 40.6118 136.471 42.7544 138.072 44.4369C136.032 44.2812 134.025 43.6393 132.239 42.5727C127.422 51.8205 124.511 63.3973 125.969 68.6312C126.915 72.0268 129.18 74.3087 132.358 75.4838C131.806 78.214 143.719 97.8127 145.914 97.7923C151.749 97.7382 153.563 83.5557 157.459 101.731L148.781 158.437H161.351V99.9559C164.848 94.1774 168.461 98.0424 176.788 93.5448C202.327 79.75 191.439 64.5455 188.127 60.0772Z" fill="#F2F2F2"/>
<path d="M83.2406 137.18L83.4438 141.38L85.3096 141.926C85.3096 141.926 84.5117 137.008 84.4617 136.86C84.5763 136.681 84.6387 136.462 84.6252 136.229C84.5932 135.673 84.146 135.25 83.6264 135.284C83.1068 135.319 82.7115 135.797 82.7436 136.353C82.7645 136.715 82.9621 137.02 83.2406 137.18Z" fill="#FFB6B6"/>
<path d="M76.526 146.568L76.4821 146.667C76.3349 146.704 76.3591 146.66 76.526 146.568Z" fill="white"/>
<path d="M84.5295 145.674C83.5173 145.379 82.4764 145.298 81.4884 145.343C80.4409 145.388 79.4552 145.574 78.6348 145.792C78.4826 145.232 78.3393 144.64 78.2357 144.081L79.3515 143.304L80.5799 142.844L83.1512 141.881L83.1182 140.388L83.3894 140.253L84.9133 139.501L84.9485 139.484L86.0446 142.665C86.4658 143.951 85.7645 145.343 84.5295 145.674Z" fill="white"/>
<path d="M104.964 69.9136C104.519 65.412 98.4871 65.5414 99.8327 61.208C97.2723 62.4233 94.9171 64.1152 92.935 66.2437C98.368 47.2227 77.3293 61.6884 77.3293 61.6884C77.3293 61.6884 71.5165 59.0085 69.8772 57.7934C63.331 53.0252 53.2249 64.8741 61.619 71.2863C52.2833 66.5705 51.4996 73.8804 49.8808 82.3796C50.4982 84.6851 51.6384 86.8276 53.2398 88.5104C50.6042 88.3554 48.0405 86.3193 49.3559 90.4506C51.7211 95.5337 55.6843 96.4561 54.8893 102.77C54.9485 108.259 65.0546 109.667 76.0508 108.504C69.7751 127.629 66.3643 145.381 69.37 160.056H80.1312C76.4132 142.363 75.5988 125.021 78.7985 108.162C91.0048 106.423 103.37 101.715 103.657 96.0566C105.125 91.9507 104.618 87.4106 102.572 83.1277C105.033 78.2831 105.994 73.6155 104.964 69.9136Z" fill="#F2F2F2"/>
<path d="M79.0217 147.994L79.3963 149.716C79.3963 149.716 79.4 151.304 79.6629 151.597C79.9239 151.888 85.6634 151.303 85.6634 151.303C85.6634 151.303 85.0549 148.744 85.063 146.808L79.0217 147.994Z" fill="#FFB6B6"/>
<path d="M101.159 163.711L102.147 162.949L99.8461 158.4L98.3881 159.525L101.159 163.711Z" fill="#FFB6B6"/>
<path d="M104.968 161.512C104.951 161.486 104.933 161.463 104.913 161.439C104.856 161.375 104.785 161.326 104.71 161.297L104.706 161.295C104.62 161.26 104.527 161.25 104.434 161.264L104.027 161.333L102.448 161.595L102.115 161.651L101.515 160.976L101.283 161.241L100.485 162.156L100.282 162.388L100.125 162.567L102.055 165.144L102.717 164.471L102.242 163.683L103.138 164.044L103.643 163.53L103.98 163.19L104.893 162.262C104.984 162.17 105.037 162.055 105.056 161.932C105.078 161.788 105.05 161.637 104.968 161.512Z" fill="#2F2E41"/>
<path d="M100.569 159.424L98.7814 160.28C96.9299 158.185 95.0669 155.494 93.8995 151.092C91.233 154.786 88.8839 156.878 85.6949 158.712C84.618 159.336 80.7224 159.56 80.1163 158.392C80.088 158.337 80.0616 158.281 80.0372 158.225C79.4801 156.911 79.9727 153.492 79.6575 151.755C80.809 149.493 83.6183 151.32 85.5401 150.43L87.6902 151.429L91.678 146.356C92.48 145.335 93.9161 145.224 94.8856 146.106C94.9368 146.153 94.9861 146.202 95.0334 146.253C95.8373 147.712 96.6055 149.146 97.3063 150.534C97.5326 150.982 98.2447 151.584 97.963 151.863C97.6812 152.141 98.3999 152.78 98.6036 153.229C99.8579 155.991 100.382 157.403 100.569 159.424Z" fill="#2F2E41"/>
<path d="M78.1877 137.09L80.5547 136.94C80.7593 136.927 80.949 137.055 81.0272 137.257L81.6961 138.992L84.4761 141.451C84.4761 141.451 85.5767 142.95 85.5793 144.885C85.5819 146.821 85.5401 150.43 85.5401 150.43C85.5401 150.43 84.3634 148.882 83.3719 149.525C83.2033 149.635 83.1439 149.859 82.9672 149.972C82.8791 150.028 82.6755 149.973 82.5865 150.03C81.2202 150.898 79.8506 151.556 79.6622 151.597C78.9547 151.75 78.7331 151.166 79.2108 150.352C79.3667 150.086 79.0837 149.813 79.0837 149.813C78.7243 149.603 78.5899 149.304 78.84 148.855L76.9171 141.295C76.6862 140.387 76.8272 139.408 77.3363 138.641C77.4877 138.412 77.6463 138.243 77.7937 138.215C78.1246 138.139 77.9486 137.346 78.1877 137.09Z" fill="white"/>
<path d="M106.604 164.306L107.053 163.096L102.808 160.624L102.145 162.409L106.604 164.306Z" fill="#FFB6B6"/>
<path d="M105.147 161.661L104.615 163.834C101.007 162.83 97.2893 160.471 93.5197 157.472C89.3593 158.849 85.413 159.674 81.8248 159.209C80.6104 159.056 79.6953 157.839 79.8278 156.511C79.834 156.449 79.8424 156.387 79.853 156.325C80.1033 154.908 82.1923 153.664 82.8676 152.05L87.3084 153.181L87.6383 154.094L88.6383 153.812L89.4827 153.573L90.4493 153.3L93.6178 152.404C94.8203 152.064 96.0528 152.857 96.3707 154.176C96.3875 154.245 96.4015 154.316 96.4126 154.387L100.801 158.041C100.801 158.041 101.193 159.021 101.494 158.618C101.795 158.215 102.358 159.338 102.358 159.338L105.147 161.661Z" fill="#2F2E41"/>
<path d="M109.866 161.224C109.701 161.153 109.511 161.175 109.363 161.281L107.409 162.675L106.6 162.331L106.47 162.756L106.062 164.075L105.963 164.398L108.726 165.87L109.063 164.962L108.322 164.459L109.277 164.386L110.17 161.979C110.281 161.682 110.144 161.342 109.866 161.224Z" fill="#2F2E41"/>
<path d="M75.6218 132.14C75.5603 132.435 75.4932 132.743 75.3112 132.975C75.1291 133.207 74.794 133.332 74.5551 133.17C74.2631 132.971 74.2863 132.515 74.3445 132.149L74.529 130.992C74.5642 130.771 74.6006 130.546 74.696 130.346C74.7914 130.147 74.9567 129.973 75.1625 129.932C75.3802 129.888 75.6076 130.003 75.7528 130.182C75.898 130.361 75.971 130.595 76.0067 130.829C76.1013 131.449 75.9459 132.109 75.5875 132.607L75.6218 132.14Z" fill="#2F2E41"/>
<path d="M74.7517 130.479C74.3577 129.965 73.5364 130.042 73.0988 130.514C72.6611 130.986 72.5526 131.714 72.6302 132.374C72.7076 133.033 73.0322 135.74 73.1346 136.26C73.2627 136.91 72.3079 137.384 71.6973 137.262C71.7455 137.717 72.033 138.124 72.4086 138.344C72.7843 138.564 73.2362 138.61 73.6565 138.523C73.8265 138.487 73.9935 138.43 74.1511 138.352C74.0799 138.155 74.0356 137.947 74.023 137.736C74.1044 137.923 74.2181 138.092 74.3557 138.236C74.5792 138.091 74.7763 137.903 74.9272 137.675C75.223 137.228 75.3275 136.632 75.1625 136.114C74.9705 135.508 74.4649 135.09 74.1064 134.578C73.7475 134.067 73.5639 133.268 74.0042 132.835C74.3394 132.506 74.3193 132.579 74.7688 132.655L74.7517 130.479Z" fill="#2F2E41"/>
<path d="M80.6717 132.64C80.6717 134.231 79.4665 135.521 77.9797 135.521C76.493 135.521 75.0807 133.677 75.0807 132.086C75.0807 130.495 76.493 129.76 77.9797 129.76C79.4665 129.76 80.6717 131.049 80.6717 132.64Z" fill="#2F2E41"/>
<path d="M78.7914 136.148C80.2098 136.148 81.3596 134.917 81.3596 133.4C81.3596 131.882 80.2098 130.652 78.7914 130.652C77.373 130.652 76.2231 131.882 76.2231 133.4C76.2231 134.917 77.373 136.148 78.7914 136.148Z" fill="#FFB6B6"/>
<path d="M82.0177 132.973C81.2574 133.195 80.4898 133.427 80.1934 132.973C80.1354 132.671 80.0267 132.382 79.8714 132.124C79.8424 132.414 79.7782 132.7 79.6819 132.973C79.348 133.037 78.8835 133.037 78.8835 133.037C78.7748 133.237 78.2776 133.569 78.26 133.81C78.2216 133.783 78.1813 133.762 78.1399 133.742C78.0881 133.719 78.027 133.699 77.9763 133.726C77.938 133.747 77.9162 133.793 77.909 133.838C77.9017 133.884 77.9079 133.93 77.9152 133.977C77.9369 134.133 77.9607 134.296 78.0446 134.427C78.1036 134.52 78.203 134.593 78.3045 134.605C78.4122 135.253 78.6502 136.129 78.6502 136.129C76.0618 136.24 75.2878 134.196 75.2878 132.419L75.5984 131.754H76.6338V130.314H79.5328C80.9047 130.314 82.0177 131.505 82.0177 132.973Z" fill="#2F2E41"/>
<path d="M86.8995 154.261C86.3723 154.224 85.9731 153.737 86.0077 153.173C86.0112 153.116 86.02 153.061 86.0317 153.008L79.8965 148.08L81.5017 147.318L87.2475 152.264C87.6596 152.402 87.9464 152.826 87.9168 153.307C87.8821 153.871 87.4266 154.299 86.8995 154.261Z" fill="#FFB6B6"/>
<path d="M85.619 150.53L85.3477 150.629L83.8041 151.193C83.8041 151.193 83.771 151.176 83.7114 151.146C83.0962 150.822 79.6272 148.98 79.4199 148.335C79.3185 148.019 78.959 146.974 78.6349 145.792C78.4827 145.232 78.3394 144.64 78.2357 144.081C78.0681 143.184 78.0064 142.368 78.1806 141.896C78.6922 140.51 79.861 140.867 79.861 140.867L80.5799 142.844L81.4885 145.343L82.2229 147.363C83.1888 147.639 84.3708 148.937 85.619 150.53Z" fill="white"/>
<path d="M83.9121 134.873C83.8834 134.873 83.8548 134.878 83.8283 134.882C83.7908 134.838 83.7423 134.805 83.6828 134.788C83.6563 134.779 83.6254 134.776 83.5945 134.776L81.6429 134.831C81.6274 134.831 81.6098 134.833 81.5966 134.835C81.5282 134.849 81.4687 134.887 81.4268 134.939C81.4113 134.956 81.3981 134.975 81.3871 134.996C81.3452 135.071 81.3341 135.166 81.3628 135.26C81.2507 136.208 81.2926 137.115 81.7024 137.924C81.7443 138.059 81.8656 138.151 81.9979 138.148L83.266 138.113C83.2726 138.113 83.2792 138.113 83.2858 138.111C83.4115 138.099 83.5196 138.007 83.5526 137.875C83.8633 137.178 83.9288 136.492 83.7313 135.819C83.793 135.85 83.8636 135.866 83.9342 135.864C84.1194 135.859 84.276 135.739 84.3443 135.572C84.373 135.505 84.3885 135.432 84.3862 135.357C84.3796 135.083 84.1657 134.866 83.9121 134.873ZM83.932 135.723C83.8724 135.725 83.8173 135.708 83.7688 135.68L83.868 135.3L83.8967 135.189C83.9121 135.13 83.9099 135.071 83.8967 135.017C83.9033 135.017 83.9099 135.015 83.9165 135.015C84.0974 135.01 84.2495 135.166 84.2539 135.359C84.2539 135.399 84.2495 135.439 84.2385 135.475C84.1966 135.616 84.0775 135.718 83.932 135.723Z" fill="#3F3D56"/>
<path d="M81.5956 134.836C81.6372 135.09 82.1046 135.269 82.6667 135.238C83.1836 135.213 83.6062 135.018 83.6837 134.788C83.6566 134.779 83.6264 134.775 83.5953 134.776L81.6437 134.829C81.6269 134.831 81.6102 134.832 81.5956 134.836Z" fill="white"/>
</g>
</g>
<defs>
<filter id="filter0_d_52_2" x="0" y="0" width="270" height="243" filterUnits="userSpaceOnUse" color-interpolation-filters="sRGB">
<feFlood flood-opacity="0" result="BackgroundImageFix"/>
<feColorMatrix in="SourceAlpha" type="matrix" values="0 0 0 0 0 0 0 0 0 0 0 0 0 0 0 0 0 0 127 0" result="hardAlpha"/>
<feOffset dy="6"/>
<feGaussianBlur stdDeviation="3.5"/>
<feComposite in2="hardAlpha" operator="out"/>
<feColorMatrix type="matrix" values="0 0 0 0 0 0 0 0 0 0 0 0 0 0 0 0 0 0 0.25 0"/>
<feBlend mode="normal" in2="BackgroundImageFix" result="effect1_dropShadow_52_2"/>
<feBlend mode="normal" in="SourceGraphic" in2="effect1_dropShadow_52_2" result="shape"/>
</filter>
<clipPath id="clip0_52_2">
<rect width="270" height="243" fill="white"/>
</clipPath>
</defs>
</svg>
