<svg width="368" height="136" viewBox="0 0 368 136" fill="none" xmlns="http://www.w3.org/2000/svg">
<g clip-path="url(#clip0_5_600)">
<path d="M358.958 114.443C362.211 119.357 364.418 125.971 364.498 134.884H314.417H298.125H293.596H292.502C292.576 125.964 294.633 119.347 297.713 114.432C300.85 109.426 305.07 106.154 309.409 104.014C317.69 99.9305 326.374 99.9843 328.7 99.9987C328.816 99.9994 328.916 100 329 100H329.008L329.016 99.9998L329.02 99.9996L329.038 99.9992C329.053 99.9988 329.078 99.9983 329.111 99.9979C329.176 99.9969 329.274 99.9961 329.403 99.9965C329.66 99.9973 330.04 100.003 330.526 100.024C331.496 100.065 332.886 100.164 334.556 100.399C337.897 100.867 342.343 101.873 346.783 104.016C351.22 106.159 355.643 109.434 358.958 114.443ZM233.965 91.3634C245.39 102.393 247.463 116.639 247.499 134.884H247.473H247.438H247.402H247.364H247.326H247.286H247.246H247.204H247.161H247.117H247.072H247.026H246.978H246.93H246.881H246.83H246.779H246.726H246.673H246.618H246.562H246.505H246.448H246.389H246.329H246.268H246.206H246.143H246.079H246.014H245.948H245.881H245.812H245.743H245.673H245.602H245.53H245.457H245.383H245.307H245.231H245.154H245.076H244.997H244.917H244.836H244.754H244.671H244.587H244.502H244.416H244.329H244.241H244.152H244.062H243.972H243.88H243.788H243.694H243.6H243.504H243.408H243.311H243.213H243.113H243.013H242.913H242.811H242.708H242.604H242.5H242.394H242.288H242.181H242.073H241.964H241.854H241.743H241.631H241.519H241.406H241.291H241.176H241.06H240.943H240.826H240.707H240.588H240.467H240.346H240.224H240.102H239.978H239.853H239.728H239.602H239.475H239.347H239.219H239.089H238.959H238.828H238.696H238.564H238.43H238.296H238.161H238.025H237.889H237.751H237.613H237.474H237.334H237.194H237.053H236.911H236.768H236.624H236.48H236.335H236.189H236.043H235.895H235.747H235.598H235.449H235.299H235.148H234.996H234.843H234.69H234.536H234.382H234.226H234.07H233.914H233.756H233.598H233.439H233.28H233.12H232.959H232.797H232.635H232.472H232.308H232.144H231.979H231.813H231.647H231.48H231.312H231.144H230.975H230.805H230.635H230.464H230.293H230.121H229.948H229.774H229.6H229.426H229.25H229.075H228.898H228.721H228.543H228.365H228.186H228.006H227.826H227.645H227.464H227.282H227.099H226.916H226.733H226.548H226.363H226.178H225.992H225.805H225.618H225.431H225.242H225.054H224.864H224.674H224.484H224.293H224.102H223.91H223.717H223.524H223.33H223.136H222.941H222.746H222.551H222.354H222.158H221.96H221.763H221.564H221.366H221.166H220.967H220.767H220.566H220.365H220.163H219.961H219.758H219.555H219.352H219.148H218.943H218.739H218.533H218.327H218.121H217.914H217.707H217.5H217.292H217.083H216.874H216.665H216.455H216.245H216.035H215.824H215.612H215.4H215.188H214.976H214.763H214.549H214.335H214.121H213.907H213.692H213.476H213.261H213.045H212.828H212.611H212.394H212.177H211.959H211.74H211.522H211.303H211.083H210.864H210.644H210.423H210.203H209.982H209.76H209.538H209.316H209.094H208.871H208.648H208.425H208.202H207.978H207.753H207.529H207.304H207.079H206.854H206.628H206.402H206.176H205.949H205.722H205.495H205.268H205.04H204.813H204.584H204.356H204.127H203.898H203.669H203.44H203.21H202.98H202.75H202.52H202.289H202.059H201.827H201.596H201.365H201.133H200.901H200.669H200.437H200.204H199.971H199.739H199.505H199.272H199.039H198.805H198.571H198.337H198.103H197.868H197.634H197.399H197.164H196.929H196.694H196.458H196.223H195.987H195.751H195.515H195.279H195.043H194.807H194.57H194.333H194.097H193.86H193.623H193.386H193.148H192.911H192.674H192.436H192.198H191.96H191.723H191.485H191.247H191.008H190.77H190.532H190.294H190.055H189.817H189.578H189.339H189.101H188.862H188.623H188.384H188.145H187.906H187.667H187.428H187.189H186.95H186.711H186.471H186.232H185.993H185.754H185.514H185.275H185.036H184.796H184.557H184.318H184.078H183.839H183.6H183.36H183.121H182.882H182.642H182.403H182.164H181.925H181.686H181.446H181.207H180.968H180.729H180.49H180.251H180.013H179.774H179.535H179.296H179.058H178.819H178.581H178.342H178.104H177.866H177.627H177.389H177.151H176.913H176.675H176.438H176.2H175.963H175.725H175.488H175.251H175.014H174.777H174.54H174.303H174.066H173.83H173.594H173.357H173.121H172.885H172.65H172.414H172.179H171.943H171.708H171.473H171.238H171.004H170.769H170.535H170.301H170.067H169.833H169.599H169.366H169.133H168.9H168.667H168.434H168.202H167.969H167.737H167.506H167.274H167.043H166.811H166.58H166.35H166.119H165.889H165.659H165.429H165.2H164.97H164.741H164.513H164.284H164.056H163.828H163.6H163.372H163.145H162.918H162.692H162.465H162.239H162.013H161.788H161.562H161.337H161.113H160.888H160.664H160.441H160.217H159.994H159.771H159.549H159.326H159.104H158.883H158.662H158.441H158.22H158H157.78H157.558H157.336H157.113H156.89H156.665H156.44H156.214H155.987H155.759H155.531H155.302H155.072H154.841H154.61H154.377H154.144H153.911H153.676H153.441H153.205H152.969H152.731H152.493H152.255H152.015H151.775H151.534H151.293H151.051H150.808H150.564H150.32H150.075H149.83H149.584H149.337H149.09H148.842H148.593H148.344H148.094H147.843H147.592H147.34H147.088H146.835H146.581H146.327H146.072H145.817H145.561H145.305H145.048H144.79H144.532H144.274H144.014H143.755H143.494H143.233H142.972H142.71H142.448H142.185H141.922H141.658H141.394H141.129H140.863H140.597H140.331H140.064H139.797H139.53H139.261H138.993H138.724H138.454H138.184H137.914H137.643H137.372H137.1H136.828H136.556H136.283H136.01H135.736H135.462H135.188H134.913H134.638H134.363H134.087H133.811H133.534H133.257H132.98H132.702H132.424H132.146H131.868H131.589H131.309H131.03H130.75H130.47H130.19H129.909H129.628H129.347H129.065H128.783H128.501H128.219H127.936H127.654H127.37H127.087H126.804H126.52H126.236H125.952H125.667H125.382H125.098H124.813H124.527H124.242H123.956H123.67H123.384H123.098H122.812H122.525H122.239H121.952H121.665H121.378H121.091H120.803H120.516H120.228H119.941H119.653H119.365H119.077H118.789H118.5H118.212H117.924H117.635H117.347H117.058H116.769H116.481H116.192H115.903H115.614H115.325H115.036H114.747H114.458H114.169H113.88H113.591H113.302H113.013H112.724H112.435H112.146H111.857H111.568H111.279H110.99H110.701H110.412H110.123H109.834H109.546H109.257H108.968H108.68H108.391H108.103H107.815H107.527H107.239H106.951H106.663H106.375H106.087H105.8H105.513H105.225H104.938H104.651H104.364H104.078H103.791H103.505H103.219H102.933H102.647H102.361H102.076H101.791H101.505H101.221H100.936H100.651H100.367H100.083H99.7993H99.5157H99.2324H98.9493H98.6664H98.3838H98.1014H97.8193H97.5375H97.2559H96.9746H96.6936H96.4129H96.1324H95.8523H95.5724H95.2929H95.0136H94.7347H94.4561H94.1778H93.8998H93.6222H93.3449H93.0679H92.7913H92.5151H92.2392H91.9636H91.6885H91.4137H91.1392H90.8652H90.5915H90.3183H90.0454H89.7729H89.5009H89.2292H88.958H88.6871H88.4167H88.1468H87.8772H87.6081H87.3395H87.0713H86.8036H86.5363H86.2694H86.0031H85.7372H85.4718H85.2069H84.9425H84.6785H84.4151H84.1522H83.8897H83.6278H83.3664H83.1056H82.8452H82.5854H82.3261H82.0674H81.8092H81.5516H81.2945H81.038H80.782H80.5267H80.2719H80.0176H79.764H79.511H79.2585H79.0067H78.7554H78.5048H78.2548H78.0054H77.7566H77.5085H77.261H77.0141H76.7679H76.5223H76.2774H76.0332H75.7896H75.5467H75.3044H75.0629H74.822H74.5818H74.3423H74.1035H73.8654H73.628H73.3913H73.1554H72.9201H72.6856H72.4518H72.2188H71.9865H71.755H71.5242H71.2941H71.0649H70.8363H70.6086H70.3816H70.1555H69.9301H69.7055H69.4817H69.2587H69.0365H68.8151H68.5945H68.3748H68.1559H67.9378H67.7205H67.5041H67.2885H67.0738H66.8599H66.6469H66.4348H66.2235H66.0131H65.8036H65.595H65.3872H65.1804H64.9744H64.7694H64.5652H64.362H64.1597H63.9583H63.7579H63.5584H63.3598H63.1621H62.9654H62.7697H62.5749H62.3811H62.1882H61.9964H61.8055H61.6155H61.4266H61.2387H61.0517H60.8658H60.6809H60.4969H60.314H60.1321H59.9513H59.7714H59.5926H59.4149H59.2382H59.0625H58.8879H58.7144H58.5419H58.3705H58.2002H58.0309H57.8628H57.6957H57.5297H57.3648H57.201H57.0384H56.8768H56.7164H56.5571H56.3989H56.2418H56.0859H55.9311H55.7775H55.625H55.4737H55.3236H55.1746H55.0268H54.8802H54.7347H54.5905H54.4474H54.3055H54.1649H54.0254H53.8872H53.7501H53.6143H53.4797H53.3464H53.2143H53.0834H52.9538H52.8254H52.6983H52.5724H52.4478H52.3245H52.2024H52.0817H51.9622H51.844H51.7271H51.6115H51.4972H51.3842H51.2725H51.1622H51.0531H50.9454H50.8391H50.7341H50.6304H50.528H50.4271H50.3274H50.2292H50.1323H50.0368H49.9426H49.8499H49.7585H49.6685H49.5799H49.4928H49.407H49.3226H49.2397H49.1582H49.0781H48.9994H48.9222H48.8464H48.7721H48.6992H48.6278H48.5578H48.4893H48.4223H48.3567H48.2927H48.2301H48.169H48.1094H48.0513H47.9947H47.9396H47.886H47.834H47.7835H47.7345H47.687H47.6411H47.5967H47.5539H47.5126H47.5028C47.7057 116.746 58.9357 98.0122 78.779 84.6686C98.7944 71.2093 127.546 63.2599 162.44 66.997C201.175 72.2455 222.403 80.2014 233.965 91.3634Z" fill="#F5F5F5" stroke="black"/>
<path d="M77.9134 129.525C88.6236 105.963 112.117 90.8346 138 90.8346V134.835H75.5L77.9134 129.525Z" fill="#D9D9D9"/>
<path d="M291.75 104.5H316.444C334.486 104.5 350.15 116.93 354.25 134.5H291.75V104.5Z" fill="#D9D9D9"/>
<path d="M311.609 58.2721C324.265 85.4978 327.443 115.987 327.499 134.5H327.473H327.438H327.402H327.364H327.326H327.286H327.246H327.204H327.161H327.117H327.072H327.026H326.978H326.93H326.881H326.83H326.779H326.726H326.673H326.618H326.562H326.505H326.448H326.389H326.329H326.268H326.206H326.143H326.079H326.014H325.948H325.881H325.812H325.743H325.673H325.602H325.53H325.457H325.383H325.307H325.231H325.154H325.076H324.997H324.917H324.836H324.754H324.671H324.587H324.502H324.416H324.329H324.241H324.152H324.062H323.972H323.88H323.788H323.694H323.6H323.504H323.408H323.311H323.213H323.113H323.013H322.913H322.811H322.708H322.604H322.5H322.394H322.288H322.181H322.073H321.964H321.854H321.743H321.631H321.519H321.406H321.291H321.176H321.06H320.943H320.826H320.707H320.588H320.467H320.346H320.224H320.102H319.978H319.853H319.728H319.602H319.475H319.347H319.219H319.089H318.959H318.828H318.696H318.564H318.43H318.296H318.161H318.025H317.889H317.751H317.613H317.474H317.334H317.194H317.053H316.911H316.768H316.624H316.48H316.335H316.189H316.043H315.895H315.747H315.598H315.449H315.299H315.148H314.996H314.843H314.69H314.536H314.382H314.226H314.07H313.914H313.756H313.598H313.439H313.28H313.12H312.959H312.797H312.635H312.472H312.308H312.144H311.979H311.813H311.647H311.48H311.312H311.144H310.975H310.805H310.635H310.464H310.293H310.121H309.948H309.774H309.6H309.426H309.25H309.075H308.898H308.721H308.543H308.365H308.186H308.006H307.826H307.645H307.464H307.282H307.099H306.916H306.733H306.548H306.363H306.178H305.992H305.805H305.618H305.431H305.242H305.054H304.864H304.674H304.484H304.293H304.102H303.91H303.717H303.524H303.33H303.136H302.941H302.746H302.551H302.354H302.158H301.96H301.763H301.564H301.366H301.166H300.967H300.767H300.566H300.365H300.163H299.961H299.758H299.555H299.352H299.148H298.943H298.739H298.533H298.327H298.121H297.914H297.707H297.5H297.292H297.083H296.874H296.665H296.455H296.245H296.035H295.824H295.612H295.4H295.188H294.976H294.763H294.549H294.335H294.121H293.907H293.692H293.476H293.261H293.045H292.828H292.611H292.394H292.177H291.959H291.74H291.522H291.303H291.083H290.864H290.644H290.423H290.203H289.982H289.76H289.538H289.316H289.094H288.871H288.648H288.425H288.202H287.978H287.753H287.529H287.304H287.079H286.854H286.628H286.402H286.176H285.949H285.722H285.495H285.268H285.04H284.813H284.584H284.356H284.127H283.898H283.669H283.44H283.21H282.98H282.75H282.52H282.289H282.059H281.827H281.596H281.365H281.133H280.901H280.669H280.437H280.204H279.971H279.739H279.505H279.272H279.039H278.805H278.571H278.337H278.103H277.868H277.634H277.399H277.164H276.929H276.694H276.458H276.223H275.987H275.751H275.515H275.279H275.043H274.807H274.57H274.333H274.097H273.86H273.623H273.386H273.148H272.911H272.674H272.436H272.198H271.96H271.723H271.485H271.247H271.008H270.77H270.532H270.294H270.055H269.817H269.578H269.339H269.101H268.862H268.623H268.384H268.145H267.906H267.667H267.428H267.189H266.95H266.711H266.471H266.232H265.993H265.754H265.514H265.275H265.036H264.796H264.557H264.318H264.078H263.839H263.6H263.36H263.121H262.882H262.642H262.403H262.164H261.925H261.686H261.446H261.207H260.968H260.729H260.49H260.251H260.013H259.774H259.535H259.296H259.058H258.819H258.581H258.342H258.104H257.866H257.627H257.389H257.151H256.913H256.675H256.438H256.2H255.963H255.725H255.488H255.251H255.014H254.777H254.54H254.303H254.066H253.83H253.594H253.357H253.121H252.885H252.65H252.414H252.179H251.943H251.708H251.473H251.238H251.004H250.769H250.535H250.301H250.067H249.833H249.599H249.366H249.133H248.9H248.667H248.434H248.202H247.969H247.737H247.506H247.274H247.043H246.811H246.58H246.35H246.119H245.889H245.659H245.429H245.2H244.97H244.741H244.513H244.284H244.056H243.828H243.6H243.372H243.145H242.918H242.692H242.465H242.239H242.013H241.788H241.562H241.337H241.113H240.888H240.664H240.441H240.217H239.994H239.771H239.549H239.326H239.104H238.883H238.662H238.441H238.22H238H237.78H237.558H237.336H237.113H236.89H236.665H236.44H236.214H235.987H235.759H235.531H235.302H235.072H234.841H234.61H234.377H234.144H233.911H233.676H233.441H233.205H232.969H232.731H232.493H232.255H232.015H231.775H231.534H231.293H231.051H230.808H230.564H230.32H230.075H229.83H229.584H229.337H229.09H228.842H228.593H228.344H228.094H227.843H227.592H227.34H227.088H226.835H226.581H226.327H226.072H225.817H225.561H225.305H225.048H224.79H224.532H224.274H224.014H223.755H223.494H223.233H222.972H222.71H222.448H222.185H221.922H221.658H221.394H221.129H220.863H220.597H220.331H220.064H219.797H219.53H219.261H218.993H218.724H218.454H218.184H217.914H217.643H217.372H217.1H216.828H216.556H216.283H216.01H215.736H215.462H215.188H214.913H214.638H214.363H214.087H213.811H213.534H213.257H212.98H212.702H212.424H212.146H211.868H211.589H211.309H211.03H210.75H210.47H210.19H209.909H209.628H209.347H209.065H208.783H208.501H208.219H207.936H207.654H207.37H207.087H206.804H206.52H206.236H205.952H205.667H205.382H205.098H204.813H204.527H204.242H203.956H203.67H203.384H203.098H202.812H202.525H202.239H201.952H201.665H201.378H201.091H200.803H200.516H200.228H199.941H199.653H199.365H199.077H198.789H198.5H198.212H197.924H197.635H197.347H197.058H196.769H196.481H196.192H195.903H195.614H195.325H195.036H194.747H194.458H194.169H193.88H193.591H193.302H193.013H192.724H192.435H192.146H191.857H191.568H191.279H190.99H190.701H190.412H190.123H189.834H189.546H189.257H188.968H188.68H188.391H188.103H187.815H187.527H187.239H186.951H186.663H186.375H186.087H185.8H185.513H185.225H184.938H184.651H184.364H184.078H183.791H183.505H183.219H182.933H182.647H182.361H182.076H181.791H181.505H181.221H180.936H180.651H180.367H180.083H179.799H179.516H179.232H178.949H178.666H178.384H178.101H177.819H177.538H177.256H176.975H176.694H176.413H176.132H175.852H175.572H175.293H175.014H174.735H174.456H174.178H173.9H173.622H173.345H173.068H172.791H172.515H172.239H171.964H171.688H171.414H171.139H170.865H170.592H170.318H170.045H169.773H169.501H169.229H168.958H168.687H168.417H168.147H167.877H167.608H167.34H167.071H166.804H166.536H166.269H166.003H165.737H165.472H165.207H164.942H164.679H164.415H164.152H163.89H163.628H163.366H163.106H162.845H162.585H162.326H162.067H161.809H161.552H161.295H161.038H160.782H160.527H160.272H160.018H159.764H159.511H159.259H159.007H158.755H158.505H158.255H158.005H157.757H157.508H157.261H157.014H156.768H156.522H156.277H156.033H155.79H155.547H155.304H155.063H154.822H154.582H154.342H154.103H153.865H153.628H153.391H153.155H152.92H152.686H152.452H152.219H151.987H151.755H151.524H151.294H151.065H150.836H150.609H150.382H150.155H149.93H149.705H149.482H149.259H149.036H148.815H148.595H148.375H148.156H147.938H147.721H147.504H147.289H147.074H146.86H146.647H146.435H146.224H146.013H145.804H145.595H145.387H145.18H144.974H144.769H144.565H144.362H144.16H143.958H143.758H143.558H143.36H143.162H142.965H142.77H142.575H142.381H142.188H141.996H141.805H141.616H141.427H141.239H141.052H140.866H140.681H140.497H140.314H140.132H139.951H139.771H139.593H139.415H139.238H139.063H138.888H138.714H138.542H138.371H138.2H138.031H137.863H137.696H137.53H137.365H137.201H137.038H136.877H136.716H136.557H136.399H136.242H136.086H135.931H135.778H135.625H135.474H135.324H135.175H135.027H134.88H134.735H134.59H134.447H134.306H134.165H134.025H133.887H133.75H133.614H133.48H133.346H133.214H133.083H132.954H132.825H132.698H132.572H132.448H132.324H132.202H132.082H131.962H131.844H131.727H131.611H131.497H131.384H131.273H131.162H131.053H130.945H130.839H130.734H130.63H130.528H130.427H130.327H130.229H130.132H130.037H129.943H129.85H129.759H129.669H129.58H129.493H129.407H129.323H129.24H129.158H129.078H128.999H128.922H128.846H128.772H128.699H128.628H128.558H128.489H128.422H128.357H128.293H128.23H128.169H128.109H128.051H127.995H127.94H127.886H127.834H127.783H127.734H127.687H127.641H127.597H127.554H127.513H127.502C127.684 115.983 137.879 81.0671 156.672 51.5801C175.639 21.8197 203.234 -2.21846 237.94 1.4964C276.471 6.71928 298.847 30.819 311.609 58.2721Z" fill="#9ED6FF" stroke="black"/>
<path d="M327 134C327 134 290.21 134 263.866 134C237.521 134 186 134 186 134C186 108.117 214.761 35.0222 263.866 40.2684C318.231 47.6131 327 108.117 327 134Z" fill="#78BFF3"/>
<path d="M0.0013504 134.5L368.001 135.497" stroke="black"/>
</g>
<defs>
<clipPath id="clip0_5_600">
<rect width="368" height="136" fill="white"/>
</clipPath>
</defs>
</svg>
