<svg id="visual" viewBox="0 0 900 150" width="900" height="150" xmlns="http://www.w3.org/2000/svg" xmlns:xlink="http://www.w3.org/1999/xlink" version="1.1"><rect x="0" y="0" width="900" height="150" fill="#ffffff"></rect><path d="M0 74L6.8 74.2C13.7 74.3 27.3 74.7 41 77.2C54.7 79.7 68.3 84.3 82 85.2C95.7 86 109.3 83 123 79.7C136.7 76.3 150.3 72.7 164 69.3C177.7 66 191.3 63 204.8 65C218.3 67 231.7 74 245.2 73.3C258.7 72.7 272.3 64.3 286 60.3C299.7 56.3 313.3 56.7 327 55.7C340.7 54.7 354.3 52.3 368 56.7C381.7 61 395.3 72 409 77.7C422.7 83.3 436.3 83.7 450 83.5C463.7 83.3 477.3 82.7 491 80.3C504.7 78 518.3 74 532 71.8C545.7 69.7 559.3 69.3 573 72.2C586.7 75 600.3 81 614 83.5C627.7 86 641.3 85 654.8 82.3C668.3 79.7 681.7 75.3 695.2 70.5C708.7 65.7 722.3 60.3 736 59.8C749.7 59.3 763.3 63.7 777 69C790.7 74.3 804.3 80.7 818 81.3C831.7 82 845.3 77 859 72.5C872.7 68 886.3 64 893.2 62L900 60L900 0L893.2 0C886.3 0 872.7 0 859 0C845.3 0 831.7 0 818 0C804.3 0 790.7 0 777 0C763.3 0 749.7 0 736 0C722.3 0 708.7 0 695.2 0C681.7 0 668.3 0 654.8 0C641.3 0 627.7 0 614 0C600.3 0 586.7 0 573 0C559.3 0 545.7 0 532 0C518.3 0 504.7 0 491 0C477.3 0 463.7 0 450 0C436.3 0 422.7 0 409 0C395.3 0 381.7 0 368 0C354.3 0 340.7 0 327 0C313.3 0 299.7 0 286 0C272.3 0 258.7 0 245.2 0C231.7 0 218.3 0 204.8 0C191.3 0 177.7 0 164 0C150.3 0 136.7 0 123 0C109.3 0 95.7 0 82 0C68.3 0 54.7 0 41 0C27.3 0 13.7 0 6.8 0L0 0Z" fill="#89dbff"></path><path d="M0 70L6.8 66.7C13.7 63.3 27.3 56.7 41 51.8C54.7 47 68.3 44 82 43.5C95.7 43 109.3 45 123 45.5C136.7 46 150.3 45 164 48.3C177.7 51.7 191.3 59.3 204.8 61.7C218.3 64 231.7 61 245.2 57.2C258.7 53.3 272.3 48.7 286 46.8C299.7 45 313.3 46 327 50.8C340.7 55.7 354.3 64.3 368 67.3C381.7 70.3 395.3 67.7 409 64.3C422.7 61 436.3 57 450 52.5C463.7 48 477.3 43 491 43C504.7 43 518.3 48 532 52.8C545.7 57.7 559.3 62.3 573 61.8C586.7 61.3 600.3 55.7 614 56.2C627.7 56.7 641.3 63.3 654.8 62.3C668.3 61.3 681.7 52.7 695.2 53.2C708.7 53.7 722.3 63.3 736 65.2C749.7 67 763.3 61 777 57C790.7 53 804.3 51 818 50.7C831.7 50.3 845.3 51.7 859 54.5C872.7 57.3 886.3 61.7 893.2 63.8L900 66L900 0L893.2 0C886.3 0 872.7 0 859 0C845.3 0 831.7 0 818 0C804.3 0 790.7 0 777 0C763.3 0 749.7 0 736 0C722.3 0 708.7 0 695.2 0C681.7 0 668.3 0 654.8 0C641.3 0 627.7 0 614 0C600.3 0 586.7 0 573 0C559.3 0 545.7 0 532 0C518.3 0 504.7 0 491 0C477.3 0 463.7 0 450 0C436.3 0 422.7 0 409 0C395.3 0 381.7 0 368 0C354.3 0 340.7 0 327 0C313.3 0 299.7 0 286 0C272.3 0 258.7 0 245.2 0C231.7 0 218.3 0 204.8 0C191.3 0 177.7 0 164 0C150.3 0 136.7 0 123 0C109.3 0 95.7 0 82 0C68.3 0 54.7 0 41 0C27.3 0 13.7 0 6.8 0L0 0Z" fill="#72c8f1"></path><path d="M0 41L6.8 42.5C13.7 44 27.3 47 41 46.2C54.7 45.3 68.3 40.7 82 41C95.7 41.3 109.3 46.7 123 45.5C136.7 44.3 150.3 36.7 164 37.7C177.7 38.7 191.3 48.3 204.8 50.3C218.3 52.3 231.7 46.7 245.2 45.7C258.7 44.7 272.3 48.3 286 47.7C299.7 47 313.3 42 327 42.3C340.7 42.7 354.3 48.3 368 51.8C381.7 55.3 395.3 56.7 409 57.2C422.7 57.7 436.3 57.3 450 54.3C463.7 51.3 477.3 45.7 491 43.5C504.7 41.3 518.3 42.7 532 45.2C545.7 47.7 559.3 51.3 573 53.5C586.7 55.7 600.3 56.3 614 53.8C627.7 51.3 641.3 45.7 654.8 43.7C668.3 41.7 681.7 43.3 695.2 43.3C708.7 43.3 722.3 41.7 736 42.7C749.7 43.7 763.3 47.3 777 50C790.7 52.7 804.3 54.3 818 51.2C831.7 48 845.3 40 859 39.8C872.7 39.7 886.3 47.3 893.2 51.2L900 55L900 0L893.2 0C886.3 0 872.7 0 859 0C845.3 0 831.7 0 818 0C804.3 0 790.7 0 777 0C763.3 0 749.7 0 736 0C722.3 0 708.7 0 695.2 0C681.7 0 668.3 0 654.8 0C641.3 0 627.7 0 614 0C600.3 0 586.7 0 573 0C559.3 0 545.7 0 532 0C518.3 0 504.7 0 491 0C477.3 0 463.7 0 450 0C436.3 0 422.7 0 409 0C395.3 0 381.7 0 368 0C354.3 0 340.7 0 327 0C313.3 0 299.7 0 286 0C272.3 0 258.7 0 245.2 0C231.7 0 218.3 0 204.8 0C191.3 0 177.7 0 164 0C150.3 0 136.7 0 123 0C109.3 0 95.7 0 82 0C68.3 0 54.7 0 41 0C27.3 0 13.7 0 6.8 0L0 0Z" fill="#5bb6e3"></path><path d="M0 27L6.8 26.8C13.7 26.7 27.3 26.3 41 26C54.7 25.7 68.3 25.3 82 24C95.7 22.7 109.3 20.3 123 20.7C136.7 21 150.3 24 164 25.5C177.7 27 191.3 27 204.8 26C218.3 25 231.7 23 245.2 24.7C258.7 26.3 272.3 31.7 286 34.8C299.7 38 313.3 39 327 36.8C340.7 34.7 354.3 29.3 368 27.3C381.7 25.3 395.3 26.7 409 27.8C422.7 29 436.3 30 450 31.7C463.7 33.3 477.3 35.7 491 37.5C504.7 39.3 518.3 40.7 532 39C545.7 37.3 559.3 32.7 573 30C586.7 27.3 600.3 26.7 614 28.8C627.7 31 641.3 36 654.8 35.5C668.3 35 681.7 29 695.2 28C708.7 27 722.3 31 736 33.7C749.7 36.3 763.3 37.7 777 35.5C790.7 33.3 804.3 27.7 818 26.2C831.7 24.7 845.3 27.3 859 29C872.7 30.7 886.3 31.3 893.2 31.7L900 32L900 0L893.2 0C886.3 0 872.7 0 859 0C845.3 0 831.7 0 818 0C804.3 0 790.7 0 777 0C763.3 0 749.7 0 736 0C722.3 0 708.7 0 695.2 0C681.7 0 668.3 0 654.8 0C641.3 0 627.7 0 614 0C600.3 0 586.7 0 573 0C559.3 0 545.7 0 532 0C518.3 0 504.7 0 491 0C477.3 0 463.7 0 450 0C436.3 0 422.7 0 409 0C395.3 0 381.7 0 368 0C354.3 0 340.7 0 327 0C313.3 0 299.7 0 286 0C272.3 0 258.7 0 245.2 0C231.7 0 218.3 0 204.8 0C191.3 0 177.7 0 164 0C150.3 0 136.7 0 123 0C109.3 0 95.7 0 82 0C68.3 0 54.7 0 41 0C27.3 0 13.7 0 6.8 0L0 0Z" fill="#42a3d5"></path><path d="M0 6L6.8 6.7C13.7 7.3 27.3 8.7 41 9.3C54.7 10 68.3 10 82 9.8C95.7 9.7 109.3 9.3 123 12C136.7 14.7 150.3 20.3 164 20.2C177.7 20 191.3 14 204.8 13.8C218.3 13.7 231.7 19.3 245.2 19.2C258.7 19 272.3 13 286 13.3C299.7 13.7 313.3 20.3 327 21C340.7 21.7 354.3 16.3 368 14.8C381.7 13.3 395.3 15.7 409 15.7C422.7 15.7 436.3 13.3 450 12.8C463.7 12.3 477.3 13.7 491 14C504.7 14.3 518.3 13.7 532 14.7C545.7 15.7 559.3 18.3 573 18.2C586.7 18 600.3 15 614 14.5C627.7 14 641.3 16 654.8 15.5C668.3 15 681.7 12 695.2 10.5C708.7 9 722.3 9 736 10.3C749.7 11.7 763.3 14.3 777 16.5C790.7 18.7 804.3 20.3 818 21.7C831.7 23 845.3 24 859 24.7C872.7 25.3 886.3 25.7 893.2 25.8L900 26L900 0L893.2 0C886.3 0 872.7 0 859 0C845.3 0 831.7 0 818 0C804.3 0 790.7 0 777 0C763.3 0 749.7 0 736 0C722.3 0 708.7 0 695.2 0C681.7 0 668.3 0 654.8 0C641.3 0 627.7 0 614 0C600.3 0 586.7 0 573 0C559.3 0 545.7 0 532 0C518.3 0 504.7 0 491 0C477.3 0 463.7 0 450 0C436.3 0 422.7 0 409 0C395.3 0 381.7 0 368 0C354.3 0 340.7 0 327 0C313.3 0 299.7 0 286 0C272.3 0 258.7 0 245.2 0C231.7 0 218.3 0 204.8 0C191.3 0 177.7 0 164 0C150.3 0 136.7 0 123 0C109.3 0 95.7 0 82 0C68.3 0 54.7 0 41 0C27.3 0 13.7 0 6.8 0L0 0Z" fill="#2491c7"></path></svg>