<svg id="visual" viewBox="0 0 900 100" width="900" height="100" xmlns="http://www.w3.org/2000/svg" xmlns:xlink="http://www.w3.org/1999/xlink" version="1.1"><rect x="0" y="0" width="900" height="100" fill="#fff"></rect><path d="M0 15L60 15L60 50L120 50L120 43L180 43L180 25L240 25L240 61L300 61L300 58L360 58L360 43L420 43L420 16L480 16L480 28L540 28L540 58L600 58L600 61L660 61L660 37L720 37L720 68L780 68L780 55L840 55L840 39L900 39L900 19L900 101L900 101L840 101L840 101L780 101L780 101L720 101L720 101L660 101L660 101L600 101L600 101L540 101L540 101L480 101L480 101L420 101L420 101L360 101L360 101L300 101L300 101L240 101L240 101L180 101L180 101L120 101L120 101L60 101L60 101L0 101Z" fill="#89dbff"></path><path d="M0 36L60 36L60 33L120 33L120 47L180 47L180 37L240 37L240 68L300 68L300 69L360 69L360 49L420 49L420 33L480 33L480 66L540 66L540 50L600 50L600 67L660 67L660 61L720 61L720 47L780 47L780 30L840 30L840 51L900 51L900 53L900 101L900 101L840 101L840 101L780 101L780 101L720 101L720 101L660 101L660 101L600 101L600 101L540 101L540 101L480 101L480 101L420 101L420 101L360 101L360 101L300 101L300 101L240 101L240 101L180 101L180 101L120 101L120 101L60 101L60 101L0 101Z" fill="#6bc2ec"></path><path d="M0 73L60 73L60 56L120 56L120 52L180 52L180 63L240 63L240 56L300 56L300 76L360 76L360 47L420 47L420 65L480 65L480 50L540 50L540 56L600 56L600 59L660 59L660 60L720 60L720 53L780 53L780 52L840 52L840 74L900 74L900 78L900 101L900 101L840 101L840 101L780 101L780 101L720 101L720 101L660 101L660 101L600 101L600 101L540 101L540 101L480 101L480 101L420 101L420 101L360 101L360 101L300 101L300 101L240 101L240 101L180 101L180 101L120 101L120 101L60 101L60 101L0 101Z" fill="#4baada"></path><path d="M0 84L60 84L60 74L120 74L120 88L180 88L180 78L240 78L240 65L300 65L300 94L360 94L360 83L420 83L420 68L480 68L480 93L540 93L540 72L600 72L600 95L660 95L660 67L720 67L720 92L780 92L780 74L840 74L840 70L900 70L900 94L900 101L900 101L840 101L840 101L780 101L780 101L720 101L720 101L660 101L660 101L600 101L600 101L540 101L540 101L480 101L480 101L420 101L420 101L360 101L360 101L300 101L300 101L240 101L240 101L180 101L180 101L120 101L120 101L60 101L60 101L0 101Z" fill="#2491c7"></path></svg>