<svg id="visual" viewBox="0 0 900 100" width="900" height="100" xmlns="http://www.w3.org/2000/svg" xmlns:xlink="http://www.w3.org/1999/xlink" version="1.1"><rect x="0" y="0" width="900" height="100" fill="#ffffff"></rect><path d="M0 6L18.8 14.8C37.7 23.7 75.3 41.3 112.8 46C150.3 50.7 187.7 42.3 225.2 34.3C262.7 26.3 300.3 18.7 337.8 20.2C375.3 21.7 412.7 32.3 450.2 34.8C487.7 37.3 525.3 31.7 562.8 29.7C600.3 27.7 637.7 29.3 675.2 28.8C712.7 28.3 750.3 25.7 787.8 21.3C825.3 17 862.7 11 881.3 8L900 5L900 0L881.3 0C862.7 0 825.3 0 787.8 0C750.3 0 712.7 0 675.2 0C637.7 0 600.3 0 562.8 0C525.3 0 487.7 0 450.2 0C412.7 0 375.3 0 337.8 0C300.3 0 262.7 0 225.2 0C187.7 0 150.3 0 112.8 0C75.3 0 37.7 0 18.8 0L0 0Z" fill="#89dbff"></path><path d="M0 18L18.8 18.2C37.7 18.3 75.3 18.7 112.8 18.8C150.3 19 187.7 19 225.2 24.2C262.7 29.3 300.3 39.7 337.8 45.2C375.3 50.7 412.7 51.3 450.2 44.2C487.7 37 525.3 22 562.8 13.8C600.3 5.7 637.7 4.3 675.2 6.3C712.7 8.3 750.3 13.7 787.8 20.2C825.3 26.7 862.7 34.3 881.3 38.2L900 42L900 0L881.3 0C862.7 0 825.3 0 787.8 0C750.3 0 712.7 0 675.2 0C637.7 0 600.3 0 562.8 0C525.3 0 487.7 0 450.2 0C412.7 0 375.3 0 337.8 0C300.3 0 262.7 0 225.2 0C187.7 0 150.3 0 112.8 0C75.3 0 37.7 0 18.8 0L0 0Z" fill="#72c8f1"></path><path d="M0 6L18.8 13C37.7 20 75.3 34 112.8 39.5C150.3 45 187.7 42 225.2 41.7C262.7 41.3 300.3 43.7 337.8 38.8C375.3 34 412.7 22 450.2 18.3C487.7 14.7 525.3 19.3 562.8 25.7C600.3 32 637.7 40 675.2 40.2C712.7 40.3 750.3 32.7 787.8 32.8C825.3 33 862.7 41 881.3 45L900 49L900 0L881.3 0C862.7 0 825.3 0 787.8 0C750.3 0 712.7 0 675.2 0C637.7 0 600.3 0 562.8 0C525.3 0 487.7 0 450.2 0C412.7 0 375.3 0 337.8 0C300.3 0 262.7 0 225.2 0C187.7 0 150.3 0 112.8 0C75.3 0 37.7 0 18.8 0L0 0Z" fill="#5bb6e3"></path><path d="M0 26L18.8 22.8C37.7 19.7 75.3 13.3 112.8 15C150.3 16.7 187.7 26.3 225.2 25.5C262.7 24.7 300.3 13.3 337.8 12.7C375.3 12 412.7 22 450.2 23.8C487.7 25.7 525.3 19.3 562.8 14.5C600.3 9.7 637.7 6.3 675.2 6C712.7 5.7 750.3 8.3 787.8 13.5C825.3 18.7 862.7 26.3 881.3 30.2L900 34L900 0L881.3 0C862.7 0 825.3 0 787.8 0C750.3 0 712.7 0 675.2 0C637.7 0 600.3 0 562.8 0C525.3 0 487.7 0 450.2 0C412.7 0 375.3 0 337.8 0C300.3 0 262.7 0 225.2 0C187.7 0 150.3 0 112.8 0C75.3 0 37.7 0 18.8 0L0 0Z" fill="#42a3d5"></path><path d="M0 12L18.8 11.5C37.7 11 75.3 10 112.8 8.7C150.3 7.3 187.7 5.7 225.2 4.3C262.7 3 300.3 2 337.8 1.3C375.3 0.7 412.7 0.3 450.2 3.3C487.7 6.3 525.3 12.7 562.8 15.2C600.3 17.7 637.7 16.3 675.2 13.5C712.7 10.7 750.3 6.3 787.8 6.3C825.3 6.3 862.7 10.7 881.3 12.8L900 15L900 0L881.3 0C862.7 0 825.3 0 787.8 0C750.3 0 712.7 0 675.2 0C637.7 0 600.3 0 562.8 0C525.3 0 487.7 0 450.2 0C412.7 0 375.3 0 337.8 0C300.3 0 262.7 0 225.2 0C187.7 0 150.3 0 112.8 0C75.3 0 37.7 0 18.8 0L0 0Z" fill="#2491c7"></path></svg>